<?xml version="1.0" encoding="utf-8"?>
<!-- Generator: Adobe Illustrator 24.0.1, SVG Export Plug-In . SVG Version: 6.00 Build 0)  -->
<svg version="1.1" xmlns="http://www.w3.org/2000/svg" xmlns:xlink="http://www.w3.org/1999/xlink" x="0px" y="0px"
	 viewBox="0 0 630 764.3" style="enable-background:new 0 0 630 764.3;" xml:space="preserve">
<style type="text/css">
	.st0{opacity:0.1;}
	.st1{fill:#97ACBD;}
	.st2{fill:#231F20;}
	.st3{font-family:'Arial-Black';}
	.st4{font-size:21.952px;}
	.st5{fill:#FF0013;stroke:#020202;stroke-width:2;stroke-miterlimit:10;}
	.st6{fill:#757779;}
	.st7{fill:#FF0013;}
	.st8{fill:#FFFFFF;stroke:#000000;stroke-miterlimit:10;}
	.st9{font-family:'MyriadPro-Bold';}
	.st10{font-size:8.3798px;}
	.st11{fill:#FFFFFF;}
	.st12{fill:#020202;}
	.st13{font-size:10px;}
	.st14{fill:none;}
	.st15{font-size:48.3993px;}
	.st16{fill:none;stroke:#FF0000;stroke-width:5;stroke-miterlimit:10;stroke-dasharray:5;}
</style>
<g id="grid">
	<g class="st0">
		<g>
			<rect x="-673.4" y="134.8" class="st1" width="44" height="44"/>
			<path class="st2" d="M-629.9,135.3v43h-43v-43H-629.9 M-628.9,134.3h-45v45h45V134.3L-628.9,134.3z"/>
		</g>
	</g>
	<g class="st0">
		<g>
			<rect x="-628.4" y="134.8" class="st1" width="44" height="44"/>
			<path class="st2" d="M-584.9,135.3v43h-43v-43H-584.9 M-583.9,134.3h-45v45h45V134.3L-583.9,134.3z"/>
		</g>
	</g>
	<g class="st0">
		<g>
			<rect x="-583.4" y="134.8" class="st1" width="44" height="44"/>
			<path class="st2" d="M-539.9,135.3v43h-43v-43H-539.9 M-538.9,134.3h-45v45h45V134.3L-538.9,134.3z"/>
		</g>
	</g>
	<g class="st0">
		<g>
			<rect x="-538.4" y="134.8" class="st1" width="44" height="44"/>
			<path class="st2" d="M-494.9,135.3v43h-43v-43H-494.9 M-493.9,134.3h-45v45h45V134.3L-493.9,134.3z"/>
		</g>
	</g>
	<g class="st0">
		<g>
			<rect x="-493.4" y="134.8" class="st1" width="44" height="44"/>
			<path class="st2" d="M-449.9,135.3v43h-43v-43H-449.9 M-448.9,134.3h-45v45h45V134.3L-448.9,134.3z"/>
		</g>
	</g>
	<g class="st0">
		<g>
			<rect x="-448.4" y="134.8" class="st1" width="44" height="44"/>
			<path class="st2" d="M-404.9,135.3v43h-43v-43H-404.9 M-403.9,134.3h-45v45h45V134.3L-403.9,134.3z"/>
		</g>
	</g>
	<g class="st0">
		<g>
			<rect x="-403.4" y="134.8" class="st1" width="44" height="44"/>
			<path class="st2" d="M-359.9,135.3v43h-43v-43H-359.9 M-358.9,134.3h-45v45h45V134.3L-358.9,134.3z"/>
		</g>
	</g>
	<g class="st0">
		<g>
			<rect x="-358.4" y="134.8" class="st1" width="44" height="44"/>
			<path class="st2" d="M-314.9,135.3v43h-43v-43H-314.9 M-313.9,134.3h-45v45h45V134.3L-313.9,134.3z"/>
		</g>
	</g>
	<g class="st0">
		<g>
			<rect x="-313.4" y="134.8" class="st1" width="44" height="44"/>
			<path class="st2" d="M-269.9,135.3v43h-43v-43H-269.9 M-268.9,134.3h-45v45h45V134.3L-268.9,134.3z"/>
		</g>
	</g>
	<g class="st0">
		<g>
			<rect x="-268.4" y="134.8" class="st1" width="44" height="44"/>
			<path class="st2" d="M-224.9,135.3v43h-43v-43H-224.9 M-223.9,134.3h-45v45h45V134.3L-223.9,134.3z"/>
		</g>
	</g>
	<g class="st0">
		<g>
			<rect x="-223.4" y="134.8" class="st1" width="44" height="44"/>
			<path class="st2" d="M-179.9,135.3v43h-43v-43H-179.9 M-178.9,134.3h-45v45h45V134.3L-178.9,134.3z"/>
		</g>
	</g>
	<g class="st0">
		<g>
			<rect x="-178.4" y="134.8" class="st1" width="44" height="44"/>
			<path class="st2" d="M-134.9,135.3v43h-43v-43H-134.9 M-133.9,134.3h-45v45h45V134.3L-133.9,134.3z"/>
		</g>
	</g>
	<g class="st0">
		<g>
			<rect x="-673.4" y="179.8" class="st1" width="44" height="44"/>
			<path class="st2" d="M-629.9,180.3v43h-43v-43H-629.9 M-628.9,179.3h-45v45h45V179.3L-628.9,179.3z"/>
		</g>
	</g>
	<g class="st0">
		<g>
			<rect x="-628.4" y="179.8" class="st1" width="44" height="44"/>
			<path class="st2" d="M-584.9,180.3v43h-43v-43H-584.9 M-583.9,179.3h-45v45h45V179.3L-583.9,179.3z"/>
		</g>
	</g>
	<g class="st0">
		<g>
			<rect x="-583.4" y="179.8" class="st1" width="44" height="44"/>
			<path class="st2" d="M-539.9,180.3v43h-43v-43H-539.9 M-538.9,179.3h-45v45h45V179.3L-538.9,179.3z"/>
		</g>
	</g>
	<g class="st0">
		<g>
			<rect x="-538.4" y="179.8" class="st1" width="44" height="44"/>
			<path class="st2" d="M-494.9,180.3v43h-43v-43H-494.9 M-493.9,179.3h-45v45h45V179.3L-493.9,179.3z"/>
		</g>
	</g>
	<g class="st0">
		<g>
			<rect x="-493.4" y="179.8" class="st1" width="44" height="44"/>
			<path class="st2" d="M-449.9,180.3v43h-43v-43H-449.9 M-448.9,179.3h-45v45h45V179.3L-448.9,179.3z"/>
		</g>
	</g>
	<g class="st0">
		<g>
			<rect x="-448.4" y="179.8" class="st1" width="44" height="44"/>
			<path class="st2" d="M-404.9,180.3v43h-43v-43H-404.9 M-403.9,179.3h-45v45h45V179.3L-403.9,179.3z"/>
		</g>
	</g>
	<g class="st0">
		<g>
			<rect x="-403.4" y="179.8" class="st1" width="44" height="44"/>
			<path class="st2" d="M-359.9,180.3v43h-43v-43H-359.9 M-358.9,179.3h-45v45h45V179.3L-358.9,179.3z"/>
		</g>
	</g>
	<g class="st0">
		<g>
			<rect x="-358.4" y="179.8" class="st1" width="44" height="44"/>
			<path class="st2" d="M-314.9,180.3v43h-43v-43H-314.9 M-313.9,179.3h-45v45h45V179.3L-313.9,179.3z"/>
		</g>
	</g>
	<g class="st0">
		<g>
			<rect x="-313.4" y="179.8" class="st1" width="44" height="44"/>
			<path class="st2" d="M-269.9,180.3v43h-43v-43H-269.9 M-268.9,179.3h-45v45h45V179.3L-268.9,179.3z"/>
		</g>
	</g>
	<g class="st0">
		<g>
			<rect x="-268.4" y="179.8" class="st1" width="44" height="44"/>
			<path class="st2" d="M-224.9,180.3v43h-43v-43H-224.9 M-223.9,179.3h-45v45h45V179.3L-223.9,179.3z"/>
		</g>
	</g>
	<g class="st0">
		<g>
			<rect x="-223.4" y="179.8" class="st1" width="44" height="44"/>
			<path class="st2" d="M-179.9,180.3v43h-43v-43H-179.9 M-178.9,179.3h-45v45h45V179.3L-178.9,179.3z"/>
		</g>
	</g>
	<g class="st0">
		<g>
			<rect x="-178.4" y="179.8" class="st1" width="44" height="44"/>
			<path class="st2" d="M-134.9,180.3v43h-43v-43H-134.9 M-133.9,179.3h-45v45h45V179.3L-133.9,179.3z"/>
		</g>
	</g>
	<g class="st0">
		<g>
			<rect x="-673.4" y="224.8" class="st1" width="44" height="44"/>
			<path class="st2" d="M-629.9,225.3v43h-43v-43H-629.9 M-628.9,224.3h-45v45h45V224.3L-628.9,224.3z"/>
		</g>
	</g>
	<g class="st0">
		<g>
			<rect x="-628.4" y="224.8" class="st1" width="44" height="44"/>
			<path class="st2" d="M-584.9,225.3v43h-43v-43H-584.9 M-583.9,224.3h-45v45h45V224.3L-583.9,224.3z"/>
		</g>
	</g>
	<g class="st0">
		<g>
			<rect x="-583.4" y="224.8" class="st1" width="44" height="44"/>
			<path class="st2" d="M-539.9,225.3v43h-43v-43H-539.9 M-538.9,224.3h-45v45h45V224.3L-538.9,224.3z"/>
		</g>
	</g>
	<g class="st0">
		<g>
			<rect x="-538.4" y="224.8" class="st1" width="44" height="44"/>
			<path class="st2" d="M-494.9,225.3v43h-43v-43H-494.9 M-493.9,224.3h-45v45h45V224.3L-493.9,224.3z"/>
		</g>
	</g>
	<g class="st0">
		<g>
			<rect x="-493.4" y="224.8" class="st1" width="44" height="44"/>
			<path class="st2" d="M-449.9,225.3v43h-43v-43H-449.9 M-448.9,224.3h-45v45h45V224.3L-448.9,224.3z"/>
		</g>
	</g>
	<g class="st0">
		<g>
			<rect x="-448.4" y="224.8" class="st1" width="44" height="44"/>
			<path class="st2" d="M-404.9,225.3v43h-43v-43H-404.9 M-403.9,224.3h-45v45h45V224.3L-403.9,224.3z"/>
		</g>
	</g>
	<g class="st0">
		<g>
			<rect x="-403.4" y="224.8" class="st1" width="44" height="44"/>
			<path class="st2" d="M-359.9,225.3v43h-43v-43H-359.9 M-358.9,224.3h-45v45h45V224.3L-358.9,224.3z"/>
		</g>
	</g>
	<g class="st0">
		<g>
			<rect x="-358.4" y="224.8" class="st1" width="44" height="44"/>
			<path class="st2" d="M-314.9,225.3v43h-43v-43H-314.9 M-313.9,224.3h-45v45h45V224.3L-313.9,224.3z"/>
		</g>
	</g>
	<g class="st0">
		<g>
			<rect x="-313.4" y="224.8" class="st1" width="44" height="44"/>
			<path class="st2" d="M-269.9,225.3v43h-43v-43H-269.9 M-268.9,224.3h-45v45h45V224.3L-268.9,224.3z"/>
		</g>
	</g>
	<g class="st0">
		<g>
			<rect x="-268.4" y="224.8" class="st1" width="44" height="44"/>
			<path class="st2" d="M-224.9,225.3v43h-43v-43H-224.9 M-223.9,224.3h-45v45h45V224.3L-223.9,224.3z"/>
		</g>
	</g>
	<g class="st0">
		<g>
			<rect x="-223.4" y="224.8" class="st1" width="44" height="44"/>
			<path class="st2" d="M-179.9,225.3v43h-43v-43H-179.9 M-178.9,224.3h-45v45h45V224.3L-178.9,224.3z"/>
		</g>
	</g>
	<g class="st0">
		<g>
			<rect x="-178.4" y="224.8" class="st1" width="44" height="44"/>
			<path class="st2" d="M-134.9,225.3v43h-43v-43H-134.9 M-133.9,224.3h-45v45h45V224.3L-133.9,224.3z"/>
		</g>
	</g>
	<g class="st0">
		<g>
			<rect x="-673.4" y="269.8" class="st1" width="44" height="44"/>
			<path class="st2" d="M-629.9,270.3v43h-43v-43H-629.9 M-628.9,269.3h-45v45h45V269.3L-628.9,269.3z"/>
		</g>
	</g>
	<g class="st0">
		<g>
			<rect x="-628.4" y="269.8" class="st1" width="44" height="44"/>
			<path class="st2" d="M-584.9,270.3v43h-43v-43H-584.9 M-583.9,269.3h-45v45h45V269.3L-583.9,269.3z"/>
		</g>
	</g>
	<g class="st0">
		<g>
			<rect x="-583.4" y="269.8" class="st1" width="44" height="44"/>
			<path class="st2" d="M-539.9,270.3v43h-43v-43H-539.9 M-538.9,269.3h-45v45h45V269.3L-538.9,269.3z"/>
		</g>
	</g>
	<g class="st0">
		<g>
			<rect x="-538.4" y="269.8" class="st1" width="44" height="44"/>
			<path class="st2" d="M-494.9,270.3v43h-43v-43H-494.9 M-493.9,269.3h-45v45h45V269.3L-493.9,269.3z"/>
		</g>
	</g>
	<g class="st0">
		<g>
			<rect x="-493.4" y="269.8" class="st1" width="44" height="44"/>
			<path class="st2" d="M-449.9,270.3v43h-43v-43H-449.9 M-448.9,269.3h-45v45h45V269.3L-448.9,269.3z"/>
		</g>
	</g>
	<g class="st0">
		<g>
			<rect x="-448.4" y="269.8" class="st1" width="44" height="44"/>
			<path class="st2" d="M-404.9,270.3v43h-43v-43H-404.9 M-403.9,269.3h-45v45h45V269.3L-403.9,269.3z"/>
		</g>
	</g>
	<g class="st0">
		<g>
			<rect x="-403.4" y="269.8" class="st1" width="44" height="44"/>
			<path class="st2" d="M-359.9,270.3v43h-43v-43H-359.9 M-358.9,269.3h-45v45h45V269.3L-358.9,269.3z"/>
		</g>
	</g>
	<g class="st0">
		<g>
			<rect x="-358.4" y="269.8" class="st1" width="44" height="44"/>
			<path class="st2" d="M-314.9,270.3v43h-43v-43H-314.9 M-313.9,269.3h-45v45h45V269.3L-313.9,269.3z"/>
		</g>
	</g>
	<g class="st0">
		<g>
			<rect x="-313.4" y="269.8" class="st1" width="44" height="44"/>
			<path class="st2" d="M-269.9,270.3v43h-43v-43H-269.9 M-268.9,269.3h-45v45h45V269.3L-268.9,269.3z"/>
		</g>
	</g>
	<g class="st0">
		<g>
			<rect x="-268.4" y="269.8" class="st1" width="44" height="44"/>
			<path class="st2" d="M-224.9,270.3v43h-43v-43H-224.9 M-223.9,269.3h-45v45h45V269.3L-223.9,269.3z"/>
		</g>
	</g>
	<g class="st0">
		<g>
			<rect x="-223.4" y="269.8" class="st1" width="44" height="44"/>
			<path class="st2" d="M-179.9,270.3v43h-43v-43H-179.9 M-178.9,269.3h-45v45h45V269.3L-178.9,269.3z"/>
		</g>
	</g>
	<g class="st0">
		<g>
			<rect x="-178.4" y="269.8" class="st1" width="44" height="44"/>
			<path class="st2" d="M-134.9,270.3v43h-43v-43H-134.9 M-133.9,269.3h-45v45h45V269.3L-133.9,269.3z"/>
		</g>
	</g>
	<g class="st0">
		<g>
			<rect x="-673.4" y="314.8" class="st1" width="44" height="44"/>
			<path class="st2" d="M-629.9,315.3v43h-43v-43H-629.9 M-628.9,314.3h-45v45h45V314.3L-628.9,314.3z"/>
		</g>
	</g>
	<g class="st0">
		<g>
			<rect x="-628.4" y="314.8" class="st1" width="44" height="44"/>
			<path class="st2" d="M-584.9,315.3v43h-43v-43H-584.9 M-583.9,314.3h-45v45h45V314.3L-583.9,314.3z"/>
		</g>
	</g>
	<g class="st0">
		<g>
			<rect x="-583.4" y="314.8" class="st1" width="44" height="44"/>
			<path class="st2" d="M-539.9,315.3v43h-43v-43H-539.9 M-538.9,314.3h-45v45h45V314.3L-538.9,314.3z"/>
		</g>
	</g>
	<g class="st0">
		<g>
			<rect x="-538.4" y="314.8" class="st1" width="44" height="44"/>
			<path class="st2" d="M-494.9,315.3v43h-43v-43H-494.9 M-493.9,314.3h-45v45h45V314.3L-493.9,314.3z"/>
		</g>
	</g>
	<g class="st0">
		<g>
			<rect x="-493.4" y="314.8" class="st1" width="44" height="44"/>
			<path class="st2" d="M-449.9,315.3v43h-43v-43H-449.9 M-448.9,314.3h-45v45h45V314.3L-448.9,314.3z"/>
		</g>
	</g>
	<g class="st0">
		<g>
			<rect x="-448.4" y="314.8" class="st1" width="44" height="44"/>
			<path class="st2" d="M-404.9,315.3v43h-43v-43H-404.9 M-403.9,314.3h-45v45h45V314.3L-403.9,314.3z"/>
		</g>
	</g>
	<g class="st0">
		<g>
			<rect x="-403.4" y="314.8" class="st1" width="44" height="44"/>
			<path class="st2" d="M-359.9,315.3v43h-43v-43H-359.9 M-358.9,314.3h-45v45h45V314.3L-358.9,314.3z"/>
		</g>
	</g>
	<g class="st0">
		<g>
			<rect x="-358.4" y="314.8" class="st1" width="44" height="44"/>
			<path class="st2" d="M-314.9,315.3v43h-43v-43H-314.9 M-313.9,314.3h-45v45h45V314.3L-313.9,314.3z"/>
		</g>
	</g>
	<g class="st0">
		<g>
			<rect x="-313.4" y="314.8" class="st1" width="44" height="44"/>
			<path class="st2" d="M-269.9,315.3v43h-43v-43H-269.9 M-268.9,314.3h-45v45h45V314.3L-268.9,314.3z"/>
		</g>
	</g>
	<g class="st0">
		<g>
			<rect x="-268.4" y="314.8" class="st1" width="44" height="44"/>
			<path class="st2" d="M-224.9,315.3v43h-43v-43H-224.9 M-223.9,314.3h-45v45h45V314.3L-223.9,314.3z"/>
		</g>
	</g>
	<g class="st0">
		<g>
			<rect x="-223.4" y="314.8" class="st1" width="44" height="44"/>
			<path class="st2" d="M-179.9,315.3v43h-43v-43H-179.9 M-178.9,314.3h-45v45h45V314.3L-178.9,314.3z"/>
		</g>
	</g>
	<g class="st0">
		<g>
			<rect x="-178.4" y="314.8" class="st1" width="44" height="44"/>
			<path class="st2" d="M-134.9,315.3v43h-43v-43H-134.9 M-133.9,314.3h-45v45h45V314.3L-133.9,314.3z"/>
		</g>
	</g>
	<g class="st0">
		<g>
			<rect x="-673.4" y="359.8" class="st1" width="44" height="44"/>
			<path class="st2" d="M-629.9,360.3v43h-43v-43H-629.9 M-628.9,359.3h-45v45h45V359.3L-628.9,359.3z"/>
		</g>
	</g>
	<g class="st0">
		<g>
			<rect x="-628.4" y="359.8" class="st1" width="44" height="44"/>
			<path class="st2" d="M-584.9,360.3v43h-43v-43H-584.9 M-583.9,359.3h-45v45h45V359.3L-583.9,359.3z"/>
		</g>
	</g>
	<g class="st0">
		<g>
			<rect x="-583.4" y="359.8" class="st1" width="44" height="44"/>
			<path class="st2" d="M-539.9,360.3v43h-43v-43H-539.9 M-538.9,359.3h-45v45h45V359.3L-538.9,359.3z"/>
		</g>
	</g>
	<g class="st0">
		<g>
			<rect x="-538.4" y="359.8" class="st1" width="44" height="44"/>
			<path class="st2" d="M-494.9,360.3v43h-43v-43H-494.9 M-493.9,359.3h-45v45h45V359.3L-493.9,359.3z"/>
		</g>
	</g>
	<g class="st0">
		<g>
			<rect x="-493.4" y="359.8" class="st1" width="44" height="44"/>
			<path class="st2" d="M-449.9,360.3v43h-43v-43H-449.9 M-448.9,359.3h-45v45h45V359.3L-448.9,359.3z"/>
		</g>
	</g>
	<g class="st0">
		<g>
			<rect x="-448.4" y="359.8" class="st1" width="44" height="44"/>
			<path class="st2" d="M-404.9,360.3v43h-43v-43H-404.9 M-403.9,359.3h-45v45h45V359.3L-403.9,359.3z"/>
		</g>
	</g>
	<g class="st0">
		<g>
			<rect x="-403.4" y="359.8" class="st1" width="44" height="44"/>
			<path class="st2" d="M-359.9,360.3v43h-43v-43H-359.9 M-358.9,359.3h-45v45h45V359.3L-358.9,359.3z"/>
		</g>
	</g>
	<g class="st0">
		<g>
			<rect x="-358.4" y="359.8" class="st1" width="44" height="44"/>
			<path class="st2" d="M-314.9,360.3v43h-43v-43H-314.9 M-313.9,359.3h-45v45h45V359.3L-313.9,359.3z"/>
		</g>
	</g>
	<g class="st0">
		<g>
			<rect x="-313.4" y="359.8" class="st1" width="44" height="44"/>
			<path class="st2" d="M-269.9,360.3v43h-43v-43H-269.9 M-268.9,359.3h-45v45h45V359.3L-268.9,359.3z"/>
		</g>
	</g>
	<g class="st0">
		<g>
			<rect x="-268.4" y="359.8" class="st1" width="44" height="44"/>
			<path class="st2" d="M-224.9,360.3v43h-43v-43H-224.9 M-223.9,359.3h-45v45h45V359.3L-223.9,359.3z"/>
		</g>
	</g>
	<g class="st0">
		<g>
			<rect x="-223.4" y="359.8" class="st1" width="44" height="44"/>
			<path class="st2" d="M-179.9,360.3v43h-43v-43H-179.9 M-178.9,359.3h-45v45h45V359.3L-178.9,359.3z"/>
		</g>
	</g>
	<g class="st0">
		<g>
			<rect x="-178.4" y="359.8" class="st1" width="44" height="44"/>
			<path class="st2" d="M-134.9,360.3v43h-43v-43H-134.9 M-133.9,359.3h-45v45h45V359.3L-133.9,359.3z"/>
		</g>
	</g>
	<g class="st0">
		<g>
			<rect x="-673.4" y="404.8" class="st1" width="44" height="44"/>
			<path class="st2" d="M-629.9,405.3v43h-43v-43H-629.9 M-628.9,404.3h-45v45h45V404.3L-628.9,404.3z"/>
		</g>
	</g>
	<g class="st0">
		<g>
			<rect x="-628.4" y="404.8" class="st1" width="44" height="44"/>
			<path class="st2" d="M-584.9,405.3v43h-43v-43H-584.9 M-583.9,404.3h-45v45h45V404.3L-583.9,404.3z"/>
		</g>
	</g>
	<g class="st0">
		<g>
			<rect x="-583.4" y="404.8" class="st1" width="44" height="44"/>
			<path class="st2" d="M-539.9,405.3v43h-43v-43H-539.9 M-538.9,404.3h-45v45h45V404.3L-538.9,404.3z"/>
		</g>
	</g>
	<g class="st0">
		<g>
			<rect x="-538.4" y="404.8" class="st1" width="44" height="44"/>
			<path class="st2" d="M-494.9,405.3v43h-43v-43H-494.9 M-493.9,404.3h-45v45h45V404.3L-493.9,404.3z"/>
		</g>
	</g>
	<g class="st0">
		<g>
			<rect x="-493.4" y="404.8" class="st1" width="44" height="44"/>
			<path class="st2" d="M-449.9,405.3v43h-43v-43H-449.9 M-448.9,404.3h-45v45h45V404.3L-448.9,404.3z"/>
		</g>
	</g>
	<g class="st0">
		<g>
			<rect x="-448.4" y="404.8" class="st1" width="44" height="44"/>
			<path class="st2" d="M-404.9,405.3v43h-43v-43H-404.9 M-403.9,404.3h-45v45h45V404.3L-403.9,404.3z"/>
		</g>
	</g>
	<g class="st0">
		<g>
			<rect x="-403.4" y="404.8" class="st1" width="44" height="44"/>
			<path class="st2" d="M-359.9,405.3v43h-43v-43H-359.9 M-358.9,404.3h-45v45h45V404.3L-358.9,404.3z"/>
		</g>
	</g>
	<g class="st0">
		<g>
			<rect x="-358.4" y="404.8" class="st1" width="44" height="44"/>
			<path class="st2" d="M-314.9,405.3v43h-43v-43H-314.9 M-313.9,404.3h-45v45h45V404.3L-313.9,404.3z"/>
		</g>
	</g>
	<g class="st0">
		<g>
			<rect x="-313.4" y="404.8" class="st1" width="44" height="44"/>
			<path class="st2" d="M-269.9,405.3v43h-43v-43H-269.9 M-268.9,404.3h-45v45h45V404.3L-268.9,404.3z"/>
		</g>
	</g>
	<g class="st0">
		<g>
			<rect x="-268.4" y="404.8" class="st1" width="44" height="44"/>
			<path class="st2" d="M-224.9,405.3v43h-43v-43H-224.9 M-223.9,404.3h-45v45h45V404.3L-223.9,404.3z"/>
		</g>
	</g>
	<g class="st0">
		<g>
			<rect x="-223.4" y="404.8" class="st1" width="44" height="44"/>
			<path class="st2" d="M-179.9,405.3v43h-43v-43H-179.9 M-178.9,404.3h-45v45h45V404.3L-178.9,404.3z"/>
		</g>
	</g>
	<g class="st0">
		<g>
			<rect x="-178.4" y="404.8" class="st1" width="44" height="44"/>
			<path class="st2" d="M-134.9,405.3v43h-43v-43H-134.9 M-133.9,404.3h-45v45h45V404.3L-133.9,404.3z"/>
		</g>
	</g>
	<g class="st0">
		<g>
			<rect x="-673.4" y="449.8" class="st1" width="44" height="44"/>
			<path class="st2" d="M-629.9,450.3v43h-43v-43H-629.9 M-628.9,449.3h-45v45h45V449.3L-628.9,449.3z"/>
		</g>
	</g>
	<g class="st0">
		<g>
			<rect x="-628.4" y="449.8" class="st1" width="44" height="44"/>
			<path class="st2" d="M-584.9,450.3v43h-43v-43H-584.9 M-583.9,449.3h-45v45h45V449.3L-583.9,449.3z"/>
		</g>
	</g>
	<g class="st0">
		<g>
			<rect x="-583.4" y="449.8" class="st1" width="44" height="44"/>
			<path class="st2" d="M-539.9,450.3v43h-43v-43H-539.9 M-538.9,449.3h-45v45h45V449.3L-538.9,449.3z"/>
		</g>
	</g>
	<g class="st0">
		<g>
			<rect x="-538.4" y="449.8" class="st1" width="44" height="44"/>
			<path class="st2" d="M-494.9,450.3v43h-43v-43H-494.9 M-493.9,449.3h-45v45h45V449.3L-493.9,449.3z"/>
		</g>
	</g>
	<g class="st0">
		<g>
			<rect x="-493.4" y="449.8" class="st1" width="44" height="44"/>
			<path class="st2" d="M-449.9,450.3v43h-43v-43H-449.9 M-448.9,449.3h-45v45h45V449.3L-448.9,449.3z"/>
		</g>
	</g>
	<g class="st0">
		<g>
			<rect x="-448.4" y="449.8" class="st1" width="44" height="44"/>
			<path class="st2" d="M-404.9,450.3v43h-43v-43H-404.9 M-403.9,449.3h-45v45h45V449.3L-403.9,449.3z"/>
		</g>
	</g>
	<g class="st0">
		<g>
			<rect x="-403.4" y="449.8" class="st1" width="44" height="44"/>
			<path class="st2" d="M-359.9,450.3v43h-43v-43H-359.9 M-358.9,449.3h-45v45h45V449.3L-358.9,449.3z"/>
		</g>
	</g>
	<g class="st0">
		<g>
			<rect x="-358.4" y="449.8" class="st1" width="44" height="44"/>
			<path class="st2" d="M-314.9,450.3v43h-43v-43H-314.9 M-313.9,449.3h-45v45h45V449.3L-313.9,449.3z"/>
		</g>
	</g>
	<g class="st0">
		<g>
			<rect x="-313.4" y="449.8" class="st1" width="44" height="44"/>
			<path class="st2" d="M-269.9,450.3v43h-43v-43H-269.9 M-268.9,449.3h-45v45h45V449.3L-268.9,449.3z"/>
		</g>
	</g>
	<g class="st0">
		<g>
			<rect x="-268.4" y="449.8" class="st1" width="44" height="44"/>
			<path class="st2" d="M-224.9,450.3v43h-43v-43H-224.9 M-223.9,449.3h-45v45h45V449.3L-223.9,449.3z"/>
		</g>
	</g>
	<g class="st0">
		<g>
			<rect x="-223.4" y="449.8" class="st1" width="44" height="44"/>
			<path class="st2" d="M-179.9,450.3v43h-43v-43H-179.9 M-178.9,449.3h-45v45h45V449.3L-178.9,449.3z"/>
		</g>
	</g>
	<g class="st0">
		<g>
			<rect x="-178.4" y="449.8" class="st1" width="44" height="44"/>
			<path class="st2" d="M-134.9,450.3v43h-43v-43H-134.9 M-133.9,449.3h-45v45h45V449.3L-133.9,449.3z"/>
		</g>
	</g>
	<g class="st0">
		<g>
			<rect x="-673.4" y="494.8" class="st1" width="44" height="44"/>
			<path class="st2" d="M-629.9,495.3v43h-43v-43H-629.9 M-628.9,494.3h-45v45h45V494.3L-628.9,494.3z"/>
		</g>
	</g>
	<g class="st0">
		<g>
			<rect x="-628.4" y="494.8" class="st1" width="44" height="44"/>
			<path class="st2" d="M-584.9,495.3v43h-43v-43H-584.9 M-583.9,494.3h-45v45h45V494.3L-583.9,494.3z"/>
		</g>
	</g>
	<g class="st0">
		<g>
			<rect x="-583.4" y="494.8" class="st1" width="44" height="44"/>
			<path class="st2" d="M-539.9,495.3v43h-43v-43H-539.9 M-538.9,494.3h-45v45h45V494.3L-538.9,494.3z"/>
		</g>
	</g>
	<g class="st0">
		<g>
			<rect x="-538.4" y="494.8" class="st1" width="44" height="44"/>
			<path class="st2" d="M-494.9,495.3v43h-43v-43H-494.9 M-493.9,494.3h-45v45h45V494.3L-493.9,494.3z"/>
		</g>
	</g>
	<g class="st0">
		<g>
			<rect x="-493.4" y="494.8" class="st1" width="44" height="44"/>
			<path class="st2" d="M-449.9,495.3v43h-43v-43H-449.9 M-448.9,494.3h-45v45h45V494.3L-448.9,494.3z"/>
		</g>
	</g>
	<g class="st0">
		<g>
			<rect x="-448.4" y="494.8" class="st1" width="44" height="44"/>
			<path class="st2" d="M-404.9,495.3v43h-43v-43H-404.9 M-403.9,494.3h-45v45h45V494.3L-403.9,494.3z"/>
		</g>
	</g>
	<g class="st0">
		<g>
			<rect x="-403.4" y="494.8" class="st1" width="44" height="44"/>
			<path class="st2" d="M-359.9,495.3v43h-43v-43H-359.9 M-358.9,494.3h-45v45h45V494.3L-358.9,494.3z"/>
		</g>
	</g>
	<g class="st0">
		<g>
			<rect x="-358.4" y="494.8" class="st1" width="44" height="44"/>
			<path class="st2" d="M-314.9,495.3v43h-43v-43H-314.9 M-313.9,494.3h-45v45h45V494.3L-313.9,494.3z"/>
		</g>
	</g>
	<g class="st0">
		<g>
			<rect x="-313.4" y="494.8" class="st1" width="44" height="44"/>
			<path class="st2" d="M-269.9,495.3v43h-43v-43H-269.9 M-268.9,494.3h-45v45h45V494.3L-268.9,494.3z"/>
		</g>
	</g>
	<g class="st0">
		<g>
			<rect x="-268.4" y="494.8" class="st1" width="44" height="44"/>
			<path class="st2" d="M-224.9,495.3v43h-43v-43H-224.9 M-223.9,494.3h-45v45h45V494.3L-223.9,494.3z"/>
		</g>
	</g>
	<g class="st0">
		<g>
			<rect x="-223.4" y="494.8" class="st1" width="44" height="44"/>
			<path class="st2" d="M-179.9,495.3v43h-43v-43H-179.9 M-178.9,494.3h-45v45h45V494.3L-178.9,494.3z"/>
		</g>
	</g>
	<g class="st0">
		<g>
			<rect x="-178.4" y="494.8" class="st1" width="44" height="44"/>
			<path class="st2" d="M-134.9,495.3v43h-43v-43H-134.9 M-133.9,494.3h-45v45h45V494.3L-133.9,494.3z"/>
		</g>
	</g>
	<g class="st0">
		<g>
			<rect x="-673.4" y="539.8" class="st1" width="44" height="44"/>
			<path class="st2" d="M-629.9,540.3v43h-43v-43H-629.9 M-628.9,539.3h-45v45h45V539.3L-628.9,539.3z"/>
		</g>
	</g>
	<g class="st0">
		<g>
			<rect x="-628.4" y="539.8" class="st1" width="44" height="44"/>
			<path class="st2" d="M-584.9,540.3v43h-43v-43H-584.9 M-583.9,539.3h-45v45h45V539.3L-583.9,539.3z"/>
		</g>
	</g>
	<g class="st0">
		<g>
			<rect x="-583.4" y="539.8" class="st1" width="44" height="44"/>
			<path class="st2" d="M-539.9,540.3v43h-43v-43H-539.9 M-538.9,539.3h-45v45h45V539.3L-538.9,539.3z"/>
		</g>
	</g>
	<g class="st0">
		<g>
			<rect x="-538.4" y="539.8" class="st1" width="44" height="44"/>
			<path class="st2" d="M-494.9,540.3v43h-43v-43H-494.9 M-493.9,539.3h-45v45h45V539.3L-493.9,539.3z"/>
		</g>
	</g>
	<g class="st0">
		<g>
			<rect x="-493.4" y="539.8" class="st1" width="44" height="44"/>
			<path class="st2" d="M-449.9,540.3v43h-43v-43H-449.9 M-448.9,539.3h-45v45h45V539.3L-448.9,539.3z"/>
		</g>
	</g>
	<g class="st0">
		<g>
			<rect x="-448.4" y="539.8" class="st1" width="44" height="44"/>
			<path class="st2" d="M-404.9,540.3v43h-43v-43H-404.9 M-403.9,539.3h-45v45h45V539.3L-403.9,539.3z"/>
		</g>
	</g>
	<g class="st0">
		<g>
			<rect x="-403.4" y="539.8" class="st1" width="44" height="44"/>
			<path class="st2" d="M-359.9,540.3v43h-43v-43H-359.9 M-358.9,539.3h-45v45h45V539.3L-358.9,539.3z"/>
		</g>
	</g>
	<g class="st0">
		<g>
			<rect x="-358.4" y="539.8" class="st1" width="44" height="44"/>
			<path class="st2" d="M-314.9,540.3v43h-43v-43H-314.9 M-313.9,539.3h-45v45h45V539.3L-313.9,539.3z"/>
		</g>
	</g>
	<g class="st0">
		<g>
			<rect x="-313.4" y="539.8" class="st1" width="44" height="44"/>
			<path class="st2" d="M-269.9,540.3v43h-43v-43H-269.9 M-268.9,539.3h-45v45h45V539.3L-268.9,539.3z"/>
		</g>
	</g>
	<g class="st0">
		<g>
			<rect x="-268.4" y="539.8" class="st1" width="44" height="44"/>
			<path class="st2" d="M-224.9,540.3v43h-43v-43H-224.9 M-223.9,539.3h-45v45h45V539.3L-223.9,539.3z"/>
		</g>
	</g>
	<g class="st0">
		<g>
			<rect x="-223.4" y="539.8" class="st1" width="44" height="44"/>
			<path class="st2" d="M-179.9,540.3v43h-43v-43H-179.9 M-178.9,539.3h-45v45h45V539.3L-178.9,539.3z"/>
		</g>
	</g>
	<g class="st0">
		<g>
			<rect x="-178.4" y="539.8" class="st1" width="44" height="44"/>
			<path class="st2" d="M-134.9,540.3v43h-43v-43H-134.9 M-133.9,539.3h-45v45h45V539.3L-133.9,539.3z"/>
		</g>
	</g>
	<g class="st0">
		<g>
			<rect x="-673.4" y="584.8" class="st1" width="44" height="44"/>
			<path class="st2" d="M-629.9,585.3v43h-43v-43H-629.9 M-628.9,584.3h-45v45h45V584.3L-628.9,584.3z"/>
		</g>
	</g>
	<g class="st0">
		<g>
			<rect x="-628.4" y="584.8" class="st1" width="44" height="44"/>
			<path class="st2" d="M-584.9,585.3v43h-43v-43H-584.9 M-583.9,584.3h-45v45h45V584.3L-583.9,584.3z"/>
		</g>
	</g>
	<g class="st0">
		<g>
			<rect x="-583.4" y="584.8" class="st1" width="44" height="44"/>
			<path class="st2" d="M-539.9,585.3v43h-43v-43H-539.9 M-538.9,584.3h-45v45h45V584.3L-538.9,584.3z"/>
		</g>
	</g>
	<g class="st0">
		<g>
			<rect x="-538.4" y="584.8" class="st1" width="44" height="44"/>
			<path class="st2" d="M-494.9,585.3v43h-43v-43H-494.9 M-493.9,584.3h-45v45h45V584.3L-493.9,584.3z"/>
		</g>
	</g>
	<g class="st0">
		<g>
			<rect x="-493.4" y="584.8" class="st1" width="44" height="44"/>
			<path class="st2" d="M-449.9,585.3v43h-43v-43H-449.9 M-448.9,584.3h-45v45h45V584.3L-448.9,584.3z"/>
		</g>
	</g>
	<g class="st0">
		<g>
			<rect x="-448.4" y="584.8" class="st1" width="44" height="44"/>
			<path class="st2" d="M-404.9,585.3v43h-43v-43H-404.9 M-403.9,584.3h-45v45h45V584.3L-403.9,584.3z"/>
		</g>
	</g>
	<g class="st0">
		<g>
			<rect x="-403.4" y="584.8" class="st1" width="44" height="44"/>
			<path class="st2" d="M-359.9,585.3v43h-43v-43H-359.9 M-358.9,584.3h-45v45h45V584.3L-358.9,584.3z"/>
		</g>
	</g>
	<g class="st0">
		<g>
			<rect x="-358.4" y="584.8" class="st1" width="44" height="44"/>
			<path class="st2" d="M-314.9,585.3v43h-43v-43H-314.9 M-313.9,584.3h-45v45h45V584.3L-313.9,584.3z"/>
		</g>
	</g>
	<g class="st0">
		<g>
			<rect x="-313.4" y="584.8" class="st1" width="44" height="44"/>
			<path class="st2" d="M-269.9,585.3v43h-43v-43H-269.9 M-268.9,584.3h-45v45h45V584.3L-268.9,584.3z"/>
		</g>
	</g>
	<g class="st0">
		<g>
			<rect x="-268.4" y="584.8" class="st1" width="44" height="44"/>
			<path class="st2" d="M-224.9,585.3v43h-43v-43H-224.9 M-223.9,584.3h-45v45h45V584.3L-223.9,584.3z"/>
		</g>
	</g>
	<g class="st0">
		<g>
			<rect x="-223.4" y="584.8" class="st1" width="44" height="44"/>
			<path class="st2" d="M-179.9,585.3v43h-43v-43H-179.9 M-178.9,584.3h-45v45h45V584.3L-178.9,584.3z"/>
		</g>
	</g>
	<g class="st0">
		<g>
			<rect x="-178.4" y="584.8" class="st1" width="44" height="44"/>
			<path class="st2" d="M-134.9,585.3v43h-43v-43H-134.9 M-133.9,584.3h-45v45h45V584.3L-133.9,584.3z"/>
		</g>
	</g>
	<g class="st0">
		<g>
			<rect x="-673.4" y="629.8" class="st1" width="44" height="44"/>
			<path class="st2" d="M-629.9,630.3v43h-43v-43H-629.9 M-628.9,629.3h-45v45h45V629.3L-628.9,629.3z"/>
		</g>
	</g>
	<g class="st0">
		<g>
			<rect x="-628.4" y="629.8" class="st1" width="44" height="44"/>
			<path class="st2" d="M-584.9,630.3v43h-43v-43H-584.9 M-583.9,629.3h-45v45h45V629.3L-583.9,629.3z"/>
		</g>
	</g>
	<g class="st0">
		<g>
			<rect x="-583.4" y="629.8" class="st1" width="44" height="44"/>
			<path class="st2" d="M-539.9,630.3v43h-43v-43H-539.9 M-538.9,629.3h-45v45h45V629.3L-538.9,629.3z"/>
		</g>
	</g>
	<g class="st0">
		<g>
			<rect x="-538.4" y="629.8" class="st1" width="44" height="44"/>
			<path class="st2" d="M-494.9,630.3v43h-43v-43H-494.9 M-493.9,629.3h-45v45h45V629.3L-493.9,629.3z"/>
		</g>
	</g>
	<g class="st0">
		<g>
			<rect x="-493.4" y="629.8" class="st1" width="44" height="44"/>
			<path class="st2" d="M-449.9,630.3v43h-43v-43H-449.9 M-448.9,629.3h-45v45h45V629.3L-448.9,629.3z"/>
		</g>
	</g>
	<g class="st0">
		<g>
			<rect x="-448.4" y="629.8" class="st1" width="44" height="44"/>
			<path class="st2" d="M-404.9,630.3v43h-43v-43H-404.9 M-403.9,629.3h-45v45h45V629.3L-403.9,629.3z"/>
		</g>
	</g>
	<g class="st0">
		<g>
			<rect x="-403.4" y="629.8" class="st1" width="44" height="44"/>
			<path class="st2" d="M-359.9,630.3v43h-43v-43H-359.9 M-358.9,629.3h-45v45h45V629.3L-358.9,629.3z"/>
		</g>
	</g>
	<g class="st0">
		<g>
			<rect x="-358.4" y="629.8" class="st1" width="44" height="44"/>
			<path class="st2" d="M-314.9,630.3v43h-43v-43H-314.9 M-313.9,629.3h-45v45h45V629.3L-313.9,629.3z"/>
		</g>
	</g>
	<g class="st0">
		<g>
			<rect x="-313.4" y="629.8" class="st1" width="44" height="44"/>
			<path class="st2" d="M-269.9,630.3v43h-43v-43H-269.9 M-268.9,629.3h-45v45h45V629.3L-268.9,629.3z"/>
		</g>
	</g>
	<g class="st0">
		<g>
			<rect x="-268.4" y="629.8" class="st1" width="44" height="44"/>
			<path class="st2" d="M-224.9,630.3v43h-43v-43H-224.9 M-223.9,629.3h-45v45h45V629.3L-223.9,629.3z"/>
		</g>
	</g>
	<g class="st0">
		<g>
			<rect x="-223.4" y="629.8" class="st1" width="44" height="44"/>
			<path class="st2" d="M-179.9,630.3v43h-43v-43H-179.9 M-178.9,629.3h-45v45h45V629.3L-178.9,629.3z"/>
		</g>
	</g>
	<g class="st0">
		<g>
			<rect x="-178.4" y="629.8" class="st1" width="44" height="44"/>
			<path class="st2" d="M-134.9,630.3v43h-43v-43H-134.9 M-133.9,629.3h-45v45h45V629.3L-133.9,629.3z"/>
		</g>
	</g>
	<g class="st0">
		<g>
			<rect x="-673.4" y="674.8" class="st1" width="44" height="44"/>
			<path class="st2" d="M-629.9,675.3v43h-43v-43H-629.9 M-628.9,674.3h-45v45h45V674.3L-628.9,674.3z"/>
		</g>
	</g>
	<g class="st0">
		<g>
			<rect x="-628.4" y="674.8" class="st1" width="44" height="44"/>
			<path class="st2" d="M-584.9,675.3v43h-43v-43H-584.9 M-583.9,674.3h-45v45h45V674.3L-583.9,674.3z"/>
		</g>
	</g>
	<g class="st0">
		<g>
			<rect x="-583.4" y="674.8" class="st1" width="44" height="44"/>
			<path class="st2" d="M-539.9,675.3v43h-43v-43H-539.9 M-538.9,674.3h-45v45h45V674.3L-538.9,674.3z"/>
		</g>
	</g>
	<g class="st0">
		<g>
			<rect x="-538.4" y="674.8" class="st1" width="44" height="44"/>
			<path class="st2" d="M-494.9,675.3v43h-43v-43H-494.9 M-493.9,674.3h-45v45h45V674.3L-493.9,674.3z"/>
		</g>
	</g>
	<g class="st0">
		<g>
			<rect x="-493.4" y="674.8" class="st1" width="44" height="44"/>
			<path class="st2" d="M-449.9,675.3v43h-43v-43H-449.9 M-448.9,674.3h-45v45h45V674.3L-448.9,674.3z"/>
		</g>
	</g>
	<g class="st0">
		<g>
			<rect x="-448.4" y="674.8" class="st1" width="44" height="44"/>
			<path class="st2" d="M-404.9,675.3v43h-43v-43H-404.9 M-403.9,674.3h-45v45h45V674.3L-403.9,674.3z"/>
		</g>
	</g>
	<g class="st0">
		<g>
			<rect x="-403.4" y="674.8" class="st1" width="44" height="44"/>
			<path class="st2" d="M-359.9,675.3v43h-43v-43H-359.9 M-358.9,674.3h-45v45h45V674.3L-358.9,674.3z"/>
		</g>
	</g>
	<g class="st0">
		<g>
			<rect x="-358.4" y="674.8" class="st1" width="44" height="44"/>
			<path class="st2" d="M-314.9,675.3v43h-43v-43H-314.9 M-313.9,674.3h-45v45h45V674.3L-313.9,674.3z"/>
		</g>
	</g>
	<g class="st0">
		<g>
			<rect x="-313.4" y="674.8" class="st1" width="44" height="44"/>
			<path class="st2" d="M-269.9,675.3v43h-43v-43H-269.9 M-268.9,674.3h-45v45h45V674.3L-268.9,674.3z"/>
		</g>
	</g>
	<g class="st0">
		<g>
			<rect x="-268.4" y="674.8" class="st1" width="44" height="44"/>
			<path class="st2" d="M-224.9,675.3v43h-43v-43H-224.9 M-223.9,674.3h-45v45h45V674.3L-223.9,674.3z"/>
		</g>
	</g>
	<g class="st0">
		<g>
			<rect x="-223.4" y="674.8" class="st1" width="44" height="44"/>
			<path class="st2" d="M-179.9,675.3v43h-43v-43H-179.9 M-178.9,674.3h-45v45h45V674.3L-178.9,674.3z"/>
		</g>
	</g>
	<g class="st0">
		<g>
			<rect x="-178.4" y="674.8" class="st1" width="44" height="44"/>
			<path class="st2" d="M-134.9,675.3v43h-43v-43H-134.9 M-133.9,674.3h-45v45h45V674.3L-133.9,674.3z"/>
		</g>
	</g>
	<g class="st0">
		<g>
			<rect x="766.6" y="134.8" class="st1" width="44" height="44"/>
			<path class="st2" d="M810.1,135.3v43h-43v-43H810.1 M811.1,134.3h-45v45h45V134.3L811.1,134.3z"/>
		</g>
	</g>
	<g class="st0">
		<g>
			<rect x="811.6" y="134.8" class="st1" width="44" height="44"/>
			<path class="st2" d="M855.1,135.3v43h-43v-43H855.1 M856.1,134.3h-45v45h45V134.3L856.1,134.3z"/>
		</g>
	</g>
	<g class="st0">
		<g>
			<rect x="856.6" y="134.8" class="st1" width="44" height="44"/>
			<path class="st2" d="M900.1,135.3v43h-43v-43H900.1 M901.1,134.3h-45v45h45V134.3L901.1,134.3z"/>
		</g>
	</g>
	<g class="st0">
		<g>
			<rect x="901.6" y="134.8" class="st1" width="44" height="44"/>
			<path class="st2" d="M945.1,135.3v43h-43v-43H945.1 M946.1,134.3h-45v45h45V134.3L946.1,134.3z"/>
		</g>
	</g>
	<g class="st0">
		<g>
			<rect x="946.6" y="134.8" class="st1" width="44" height="44"/>
			<path class="st2" d="M990.1,135.3v43h-43v-43H990.1 M991.1,134.3h-45v45h45V134.3L991.1,134.3z"/>
		</g>
	</g>
	<g class="st0">
		<g>
			<rect x="991.6" y="134.8" class="st1" width="44" height="44"/>
			<path class="st2" d="M1035.1,135.3v43h-43v-43H1035.1 M1036.1,134.3h-45v45h45V134.3L1036.1,134.3z"/>
		</g>
	</g>
	<g class="st0">
		<g>
			<rect x="1036.6" y="134.8" class="st1" width="44" height="44"/>
			<path class="st2" d="M1080.1,135.3v43h-43v-43H1080.1 M1081.1,134.3h-45v45h45V134.3L1081.1,134.3z"/>
		</g>
	</g>
	<g class="st0">
		<g>
			<rect x="1081.6" y="134.8" class="st1" width="44" height="44"/>
			<path class="st2" d="M1125.1,135.3v43h-43v-43H1125.1 M1126.1,134.3h-45v45h45V134.3L1126.1,134.3z"/>
		</g>
	</g>
	<g class="st0">
		<g>
			<rect x="1126.6" y="134.8" class="st1" width="44" height="44"/>
			<path class="st2" d="M1170.1,135.3v43h-43v-43H1170.1 M1171.1,134.3h-45v45h45V134.3L1171.1,134.3z"/>
		</g>
	</g>
	<g class="st0">
		<g>
			<rect x="1171.6" y="134.8" class="st1" width="44" height="44"/>
			<path class="st2" d="M1215.1,135.3v43h-43v-43H1215.1 M1216.1,134.3h-45v45h45V134.3L1216.1,134.3z"/>
		</g>
	</g>
	<g class="st0">
		<g>
			<rect x="1216.6" y="134.8" class="st1" width="44" height="44"/>
			<path class="st2" d="M1260.1,135.3v43h-43v-43H1260.1 M1261.1,134.3h-45v45h45V134.3L1261.1,134.3z"/>
		</g>
	</g>
	<g class="st0">
		<g>
			<rect x="1261.6" y="134.8" class="st1" width="44" height="44"/>
			<path class="st2" d="M1305.1,135.3v43h-43v-43H1305.1 M1306.1,134.3h-45v45h45V134.3L1306.1,134.3z"/>
		</g>
	</g>
	<g class="st0">
		<g>
			<rect x="766.6" y="179.8" class="st1" width="44" height="44"/>
			<path class="st2" d="M810.1,180.3v43h-43v-43H810.1 M811.1,179.3h-45v45h45V179.3L811.1,179.3z"/>
		</g>
	</g>
	<g class="st0">
		<g>
			<rect x="811.6" y="179.8" class="st1" width="44" height="44"/>
			<path class="st2" d="M855.1,180.3v43h-43v-43H855.1 M856.1,179.3h-45v45h45V179.3L856.1,179.3z"/>
		</g>
	</g>
	<g class="st0">
		<g>
			<rect x="856.6" y="179.8" class="st1" width="44" height="44"/>
			<path class="st2" d="M900.1,180.3v43h-43v-43H900.1 M901.1,179.3h-45v45h45V179.3L901.1,179.3z"/>
		</g>
	</g>
	<g class="st0">
		<g>
			<rect x="901.6" y="179.8" class="st1" width="44" height="44"/>
			<path class="st2" d="M945.1,180.3v43h-43v-43H945.1 M946.1,179.3h-45v45h45V179.3L946.1,179.3z"/>
		</g>
	</g>
	<g class="st0">
		<g>
			<rect x="946.6" y="179.8" class="st1" width="44" height="44"/>
			<path class="st2" d="M990.1,180.3v43h-43v-43H990.1 M991.1,179.3h-45v45h45V179.3L991.1,179.3z"/>
		</g>
	</g>
	<g class="st0">
		<g>
			<rect x="991.6" y="179.8" class="st1" width="44" height="44"/>
			<path class="st2" d="M1035.1,180.3v43h-43v-43H1035.1 M1036.1,179.3h-45v45h45V179.3L1036.1,179.3z"/>
		</g>
	</g>
	<g class="st0">
		<g>
			<rect x="1036.6" y="179.8" class="st1" width="44" height="44"/>
			<path class="st2" d="M1080.1,180.3v43h-43v-43H1080.1 M1081.1,179.3h-45v45h45V179.3L1081.1,179.3z"/>
		</g>
	</g>
	<g class="st0">
		<g>
			<rect x="1081.6" y="179.8" class="st1" width="44" height="44"/>
			<path class="st2" d="M1125.1,180.3v43h-43v-43H1125.1 M1126.1,179.3h-45v45h45V179.3L1126.1,179.3z"/>
		</g>
	</g>
	<g class="st0">
		<g>
			<rect x="1126.6" y="179.8" class="st1" width="44" height="44"/>
			<path class="st2" d="M1170.1,180.3v43h-43v-43H1170.1 M1171.1,179.3h-45v45h45V179.3L1171.1,179.3z"/>
		</g>
	</g>
	<g class="st0">
		<g>
			<rect x="1171.6" y="179.8" class="st1" width="44" height="44"/>
			<path class="st2" d="M1215.1,180.3v43h-43v-43H1215.1 M1216.1,179.3h-45v45h45V179.3L1216.1,179.3z"/>
		</g>
	</g>
	<g class="st0">
		<g>
			<rect x="1216.6" y="179.8" class="st1" width="44" height="44"/>
			<path class="st2" d="M1260.1,180.3v43h-43v-43H1260.1 M1261.1,179.3h-45v45h45V179.3L1261.1,179.3z"/>
		</g>
	</g>
	<g class="st0">
		<g>
			<rect x="1261.6" y="179.8" class="st1" width="44" height="44"/>
			<path class="st2" d="M1305.1,180.3v43h-43v-43H1305.1 M1306.1,179.3h-45v45h45V179.3L1306.1,179.3z"/>
		</g>
	</g>
	<g class="st0">
		<g>
			<rect x="766.6" y="224.8" class="st1" width="44" height="44"/>
			<path class="st2" d="M810.1,225.3v43h-43v-43H810.1 M811.1,224.3h-45v45h45V224.3L811.1,224.3z"/>
		</g>
	</g>
	<g class="st0">
		<g>
			<rect x="811.6" y="224.8" class="st1" width="44" height="44"/>
			<path class="st2" d="M855.1,225.3v43h-43v-43H855.1 M856.1,224.3h-45v45h45V224.3L856.1,224.3z"/>
		</g>
	</g>
	<g class="st0">
		<g>
			<rect x="856.6" y="224.8" class="st1" width="44" height="44"/>
			<path class="st2" d="M900.1,225.3v43h-43v-43H900.1 M901.1,224.3h-45v45h45V224.3L901.1,224.3z"/>
		</g>
	</g>
	<g class="st0">
		<g>
			<rect x="901.6" y="224.8" class="st1" width="44" height="44"/>
			<path class="st2" d="M945.1,225.3v43h-43v-43H945.1 M946.1,224.3h-45v45h45V224.3L946.1,224.3z"/>
		</g>
	</g>
	<g class="st0">
		<g>
			<rect x="946.6" y="224.8" class="st1" width="44" height="44"/>
			<path class="st2" d="M990.1,225.3v43h-43v-43H990.1 M991.1,224.3h-45v45h45V224.3L991.1,224.3z"/>
		</g>
	</g>
	<g class="st0">
		<g>
			<rect x="991.6" y="224.8" class="st1" width="44" height="44"/>
			<path class="st2" d="M1035.1,225.3v43h-43v-43H1035.1 M1036.1,224.3h-45v45h45V224.3L1036.1,224.3z"/>
		</g>
	</g>
	<g class="st0">
		<g>
			<rect x="1036.6" y="224.8" class="st1" width="44" height="44"/>
			<path class="st2" d="M1080.1,225.3v43h-43v-43H1080.1 M1081.1,224.3h-45v45h45V224.3L1081.1,224.3z"/>
		</g>
	</g>
	<g class="st0">
		<g>
			<rect x="1081.6" y="224.8" class="st1" width="44" height="44"/>
			<path class="st2" d="M1125.1,225.3v43h-43v-43H1125.1 M1126.1,224.3h-45v45h45V224.3L1126.1,224.3z"/>
		</g>
	</g>
	<g class="st0">
		<g>
			<rect x="1126.6" y="224.8" class="st1" width="44" height="44"/>
			<path class="st2" d="M1170.1,225.3v43h-43v-43H1170.1 M1171.1,224.3h-45v45h45V224.3L1171.1,224.3z"/>
		</g>
	</g>
	<g class="st0">
		<g>
			<rect x="1171.6" y="224.8" class="st1" width="44" height="44"/>
			<path class="st2" d="M1215.1,225.3v43h-43v-43H1215.1 M1216.1,224.3h-45v45h45V224.3L1216.1,224.3z"/>
		</g>
	</g>
	<g class="st0">
		<g>
			<rect x="1216.6" y="224.8" class="st1" width="44" height="44"/>
			<path class="st2" d="M1260.1,225.3v43h-43v-43H1260.1 M1261.1,224.3h-45v45h45V224.3L1261.1,224.3z"/>
		</g>
	</g>
	<g class="st0">
		<g>
			<rect x="1261.6" y="224.8" class="st1" width="44" height="44"/>
			<path class="st2" d="M1305.1,225.3v43h-43v-43H1305.1 M1306.1,224.3h-45v45h45V224.3L1306.1,224.3z"/>
		</g>
	</g>
	<g class="st0">
		<g>
			<rect x="766.6" y="269.8" class="st1" width="44" height="44"/>
			<path class="st2" d="M810.1,270.3v43h-43v-43H810.1 M811.1,269.3h-45v45h45V269.3L811.1,269.3z"/>
		</g>
	</g>
	<g class="st0">
		<g>
			<rect x="811.6" y="269.8" class="st1" width="44" height="44"/>
			<path class="st2" d="M855.1,270.3v43h-43v-43H855.1 M856.1,269.3h-45v45h45V269.3L856.1,269.3z"/>
		</g>
	</g>
	<g class="st0">
		<g>
			<rect x="856.6" y="269.8" class="st1" width="44" height="44"/>
			<path class="st2" d="M900.1,270.3v43h-43v-43H900.1 M901.1,269.3h-45v45h45V269.3L901.1,269.3z"/>
		</g>
	</g>
	<g class="st0">
		<g>
			<rect x="901.6" y="269.8" class="st1" width="44" height="44"/>
			<path class="st2" d="M945.1,270.3v43h-43v-43H945.1 M946.1,269.3h-45v45h45V269.3L946.1,269.3z"/>
		</g>
	</g>
	<g class="st0">
		<g>
			<rect x="946.6" y="269.8" class="st1" width="44" height="44"/>
			<path class="st2" d="M990.1,270.3v43h-43v-43H990.1 M991.1,269.3h-45v45h45V269.3L991.1,269.3z"/>
		</g>
	</g>
	<g class="st0">
		<g>
			<rect x="991.6" y="269.8" class="st1" width="44" height="44"/>
			<path class="st2" d="M1035.1,270.3v43h-43v-43H1035.1 M1036.1,269.3h-45v45h45V269.3L1036.1,269.3z"/>
		</g>
	</g>
	<g class="st0">
		<g>
			<rect x="1036.6" y="269.8" class="st1" width="44" height="44"/>
			<path class="st2" d="M1080.1,270.3v43h-43v-43H1080.1 M1081.1,269.3h-45v45h45V269.3L1081.1,269.3z"/>
		</g>
	</g>
	<g class="st0">
		<g>
			<rect x="1081.6" y="269.8" class="st1" width="44" height="44"/>
			<path class="st2" d="M1125.1,270.3v43h-43v-43H1125.1 M1126.1,269.3h-45v45h45V269.3L1126.1,269.3z"/>
		</g>
	</g>
	<g class="st0">
		<g>
			<rect x="1126.6" y="269.8" class="st1" width="44" height="44"/>
			<path class="st2" d="M1170.1,270.3v43h-43v-43H1170.1 M1171.1,269.3h-45v45h45V269.3L1171.1,269.3z"/>
		</g>
	</g>
	<g class="st0">
		<g>
			<rect x="1171.6" y="269.8" class="st1" width="44" height="44"/>
			<path class="st2" d="M1215.1,270.3v43h-43v-43H1215.1 M1216.1,269.3h-45v45h45V269.3L1216.1,269.3z"/>
		</g>
	</g>
	<g class="st0">
		<g>
			<rect x="1216.6" y="269.8" class="st1" width="44" height="44"/>
			<path class="st2" d="M1260.1,270.3v43h-43v-43H1260.1 M1261.1,269.3h-45v45h45V269.3L1261.1,269.3z"/>
		</g>
	</g>
	<g class="st0">
		<g>
			<rect x="1261.6" y="269.8" class="st1" width="44" height="44"/>
			<path class="st2" d="M1305.1,270.3v43h-43v-43H1305.1 M1306.1,269.3h-45v45h45V269.3L1306.1,269.3z"/>
		</g>
	</g>
	<g class="st0">
		<g>
			<rect x="766.6" y="314.8" class="st1" width="44" height="44"/>
			<path class="st2" d="M810.1,315.3v43h-43v-43H810.1 M811.1,314.3h-45v45h45V314.3L811.1,314.3z"/>
		</g>
	</g>
	<g class="st0">
		<g>
			<rect x="811.6" y="314.8" class="st1" width="44" height="44"/>
			<path class="st2" d="M855.1,315.3v43h-43v-43H855.1 M856.1,314.3h-45v45h45V314.3L856.1,314.3z"/>
		</g>
	</g>
	<g class="st0">
		<g>
			<rect x="856.6" y="314.8" class="st1" width="44" height="44"/>
			<path class="st2" d="M900.1,315.3v43h-43v-43H900.1 M901.1,314.3h-45v45h45V314.3L901.1,314.3z"/>
		</g>
	</g>
	<g class="st0">
		<g>
			<rect x="901.6" y="314.8" class="st1" width="44" height="44"/>
			<path class="st2" d="M945.1,315.3v43h-43v-43H945.1 M946.1,314.3h-45v45h45V314.3L946.1,314.3z"/>
		</g>
	</g>
	<g class="st0">
		<g>
			<rect x="946.6" y="314.8" class="st1" width="44" height="44"/>
			<path class="st2" d="M990.1,315.3v43h-43v-43H990.1 M991.1,314.3h-45v45h45V314.3L991.1,314.3z"/>
		</g>
	</g>
	<g class="st0">
		<g>
			<rect x="991.6" y="314.8" class="st1" width="44" height="44"/>
			<path class="st2" d="M1035.1,315.3v43h-43v-43H1035.1 M1036.1,314.3h-45v45h45V314.3L1036.1,314.3z"/>
		</g>
	</g>
	<g class="st0">
		<g>
			<rect x="1036.6" y="314.8" class="st1" width="44" height="44"/>
			<path class="st2" d="M1080.1,315.3v43h-43v-43H1080.1 M1081.1,314.3h-45v45h45V314.3L1081.1,314.3z"/>
		</g>
	</g>
	<g class="st0">
		<g>
			<rect x="1081.6" y="314.8" class="st1" width="44" height="44"/>
			<path class="st2" d="M1125.1,315.3v43h-43v-43H1125.1 M1126.1,314.3h-45v45h45V314.3L1126.1,314.3z"/>
		</g>
	</g>
	<g class="st0">
		<g>
			<rect x="1126.6" y="314.8" class="st1" width="44" height="44"/>
			<path class="st2" d="M1170.1,315.3v43h-43v-43H1170.1 M1171.1,314.3h-45v45h45V314.3L1171.1,314.3z"/>
		</g>
	</g>
	<g class="st0">
		<g>
			<rect x="1171.6" y="314.8" class="st1" width="44" height="44"/>
			<path class="st2" d="M1215.1,315.3v43h-43v-43H1215.1 M1216.1,314.3h-45v45h45V314.3L1216.1,314.3z"/>
		</g>
	</g>
	<g class="st0">
		<g>
			<rect x="1216.6" y="314.8" class="st1" width="44" height="44"/>
			<path class="st2" d="M1260.1,315.3v43h-43v-43H1260.1 M1261.1,314.3h-45v45h45V314.3L1261.1,314.3z"/>
		</g>
	</g>
	<g class="st0">
		<g>
			<rect x="1261.6" y="314.8" class="st1" width="44" height="44"/>
			<path class="st2" d="M1305.1,315.3v43h-43v-43H1305.1 M1306.1,314.3h-45v45h45V314.3L1306.1,314.3z"/>
		</g>
	</g>
	<g class="st0">
		<g>
			<rect x="766.6" y="359.8" class="st1" width="44" height="44"/>
			<path class="st2" d="M810.1,360.3v43h-43v-43H810.1 M811.1,359.3h-45v45h45V359.3L811.1,359.3z"/>
		</g>
	</g>
	<g class="st0">
		<g>
			<rect x="811.6" y="359.8" class="st1" width="44" height="44"/>
			<path class="st2" d="M855.1,360.3v43h-43v-43H855.1 M856.1,359.3h-45v45h45V359.3L856.1,359.3z"/>
		</g>
	</g>
	<g class="st0">
		<g>
			<rect x="856.6" y="359.8" class="st1" width="44" height="44"/>
			<path class="st2" d="M900.1,360.3v43h-43v-43H900.1 M901.1,359.3h-45v45h45V359.3L901.1,359.3z"/>
		</g>
	</g>
	<g class="st0">
		<g>
			<rect x="901.6" y="359.8" class="st1" width="44" height="44"/>
			<path class="st2" d="M945.1,360.3v43h-43v-43H945.1 M946.1,359.3h-45v45h45V359.3L946.1,359.3z"/>
		</g>
	</g>
	<g class="st0">
		<g>
			<rect x="946.6" y="359.8" class="st1" width="44" height="44"/>
			<path class="st2" d="M990.1,360.3v43h-43v-43H990.1 M991.1,359.3h-45v45h45V359.3L991.1,359.3z"/>
		</g>
	</g>
	<g class="st0">
		<g>
			<rect x="991.6" y="359.8" class="st1" width="44" height="44"/>
			<path class="st2" d="M1035.1,360.3v43h-43v-43H1035.1 M1036.1,359.3h-45v45h45V359.3L1036.1,359.3z"/>
		</g>
	</g>
	<g class="st0">
		<g>
			<rect x="1036.6" y="359.8" class="st1" width="44" height="44"/>
			<path class="st2" d="M1080.1,360.3v43h-43v-43H1080.1 M1081.1,359.3h-45v45h45V359.3L1081.1,359.3z"/>
		</g>
	</g>
	<g class="st0">
		<g>
			<rect x="1081.6" y="359.8" class="st1" width="44" height="44"/>
			<path class="st2" d="M1125.1,360.3v43h-43v-43H1125.1 M1126.1,359.3h-45v45h45V359.3L1126.1,359.3z"/>
		</g>
	</g>
	<g class="st0">
		<g>
			<rect x="1126.6" y="359.8" class="st1" width="44" height="44"/>
			<path class="st2" d="M1170.1,360.3v43h-43v-43H1170.1 M1171.1,359.3h-45v45h45V359.3L1171.1,359.3z"/>
		</g>
	</g>
	<g class="st0">
		<g>
			<rect x="1171.6" y="359.8" class="st1" width="44" height="44"/>
			<path class="st2" d="M1215.1,360.3v43h-43v-43H1215.1 M1216.1,359.3h-45v45h45V359.3L1216.1,359.3z"/>
		</g>
	</g>
	<g class="st0">
		<g>
			<rect x="1216.6" y="359.8" class="st1" width="44" height="44"/>
			<path class="st2" d="M1260.1,360.3v43h-43v-43H1260.1 M1261.1,359.3h-45v45h45V359.3L1261.1,359.3z"/>
		</g>
	</g>
	<g class="st0">
		<g>
			<rect x="1261.6" y="359.8" class="st1" width="44" height="44"/>
			<path class="st2" d="M1305.1,360.3v43h-43v-43H1305.1 M1306.1,359.3h-45v45h45V359.3L1306.1,359.3z"/>
		</g>
	</g>
	<g class="st0">
		<g>
			<rect x="766.6" y="404.8" class="st1" width="44" height="44"/>
			<path class="st2" d="M810.1,405.3v43h-43v-43H810.1 M811.1,404.3h-45v45h45V404.3L811.1,404.3z"/>
		</g>
	</g>
	<g class="st0">
		<g>
			<rect x="811.6" y="404.8" class="st1" width="44" height="44"/>
			<path class="st2" d="M855.1,405.3v43h-43v-43H855.1 M856.1,404.3h-45v45h45V404.3L856.1,404.3z"/>
		</g>
	</g>
	<g class="st0">
		<g>
			<rect x="856.6" y="404.8" class="st1" width="44" height="44"/>
			<path class="st2" d="M900.1,405.3v43h-43v-43H900.1 M901.1,404.3h-45v45h45V404.3L901.1,404.3z"/>
		</g>
	</g>
	<g class="st0">
		<g>
			<rect x="901.6" y="404.8" class="st1" width="44" height="44"/>
			<path class="st2" d="M945.1,405.3v43h-43v-43H945.1 M946.1,404.3h-45v45h45V404.3L946.1,404.3z"/>
		</g>
	</g>
	<g class="st0">
		<g>
			<rect x="946.6" y="404.8" class="st1" width="44" height="44"/>
			<path class="st2" d="M990.1,405.3v43h-43v-43H990.1 M991.1,404.3h-45v45h45V404.3L991.1,404.3z"/>
		</g>
	</g>
	<g class="st0">
		<g>
			<rect x="991.6" y="404.8" class="st1" width="44" height="44"/>
			<path class="st2" d="M1035.1,405.3v43h-43v-43H1035.1 M1036.1,404.3h-45v45h45V404.3L1036.1,404.3z"/>
		</g>
	</g>
	<g class="st0">
		<g>
			<rect x="1036.6" y="404.8" class="st1" width="44" height="44"/>
			<path class="st2" d="M1080.1,405.3v43h-43v-43H1080.1 M1081.1,404.3h-45v45h45V404.3L1081.1,404.3z"/>
		</g>
	</g>
	<g class="st0">
		<g>
			<rect x="1081.6" y="404.8" class="st1" width="44" height="44"/>
			<path class="st2" d="M1125.1,405.3v43h-43v-43H1125.1 M1126.1,404.3h-45v45h45V404.3L1126.1,404.3z"/>
		</g>
	</g>
	<g class="st0">
		<g>
			<rect x="1126.6" y="404.8" class="st1" width="44" height="44"/>
			<path class="st2" d="M1170.1,405.3v43h-43v-43H1170.1 M1171.1,404.3h-45v45h45V404.3L1171.1,404.3z"/>
		</g>
	</g>
	<g class="st0">
		<g>
			<rect x="1171.6" y="404.8" class="st1" width="44" height="44"/>
			<path class="st2" d="M1215.1,405.3v43h-43v-43H1215.1 M1216.1,404.3h-45v45h45V404.3L1216.1,404.3z"/>
		</g>
	</g>
	<g class="st0">
		<g>
			<rect x="1216.6" y="404.8" class="st1" width="44" height="44"/>
			<path class="st2" d="M1260.1,405.3v43h-43v-43H1260.1 M1261.1,404.3h-45v45h45V404.3L1261.1,404.3z"/>
		</g>
	</g>
	<g class="st0">
		<g>
			<rect x="1261.6" y="404.8" class="st1" width="44" height="44"/>
			<path class="st2" d="M1305.1,405.3v43h-43v-43H1305.1 M1306.1,404.3h-45v45h45V404.3L1306.1,404.3z"/>
		</g>
	</g>
	<g class="st0">
		<g>
			<rect x="766.6" y="449.8" class="st1" width="44" height="44"/>
			<path class="st2" d="M810.1,450.3v43h-43v-43H810.1 M811.1,449.3h-45v45h45V449.3L811.1,449.3z"/>
		</g>
	</g>
	<g class="st0">
		<g>
			<rect x="811.6" y="449.8" class="st1" width="44" height="44"/>
			<path class="st2" d="M855.1,450.3v43h-43v-43H855.1 M856.1,449.3h-45v45h45V449.3L856.1,449.3z"/>
		</g>
	</g>
	<g class="st0">
		<g>
			<rect x="856.6" y="449.8" class="st1" width="44" height="44"/>
			<path class="st2" d="M900.1,450.3v43h-43v-43H900.1 M901.1,449.3h-45v45h45V449.3L901.1,449.3z"/>
		</g>
	</g>
	<g class="st0">
		<g>
			<rect x="901.6" y="449.8" class="st1" width="44" height="44"/>
			<path class="st2" d="M945.1,450.3v43h-43v-43H945.1 M946.1,449.3h-45v45h45V449.3L946.1,449.3z"/>
		</g>
	</g>
	<g class="st0">
		<g>
			<rect x="946.6" y="449.8" class="st1" width="44" height="44"/>
			<path class="st2" d="M990.1,450.3v43h-43v-43H990.1 M991.1,449.3h-45v45h45V449.3L991.1,449.3z"/>
		</g>
	</g>
	<g class="st0">
		<g>
			<rect x="991.6" y="449.8" class="st1" width="44" height="44"/>
			<path class="st2" d="M1035.1,450.3v43h-43v-43H1035.1 M1036.1,449.3h-45v45h45V449.3L1036.1,449.3z"/>
		</g>
	</g>
	<g class="st0">
		<g>
			<rect x="1036.6" y="449.8" class="st1" width="44" height="44"/>
			<path class="st2" d="M1080.1,450.3v43h-43v-43H1080.1 M1081.1,449.3h-45v45h45V449.3L1081.1,449.3z"/>
		</g>
	</g>
	<g class="st0">
		<g>
			<rect x="1081.6" y="449.8" class="st1" width="44" height="44"/>
			<path class="st2" d="M1125.1,450.3v43h-43v-43H1125.1 M1126.1,449.3h-45v45h45V449.3L1126.1,449.3z"/>
		</g>
	</g>
	<g class="st0">
		<g>
			<rect x="1126.6" y="449.8" class="st1" width="44" height="44"/>
			<path class="st2" d="M1170.1,450.3v43h-43v-43H1170.1 M1171.1,449.3h-45v45h45V449.3L1171.1,449.3z"/>
		</g>
	</g>
	<g class="st0">
		<g>
			<rect x="1171.6" y="449.8" class="st1" width="44" height="44"/>
			<path class="st2" d="M1215.1,450.3v43h-43v-43H1215.1 M1216.1,449.3h-45v45h45V449.3L1216.1,449.3z"/>
		</g>
	</g>
	<g class="st0">
		<g>
			<rect x="1216.6" y="449.8" class="st1" width="44" height="44"/>
			<path class="st2" d="M1260.1,450.3v43h-43v-43H1260.1 M1261.1,449.3h-45v45h45V449.3L1261.1,449.3z"/>
		</g>
	</g>
	<g class="st0">
		<g>
			<rect x="1261.6" y="449.8" class="st1" width="44" height="44"/>
			<path class="st2" d="M1305.1,450.3v43h-43v-43H1305.1 M1306.1,449.3h-45v45h45V449.3L1306.1,449.3z"/>
		</g>
	</g>
	<g class="st0">
		<g>
			<rect x="766.6" y="494.8" class="st1" width="44" height="44"/>
			<path class="st2" d="M810.1,495.3v43h-43v-43H810.1 M811.1,494.3h-45v45h45V494.3L811.1,494.3z"/>
		</g>
	</g>
	<g class="st0">
		<g>
			<rect x="811.6" y="494.8" class="st1" width="44" height="44"/>
			<path class="st2" d="M855.1,495.3v43h-43v-43H855.1 M856.1,494.3h-45v45h45V494.3L856.1,494.3z"/>
		</g>
	</g>
	<g class="st0">
		<g>
			<rect x="856.6" y="494.8" class="st1" width="44" height="44"/>
			<path class="st2" d="M900.1,495.3v43h-43v-43H900.1 M901.1,494.3h-45v45h45V494.3L901.1,494.3z"/>
		</g>
	</g>
	<g class="st0">
		<g>
			<rect x="901.6" y="494.8" class="st1" width="44" height="44"/>
			<path class="st2" d="M945.1,495.3v43h-43v-43H945.1 M946.1,494.3h-45v45h45V494.3L946.1,494.3z"/>
		</g>
	</g>
	<g class="st0">
		<g>
			<rect x="946.6" y="494.8" class="st1" width="44" height="44"/>
			<path class="st2" d="M990.1,495.3v43h-43v-43H990.1 M991.1,494.3h-45v45h45V494.3L991.1,494.3z"/>
		</g>
	</g>
	<g class="st0">
		<g>
			<rect x="991.6" y="494.8" class="st1" width="44" height="44"/>
			<path class="st2" d="M1035.1,495.3v43h-43v-43H1035.1 M1036.1,494.3h-45v45h45V494.3L1036.1,494.3z"/>
		</g>
	</g>
	<g class="st0">
		<g>
			<rect x="1036.6" y="494.8" class="st1" width="44" height="44"/>
			<path class="st2" d="M1080.1,495.3v43h-43v-43H1080.1 M1081.1,494.3h-45v45h45V494.3L1081.1,494.3z"/>
		</g>
	</g>
	<g class="st0">
		<g>
			<rect x="1081.6" y="494.8" class="st1" width="44" height="44"/>
			<path class="st2" d="M1125.1,495.3v43h-43v-43H1125.1 M1126.1,494.3h-45v45h45V494.3L1126.1,494.3z"/>
		</g>
	</g>
	<g class="st0">
		<g>
			<rect x="1126.6" y="494.8" class="st1" width="44" height="44"/>
			<path class="st2" d="M1170.1,495.3v43h-43v-43H1170.1 M1171.1,494.3h-45v45h45V494.3L1171.1,494.3z"/>
		</g>
	</g>
	<g class="st0">
		<g>
			<rect x="1171.6" y="494.8" class="st1" width="44" height="44"/>
			<path class="st2" d="M1215.1,495.3v43h-43v-43H1215.1 M1216.1,494.3h-45v45h45V494.3L1216.1,494.3z"/>
		</g>
	</g>
	<g class="st0">
		<g>
			<rect x="1216.6" y="494.8" class="st1" width="44" height="44"/>
			<path class="st2" d="M1260.1,495.3v43h-43v-43H1260.1 M1261.1,494.3h-45v45h45V494.3L1261.1,494.3z"/>
		</g>
	</g>
	<g class="st0">
		<g>
			<rect x="1261.6" y="494.8" class="st1" width="44" height="44"/>
			<path class="st2" d="M1305.1,495.3v43h-43v-43H1305.1 M1306.1,494.3h-45v45h45V494.3L1306.1,494.3z"/>
		</g>
	</g>
	<g class="st0">
		<g>
			<rect x="766.6" y="539.8" class="st1" width="44" height="44"/>
			<path class="st2" d="M810.1,540.3v43h-43v-43H810.1 M811.1,539.3h-45v45h45V539.3L811.1,539.3z"/>
		</g>
	</g>
	<g class="st0">
		<g>
			<rect x="811.6" y="539.8" class="st1" width="44" height="44"/>
			<path class="st2" d="M855.1,540.3v43h-43v-43H855.1 M856.1,539.3h-45v45h45V539.3L856.1,539.3z"/>
		</g>
	</g>
	<g class="st0">
		<g>
			<rect x="856.6" y="539.8" class="st1" width="44" height="44"/>
			<path class="st2" d="M900.1,540.3v43h-43v-43H900.1 M901.1,539.3h-45v45h45V539.3L901.1,539.3z"/>
		</g>
	</g>
	<g class="st0">
		<g>
			<rect x="901.6" y="539.8" class="st1" width="44" height="44"/>
			<path class="st2" d="M945.1,540.3v43h-43v-43H945.1 M946.1,539.3h-45v45h45V539.3L946.1,539.3z"/>
		</g>
	</g>
	<g class="st0">
		<g>
			<rect x="946.6" y="539.8" class="st1" width="44" height="44"/>
			<path class="st2" d="M990.1,540.3v43h-43v-43H990.1 M991.1,539.3h-45v45h45V539.3L991.1,539.3z"/>
		</g>
	</g>
	<g class="st0">
		<g>
			<rect x="991.6" y="539.8" class="st1" width="44" height="44"/>
			<path class="st2" d="M1035.1,540.3v43h-43v-43H1035.1 M1036.1,539.3h-45v45h45V539.3L1036.1,539.3z"/>
		</g>
	</g>
	<g class="st0">
		<g>
			<rect x="1036.6" y="539.8" class="st1" width="44" height="44"/>
			<path class="st2" d="M1080.1,540.3v43h-43v-43H1080.1 M1081.1,539.3h-45v45h45V539.3L1081.1,539.3z"/>
		</g>
	</g>
	<g class="st0">
		<g>
			<rect x="1081.6" y="539.8" class="st1" width="44" height="44"/>
			<path class="st2" d="M1125.1,540.3v43h-43v-43H1125.1 M1126.1,539.3h-45v45h45V539.3L1126.1,539.3z"/>
		</g>
	</g>
	<g class="st0">
		<g>
			<rect x="1126.6" y="539.8" class="st1" width="44" height="44"/>
			<path class="st2" d="M1170.1,540.3v43h-43v-43H1170.1 M1171.1,539.3h-45v45h45V539.3L1171.1,539.3z"/>
		</g>
	</g>
	<g class="st0">
		<g>
			<rect x="1171.6" y="539.8" class="st1" width="44" height="44"/>
			<path class="st2" d="M1215.1,540.3v43h-43v-43H1215.1 M1216.1,539.3h-45v45h45V539.3L1216.1,539.3z"/>
		</g>
	</g>
	<g class="st0">
		<g>
			<rect x="1216.6" y="539.8" class="st1" width="44" height="44"/>
			<path class="st2" d="M1260.1,540.3v43h-43v-43H1260.1 M1261.1,539.3h-45v45h45V539.3L1261.1,539.3z"/>
		</g>
	</g>
	<g class="st0">
		<g>
			<rect x="1261.6" y="539.8" class="st1" width="44" height="44"/>
			<path class="st2" d="M1305.1,540.3v43h-43v-43H1305.1 M1306.1,539.3h-45v45h45V539.3L1306.1,539.3z"/>
		</g>
	</g>
	<g class="st0">
		<g>
			<rect x="766.6" y="584.8" class="st1" width="44" height="44"/>
			<path class="st2" d="M810.1,585.3v43h-43v-43H810.1 M811.1,584.3h-45v45h45V584.3L811.1,584.3z"/>
		</g>
	</g>
	<g class="st0">
		<g>
			<rect x="811.6" y="584.8" class="st1" width="44" height="44"/>
			<path class="st2" d="M855.1,585.3v43h-43v-43H855.1 M856.1,584.3h-45v45h45V584.3L856.1,584.3z"/>
		</g>
	</g>
	<g class="st0">
		<g>
			<rect x="856.6" y="584.8" class="st1" width="44" height="44"/>
			<path class="st2" d="M900.1,585.3v43h-43v-43H900.1 M901.1,584.3h-45v45h45V584.3L901.1,584.3z"/>
		</g>
	</g>
	<g class="st0">
		<g>
			<rect x="901.6" y="584.8" class="st1" width="44" height="44"/>
			<path class="st2" d="M945.1,585.3v43h-43v-43H945.1 M946.1,584.3h-45v45h45V584.3L946.1,584.3z"/>
		</g>
	</g>
	<g class="st0">
		<g>
			<rect x="946.6" y="584.8" class="st1" width="44" height="44"/>
			<path class="st2" d="M990.1,585.3v43h-43v-43H990.1 M991.1,584.3h-45v45h45V584.3L991.1,584.3z"/>
		</g>
	</g>
	<g class="st0">
		<g>
			<rect x="991.6" y="584.8" class="st1" width="44" height="44"/>
			<path class="st2" d="M1035.1,585.3v43h-43v-43H1035.1 M1036.1,584.3h-45v45h45V584.3L1036.1,584.3z"/>
		</g>
	</g>
	<g class="st0">
		<g>
			<rect x="1036.6" y="584.8" class="st1" width="44" height="44"/>
			<path class="st2" d="M1080.1,585.3v43h-43v-43H1080.1 M1081.1,584.3h-45v45h45V584.3L1081.1,584.3z"/>
		</g>
	</g>
	<g class="st0">
		<g>
			<rect x="1081.6" y="584.8" class="st1" width="44" height="44"/>
			<path class="st2" d="M1125.1,585.3v43h-43v-43H1125.1 M1126.1,584.3h-45v45h45V584.3L1126.1,584.3z"/>
		</g>
	</g>
	<g class="st0">
		<g>
			<rect x="1126.6" y="584.8" class="st1" width="44" height="44"/>
			<path class="st2" d="M1170.1,585.3v43h-43v-43H1170.1 M1171.1,584.3h-45v45h45V584.3L1171.1,584.3z"/>
		</g>
	</g>
	<g class="st0">
		<g>
			<rect x="1171.6" y="584.8" class="st1" width="44" height="44"/>
			<path class="st2" d="M1215.1,585.3v43h-43v-43H1215.1 M1216.1,584.3h-45v45h45V584.3L1216.1,584.3z"/>
		</g>
	</g>
	<g class="st0">
		<g>
			<rect x="1216.6" y="584.8" class="st1" width="44" height="44"/>
			<path class="st2" d="M1260.1,585.3v43h-43v-43H1260.1 M1261.1,584.3h-45v45h45V584.3L1261.1,584.3z"/>
		</g>
	</g>
	<g class="st0">
		<g>
			<rect x="1261.6" y="584.8" class="st1" width="44" height="44"/>
			<path class="st2" d="M1305.1,585.3v43h-43v-43H1305.1 M1306.1,584.3h-45v45h45V584.3L1306.1,584.3z"/>
		</g>
	</g>
	<g class="st0">
		<g>
			<rect x="766.6" y="629.8" class="st1" width="44" height="44"/>
			<path class="st2" d="M810.1,630.3v43h-43v-43H810.1 M811.1,629.3h-45v45h45V629.3L811.1,629.3z"/>
		</g>
	</g>
	<g class="st0">
		<g>
			<rect x="811.6" y="629.8" class="st1" width="44" height="44"/>
			<path class="st2" d="M855.1,630.3v43h-43v-43H855.1 M856.1,629.3h-45v45h45V629.3L856.1,629.3z"/>
		</g>
	</g>
	<g class="st0">
		<g>
			<rect x="856.6" y="629.8" class="st1" width="44" height="44"/>
			<path class="st2" d="M900.1,630.3v43h-43v-43H900.1 M901.1,629.3h-45v45h45V629.3L901.1,629.3z"/>
		</g>
	</g>
	<g class="st0">
		<g>
			<rect x="901.6" y="629.8" class="st1" width="44" height="44"/>
			<path class="st2" d="M945.1,630.3v43h-43v-43H945.1 M946.1,629.3h-45v45h45V629.3L946.1,629.3z"/>
		</g>
	</g>
	<g class="st0">
		<g>
			<rect x="946.6" y="629.8" class="st1" width="44" height="44"/>
			<path class="st2" d="M990.1,630.3v43h-43v-43H990.1 M991.1,629.3h-45v45h45V629.3L991.1,629.3z"/>
		</g>
	</g>
	<g class="st0">
		<g>
			<rect x="991.6" y="629.8" class="st1" width="44" height="44"/>
			<path class="st2" d="M1035.1,630.3v43h-43v-43H1035.1 M1036.1,629.3h-45v45h45V629.3L1036.1,629.3z"/>
		</g>
	</g>
	<g class="st0">
		<g>
			<rect x="1036.6" y="629.8" class="st1" width="44" height="44"/>
			<path class="st2" d="M1080.1,630.3v43h-43v-43H1080.1 M1081.1,629.3h-45v45h45V629.3L1081.1,629.3z"/>
		</g>
	</g>
	<g class="st0">
		<g>
			<rect x="1081.6" y="629.8" class="st1" width="44" height="44"/>
			<path class="st2" d="M1125.1,630.3v43h-43v-43H1125.1 M1126.1,629.3h-45v45h45V629.3L1126.1,629.3z"/>
		</g>
	</g>
	<g class="st0">
		<g>
			<rect x="1126.6" y="629.8" class="st1" width="44" height="44"/>
			<path class="st2" d="M1170.1,630.3v43h-43v-43H1170.1 M1171.1,629.3h-45v45h45V629.3L1171.1,629.3z"/>
		</g>
	</g>
	<g class="st0">
		<g>
			<rect x="1171.6" y="629.8" class="st1" width="44" height="44"/>
			<path class="st2" d="M1215.1,630.3v43h-43v-43H1215.1 M1216.1,629.3h-45v45h45V629.3L1216.1,629.3z"/>
		</g>
	</g>
	<g class="st0">
		<g>
			<rect x="1216.6" y="629.8" class="st1" width="44" height="44"/>
			<path class="st2" d="M1260.1,630.3v43h-43v-43H1260.1 M1261.1,629.3h-45v45h45V629.3L1261.1,629.3z"/>
		</g>
	</g>
	<g class="st0">
		<g>
			<rect x="1261.6" y="629.8" class="st1" width="44" height="44"/>
			<path class="st2" d="M1305.1,630.3v43h-43v-43H1305.1 M1306.1,629.3h-45v45h45V629.3L1306.1,629.3z"/>
		</g>
	</g>
	<g class="st0">
		<g>
			<rect x="766.6" y="674.8" class="st1" width="44" height="44"/>
			<path class="st2" d="M810.1,675.3v43h-43v-43H810.1 M811.1,674.3h-45v45h45V674.3L811.1,674.3z"/>
		</g>
	</g>
	<g class="st0">
		<g>
			<rect x="811.6" y="674.8" class="st1" width="44" height="44"/>
			<path class="st2" d="M855.1,675.3v43h-43v-43H855.1 M856.1,674.3h-45v45h45V674.3L856.1,674.3z"/>
		</g>
	</g>
	<g class="st0">
		<g>
			<rect x="856.6" y="674.8" class="st1" width="44" height="44"/>
			<path class="st2" d="M900.1,675.3v43h-43v-43H900.1 M901.1,674.3h-45v45h45V674.3L901.1,674.3z"/>
		</g>
	</g>
	<g class="st0">
		<g>
			<rect x="901.6" y="674.8" class="st1" width="44" height="44"/>
			<path class="st2" d="M945.1,675.3v43h-43v-43H945.1 M946.1,674.3h-45v45h45V674.3L946.1,674.3z"/>
		</g>
	</g>
	<g class="st0">
		<g>
			<rect x="946.6" y="674.8" class="st1" width="44" height="44"/>
			<path class="st2" d="M990.1,675.3v43h-43v-43H990.1 M991.1,674.3h-45v45h45V674.3L991.1,674.3z"/>
		</g>
	</g>
	<g class="st0">
		<g>
			<rect x="991.6" y="674.8" class="st1" width="44" height="44"/>
			<path class="st2" d="M1035.1,675.3v43h-43v-43H1035.1 M1036.1,674.3h-45v45h45V674.3L1036.1,674.3z"/>
		</g>
	</g>
	<g class="st0">
		<g>
			<rect x="1036.6" y="674.8" class="st1" width="44" height="44"/>
			<path class="st2" d="M1080.1,675.3v43h-43v-43H1080.1 M1081.1,674.3h-45v45h45V674.3L1081.1,674.3z"/>
		</g>
	</g>
	<g class="st0">
		<g>
			<rect x="1081.6" y="674.8" class="st1" width="44" height="44"/>
			<path class="st2" d="M1125.1,675.3v43h-43v-43H1125.1 M1126.1,674.3h-45v45h45V674.3L1126.1,674.3z"/>
		</g>
	</g>
	<g class="st0">
		<g>
			<rect x="1126.6" y="674.8" class="st1" width="44" height="44"/>
			<path class="st2" d="M1170.1,675.3v43h-43v-43H1170.1 M1171.1,674.3h-45v45h45V674.3L1171.1,674.3z"/>
		</g>
	</g>
	<g class="st0">
		<g>
			<rect x="1171.6" y="674.8" class="st1" width="44" height="44"/>
			<path class="st2" d="M1215.1,675.3v43h-43v-43H1215.1 M1216.1,674.3h-45v45h45V674.3L1216.1,674.3z"/>
		</g>
	</g>
	<g class="st0">
		<g>
			<rect x="1216.6" y="674.8" class="st1" width="44" height="44"/>
			<path class="st2" d="M1260.1,675.3v43h-43v-43H1260.1 M1261.1,674.3h-45v45h45V674.3L1261.1,674.3z"/>
		</g>
	</g>
	<g class="st0">
		<g>
			<rect x="1261.6" y="674.8" class="st1" width="44" height="44"/>
			<path class="st2" d="M1305.1,675.3v43h-43v-43H1305.1 M1306.1,674.3h-45v45h45V674.3L1306.1,674.3z"/>
		</g>
	</g>
</g>
<g id="parts">
	<text transform="matrix(1 0 0 1 107.9499 179.3394)" class="st2 st3 st4">GROUND</text>
	<text transform="matrix(1 0 0 1 107.9499 269.3394)" class="st2 st3 st4">WALL</text>
	<text transform="matrix(1 0 0 1 107.9499 359.3394)" class="st2 st3 st4">GOAL</text>
	<text transform="matrix(1 0 0 1 107.9499 449.3394)" class="st2 st3 st4">LASER</text>
	<text transform="matrix(1 0 0 1 107.9499 539.3395)" class="st2 st3 st4">DOOR</text>
	<text transform="matrix(1 0 0 1 338.5749 179.3394)" class="st2 st3 st4">1 SIDED MIRROR</text>
	<text transform="matrix(1 0 0 1 338.5749 269.3394)" class="st2 st3 st4">2 SIDED MIRROR</text>
	<text transform="matrix(1 0 0 1 338.5749 334.0269)"><tspan x="0" y="0" class="st2 st3 st4">1 SIDED MIRROR</tspan><tspan x="0" y="26.3" class="st2 st3 st4">ACTIVATOR</tspan></text>
	<text transform="matrix(1 0 0 1 338.5749 424.0269)"><tspan x="0" y="0" class="st2 st3 st4">2 SIDED MIRROR</tspan><tspan x="0" y="26.3" class="st2 st3 st4">ACTIVATOR</tspan></text>
	<text transform="matrix(1 0 0 1 338.5749 539.3395)" class="st2 st3 st4">ABSOBER LASER</text>
	<text transform="matrix(1 0 0 1 338.5749 629.3395)" class="st2 st3 st4">WIRE</text>
	<text transform="matrix(1 0 0 1 107.9499 629.3395)" class="st2 st3 st4">ACTIVATOR</text>
	<text transform="matrix(1 0 0 1 107.9499 719.3395)" class="st2 st3 st4">ABSORBER</text>
	<g>
		<g>
			<rect x="46.6" y="134.8" class="st1" width="44" height="44"/>
			<path d="M90.1,135.3v43h-43v-43H90.1 M91.1,134.3h-45v45h45V134.3L91.1,134.3z"/>
		</g>
	</g>
	<g>
		<g>
			<g>
				<rect x="46.6" y="224.8" class="st1" width="44" height="44"/>
				<path d="M90.1,225.3v43h-43v-43H90.1 M91.1,224.3h-45v45h45V224.3L91.1,224.3z"/>
			</g>
		</g>
		<polygon points="91.1,239.3 91.1,254.3 76.1,254.3 76.1,269.3 61.1,269.3 61.1,254.3 46.1,254.3 46.1,239.3 61.1,239.3 
			61.1,224.3 76.1,224.3 76.1,239.3 		"/>
	</g>
	<g>
		<g>
			<g>
				<g>
					<rect x="46.6" y="314.8" class="st1" width="44" height="44"/>
					<path d="M90.1,315.3v43h-43v-43H90.1 M91.1,314.3h-45v45h45V314.3L91.1,314.3z"/>
				</g>
			</g>
		</g>
		<circle class="st5" cx="68.6" cy="336.8" r="18.8"/>
		<polygon points="68.6,346.1 59.9,350.9 61.5,340.7 54.5,333.5 64.2,332 68.6,322.8 72.9,332 82.6,333.5 75.6,340.7 77.3,350.9 		
			"/>
	</g>
	<g>
		<g>
			<g>
				<g>
					<rect x="46.6" y="674.8" class="st1" width="44" height="44"/>
					<path d="M90.1,675.3v43h-43v-43H90.1 M91.1,674.3h-45v45h45V674.3L91.1,674.3z"/>
				</g>
			</g>
		</g>
		<circle class="st5" cx="68.6" cy="696.8" r="11.2"/>
	</g>
	<g>
		<g>
			<g>
				<rect x="46.6" y="494.8" class="st1" width="44" height="44"/>
				<path d="M90.1,495.3v43h-43v-43H90.1 M91.1,494.3h-45v45h45V494.3L91.1,494.3z"/>
			</g>
		</g>
	</g>
	<rect x="46.1" y="505.6" width="45" height="22.5"/>
	<rect x="53.6" y="505.6" class="st6" width="30" height="15"/>
	<g>
		<g>
			<g>
				<g>
					<rect x="46.6" y="584.8" class="st1" width="44" height="44"/>
					<path d="M90.1,585.3v43h-43v-43H90.1 M91.1,584.3h-45v45h45V584.3L91.1,584.3z"/>
				</g>
			</g>
		</g>
		<rect x="46.1" y="595.6" width="45" height="22.5"/>
		<rect x="49.8" y="599.3" class="st7" width="37.5" height="15"/>
		<rect x="57.3" y="603.1" width="22.5" height="7.5"/>
	</g>
	<g>
		<circle class="st8" cx="51" cy="108.4" r="4.9"/>
		<text transform="matrix(1 0 0 1 48.4377 110.8247)" class="st9 st10">4</text>
		<polygon points="51.9,113.2 51.9,114.7 50.6,113.9 49.4,113.2 50.6,112.4 51.9,111.7 		"/>
		<polygon points="50,103.5 50,102 51.3,102.8 52.6,103.5 51.3,104.3 50,105 		"/>
		<polygon points="46.2,109.3 44.7,109.3 45.5,108 46.2,106.7 46.9,108 47.7,109.3 		"/>
		<polygon points="55.8,107.4 57.3,107.4 56.6,108.7 55.8,109.9 55.1,108.7 54.4,107.4 		"/>
	</g>
	<g>
		<circle class="st8" cx="51" cy="122.4" r="4.9"/>
		<polygon points="51.9,127.2 51.9,128.7 50.6,128 49.4,127.2 50.6,126.5 51.9,125.8 		"/>
		<polygon points="50,117.6 50,116.1 51.3,116.8 52.6,117.6 51.3,118.3 50,119.1 		"/>
		<polygon points="46.2,123.4 44.7,123.4 45.5,122.1 46.2,120.8 46.9,122.1 47.7,123.4 		"/>
		<polygon points="55.8,121.4 57.3,121.4 56.6,122.7 55.8,124 55.1,122.7 54.4,121.4 		"/>
		<text transform="matrix(1 0 0 1 48.5616 124.9973)" class="st9 st10">8</text>
	</g>
	<g>
		<circle class="st8" cx="50.9" cy="95.6" r="4.9"/>
		<polygon points="50.9,93.1 49.2,93.1 50.1,92.2 50.9,91.2 51.8,92.2 52.7,93.1 		"/>
		<polygon points="50.9,98 52.7,98 51.8,99 50.9,99.9 50.1,99 49.2,98 		"/>
		<polygon points="53.4,95.6 53.4,93.8 54.3,94.7 55.3,95.6 54.3,96.4 53.4,97.3 		"/>
		<polygon points="48.5,95.6 48.5,97.3 47.5,96.4 46.6,95.6 47.5,94.7 48.5,93.8 		"/>
		<rect x="48.3" y="95.2" width="5.3" height="0.7"/>
		<rect x="48.3" y="95.2" transform="matrix(1.597778e-07 1 -1 1.597778e-07 146.447 44.6804)" width="5.3" height="0.7"/>
	</g>
	<g>
		<g>
			<g>
				<rect x="271.6" y="134.8" class="st1" width="44" height="44"/>
				<path d="M315.1,135.3v43h-43v-43H315.1 M316.1,134.3h-45v45h45V134.3L316.1,134.3z"/>
			</g>
		</g>
	</g>
	<rect x="271.2" y="151.2" width="44.9" height="11.2"/>
	<rect x="276.7" y="151.2" class="st11" width="33.8" height="5.6"/>
	<rect x="271.1" y="148.4" width="5.6" height="16.9"/>
	<rect x="310.4" y="148.4" width="5.6" height="16.9"/>
	<g>
		<g>
			<g>
				<rect x="271.6" y="224.8" class="st1" width="44" height="44"/>
				<path d="M315.1,225.3v43h-43v-43H315.1 M316.1,224.3h-45v45h45V224.3L316.1,224.3z"/>
			</g>
		</g>
	</g>
	<rect x="271.1" y="238.4" width="5.6" height="16.9"/>
	<rect x="310.4" y="238.4" width="5.6" height="16.9"/>
	<rect x="276.7" y="241.2" class="st11" width="33.8" height="11.2"/>
	<g>
		<g>
			<g>
				<rect x="271.6" y="314.8" class="st1" width="44" height="44"/>
				<path d="M315.1,315.3v43h-43v-43H315.1 M316.1,314.3h-45v45h45V314.3L316.1,314.3z"/>
			</g>
		</g>
	</g>
	<rect x="271.2" y="331.2" width="44.9" height="11.2"/>
	<g>
		<rect x="276.7" y="331.2" class="st7" width="33.8" height="5.6"/>
	</g>
	<rect x="271.1" y="328.4" width="5.6" height="16.9"/>
	<rect x="310.4" y="328.4" width="5.6" height="16.9"/>
	<g>
		<g>
			<g>
				<rect x="271.6" y="404.8" class="st1" width="44" height="44"/>
				<path d="M315.1,405.3v43h-43v-43H315.1 M316.1,404.3h-45v45h45V404.3L316.1,404.3z"/>
			</g>
		</g>
	</g>
	<rect x="271.1" y="418.4" width="5.6" height="16.9"/>
	<rect x="310.4" y="418.4" width="5.6" height="16.9"/>
	<g>
		<rect x="276.7" y="421.2" class="st7" width="33.8" height="11.2"/>
	</g>
	<g>
		<g>
			<g>
				<g>
					<rect x="46.6" y="404.8" class="st1" width="44" height="44"/>
					<path d="M90.1,405.3v43h-43v-43H90.1 M91.1,404.3h-45v45h45V404.3L91.1,404.3z"/>
				</g>
			</g>
		</g>
		<g>
			<polygon class="st7" points="52.7,411.6 80.5,426.8 52.7,442 			"/>
			<path class="st12" d="M53.7,413.3l24.8,13.5l-24.8,13.5V413.3 M51.7,410v33.8l30.9-16.9L51.7,410L51.7,410z"/>
		</g>
		<g>
			<rect x="77" y="424" class="st12" width="8.4" height="5.6"/>
		</g>
	</g>
	<g>
		<g>
			<g>
				<rect x="271.6" y="494.8" class="st1" width="44" height="44"/>
				<path d="M315.1,495.3v43h-43v-43H315.1 M316.1,494.3h-45v45h45V494.3L316.1,494.3z"/>
			</g>
		</g>
	</g>
	<path class="st5" d="M291.7,509.3v15.2c-1.3,0.7-2.8,1.2-4.4,1.2c-4.8,0-8.8-3.9-8.8-8.8c0-4.8,3.9-8.8,8.8-8.8
		C288.9,508.1,290.4,508.5,291.7,509.3z"/>
	<g>
		<polygon class="st7" points="291.8,507.5 305.8,516.8 291.8,526.2 		"/>
		<path class="st12" d="M292.8,509.3l11.3,7.5l-11.3,7.5V509.3 M290.8,505.6v22.5l16.9-11.2L290.8,505.6L290.8,505.6z"/>
	</g>
	<g>
		<rect x="302" y="514" class="st12" width="8.4" height="5.6"/>
	</g>
	<text transform="matrix(1 0 0 1 68.5749 97.777)" class="st9 st13">movable</text>
	<text transform="matrix(1 0 0 1 68.5749 111.8395)" class="st9 st13">turnable 4 way</text>
	<text transform="matrix(1 0 0 1 68.5749 125.902)" class="st9 st13">turnable 8 way</text>
	<rect y="44.3" class="st14" width="630" height="45"/>
	<text transform="matrix(1 0 0 1 224.9247 85.8652)" class="st2 st3 st15">PARTS</text>
	<line class="st16" x1="271.1" y1="609.7" x2="316.1" y2="609.7"/>
</g>
<g id="level">
</g>
<g id="level_name">
	<rect x="-718.7" y="44.3" class="st14" width="630" height="45"/>
	<text transform="matrix(1 0 0 1 -559.6522 85.8652)" class="st2 st3 st15">Level Name</text>
</g>
<g id="solution">
	<rect x="721.3" y="44.3" class="st14" width="630" height="45"/>
	<text transform="matrix(1 0 0 1 895.175 85.8652)" class="st2 st3 st15">SOLUTION</text>
</g>
</svg>
