<?xml version="1.0" encoding="utf-8"?>
<!-- Generator: Adobe Illustrator 24.0.1, SVG Export Plug-In . SVG Version: 6.00 Build 0)  -->
<svg version="1.1" xmlns="http://www.w3.org/2000/svg" xmlns:xlink="http://www.w3.org/1999/xlink" x="0px" y="0px"
	 viewBox="0 0 2069.8 764.3" style="enable-background:new 0 0 2069.8 764.3;" xml:space="preserve">
<style type="text/css">
	.st0{opacity:0.1;}
	.st1{fill:#97ACBD;}
	.st2{fill:#231F20;}
	.st3{font-family:'Arial-Black';}
	.st4{font-size:21.952px;}
	.st5{font-family:'MyriadPro-Bold';}
	.st6{font-size:10px;}
	.st7{fill:none;}
	.st8{font-size:48.3993px;}
	.st9{fill:#FF0013;stroke:#020202;stroke-width:2;stroke-miterlimit:10;}
	.st10{fill:#757779;}
	.st11{fill:#FF0013;}
	.st12{fill:#FFFFFF;stroke:#000000;stroke-miterlimit:10;}
	.st13{font-size:8.3798px;}
	.st14{fill:#FFFFFF;}
	.st15{fill:#020202;}
	.st16{fill:#FFFFFF;stroke:#020202;stroke-width:2;stroke-miterlimit:10;}
	.st17{fill:none;stroke:#FF0000;stroke-width:5;stroke-miterlimit:10;stroke-dasharray:5;}
	.st18{fill:#FF0000;}
	.st19{fill:#00FF00;}
	.st20{fill:#FF00FF;}
	.st21{fill:#FFFF00;}
	.st22{fill:#0000FF;}
	.st23{fill:#00FFFF;}
</style>
<g id="grid">
	<g class="st0">
		<g>
			<rect x="45.3" y="134.8" class="st1" width="44" height="44"/>
			<path class="st2" d="M88.8,135.3v43h-43v-43H88.8 M89.8,134.3h-45v45h45V134.3L89.8,134.3z"/>
		</g>
	</g>
	<g class="st0">
		<g>
			<rect x="90.3" y="134.8" class="st1" width="44" height="44"/>
			<path class="st2" d="M133.8,135.3v43h-43v-43H133.8 M134.8,134.3h-45v45h45V134.3L134.8,134.3z"/>
		</g>
	</g>
	<g class="st0">
		<g>
			<rect x="135.3" y="134.8" class="st1" width="44" height="44"/>
			<path class="st2" d="M178.8,135.3v43h-43v-43H178.8 M179.8,134.3h-45v45h45V134.3L179.8,134.3z"/>
		</g>
	</g>
	<g class="st0">
		<g>
			<rect x="180.3" y="134.8" class="st1" width="44" height="44"/>
			<path class="st2" d="M223.8,135.3v43h-43v-43H223.8 M224.8,134.3h-45v45h45V134.3L224.8,134.3z"/>
		</g>
	</g>
	<g class="st0">
		<g>
			<rect x="225.3" y="134.8" class="st1" width="44" height="44"/>
			<path class="st2" d="M268.8,135.3v43h-43v-43H268.8 M269.8,134.3h-45v45h45V134.3L269.8,134.3z"/>
		</g>
	</g>
	<g class="st0">
		<g>
			<rect x="270.3" y="134.8" class="st1" width="44" height="44"/>
			<path class="st2" d="M313.8,135.3v43h-43v-43H313.8 M314.8,134.3h-45v45h45V134.3L314.8,134.3z"/>
		</g>
	</g>
	<g class="st0">
		<g>
			<rect x="315.3" y="134.8" class="st1" width="44" height="44"/>
			<path class="st2" d="M358.8,135.3v43h-43v-43H358.8 M359.8,134.3h-45v45h45V134.3L359.8,134.3z"/>
		</g>
	</g>
	<g class="st0">
		<g>
			<rect x="360.3" y="134.8" class="st1" width="44" height="44"/>
			<path class="st2" d="M403.8,135.3v43h-43v-43H403.8 M404.8,134.3h-45v45h45V134.3L404.8,134.3z"/>
		</g>
	</g>
	<g class="st0">
		<g>
			<rect x="405.3" y="134.8" class="st1" width="44" height="44"/>
			<path class="st2" d="M448.8,135.3v43h-43v-43H448.8 M449.8,134.3h-45v45h45V134.3L449.8,134.3z"/>
		</g>
	</g>
	<g class="st0">
		<g>
			<rect x="450.3" y="134.8" class="st1" width="44" height="44"/>
			<path class="st2" d="M493.8,135.3v43h-43v-43H493.8 M494.8,134.3h-45v45h45V134.3L494.8,134.3z"/>
		</g>
	</g>
	<g class="st0">
		<g>
			<rect x="495.3" y="134.8" class="st1" width="44" height="44"/>
			<path class="st2" d="M538.8,135.3v43h-43v-43H538.8 M539.8,134.3h-45v45h45V134.3L539.8,134.3z"/>
		</g>
	</g>
	<g class="st0">
		<g>
			<rect x="540.3" y="134.8" class="st1" width="44" height="44"/>
			<path class="st2" d="M583.8,135.3v43h-43v-43H583.8 M584.8,134.3h-45v45h45V134.3L584.8,134.3z"/>
		</g>
	</g>
	<g class="st0">
		<g>
			<rect x="45.3" y="179.8" class="st1" width="44" height="44"/>
			<path class="st2" d="M88.8,180.3v43h-43v-43H88.8 M89.8,179.3h-45v45h45V179.3L89.8,179.3z"/>
		</g>
	</g>
	<g class="st0">
		<g>
			<rect x="90.3" y="179.8" class="st1" width="44" height="44"/>
			<path class="st2" d="M133.8,180.3v43h-43v-43H133.8 M134.8,179.3h-45v45h45V179.3L134.8,179.3z"/>
		</g>
	</g>
	<g class="st0">
		<g>
			<rect x="135.3" y="179.8" class="st1" width="44" height="44"/>
			<path class="st2" d="M178.8,180.3v43h-43v-43H178.8 M179.8,179.3h-45v45h45V179.3L179.8,179.3z"/>
		</g>
	</g>
	<g class="st0">
		<g>
			<rect x="180.3" y="179.8" class="st1" width="44" height="44"/>
			<path class="st2" d="M223.8,180.3v43h-43v-43H223.8 M224.8,179.3h-45v45h45V179.3L224.8,179.3z"/>
		</g>
	</g>
	<g class="st0">
		<g>
			<rect x="225.3" y="179.8" class="st1" width="44" height="44"/>
			<path class="st2" d="M268.8,180.3v43h-43v-43H268.8 M269.8,179.3h-45v45h45V179.3L269.8,179.3z"/>
		</g>
	</g>
	<g class="st0">
		<g>
			<rect x="270.3" y="179.8" class="st1" width="44" height="44"/>
			<path class="st2" d="M313.8,180.3v43h-43v-43H313.8 M314.8,179.3h-45v45h45V179.3L314.8,179.3z"/>
		</g>
	</g>
	<g class="st0">
		<g>
			<rect x="315.3" y="179.8" class="st1" width="44" height="44"/>
			<path class="st2" d="M358.8,180.3v43h-43v-43H358.8 M359.8,179.3h-45v45h45V179.3L359.8,179.3z"/>
		</g>
	</g>
	<g class="st0">
		<g>
			<rect x="360.3" y="179.8" class="st1" width="44" height="44"/>
			<path class="st2" d="M403.8,180.3v43h-43v-43H403.8 M404.8,179.3h-45v45h45V179.3L404.8,179.3z"/>
		</g>
	</g>
	<g class="st0">
		<g>
			<rect x="405.3" y="179.8" class="st1" width="44" height="44"/>
			<path class="st2" d="M448.8,180.3v43h-43v-43H448.8 M449.8,179.3h-45v45h45V179.3L449.8,179.3z"/>
		</g>
	</g>
	<g class="st0">
		<g>
			<rect x="450.3" y="179.8" class="st1" width="44" height="44"/>
			<path class="st2" d="M493.8,180.3v43h-43v-43H493.8 M494.8,179.3h-45v45h45V179.3L494.8,179.3z"/>
		</g>
	</g>
	<g class="st0">
		<g>
			<rect x="495.3" y="179.8" class="st1" width="44" height="44"/>
			<path class="st2" d="M538.8,180.3v43h-43v-43H538.8 M539.8,179.3h-45v45h45V179.3L539.8,179.3z"/>
		</g>
	</g>
	<g class="st0">
		<g>
			<rect x="540.3" y="179.8" class="st1" width="44" height="44"/>
			<path class="st2" d="M583.8,180.3v43h-43v-43H583.8 M584.8,179.3h-45v45h45V179.3L584.8,179.3z"/>
		</g>
	</g>
	<g class="st0">
		<g>
			<rect x="45.3" y="224.8" class="st1" width="44" height="44"/>
			<path class="st2" d="M88.8,225.3v43h-43v-43H88.8 M89.8,224.3h-45v45h45V224.3L89.8,224.3z"/>
		</g>
	</g>
	<g class="st0">
		<g>
			<rect x="90.3" y="224.8" class="st1" width="44" height="44"/>
			<path class="st2" d="M133.8,225.3v43h-43v-43H133.8 M134.8,224.3h-45v45h45V224.3L134.8,224.3z"/>
		</g>
	</g>
	<g class="st0">
		<g>
			<rect x="135.3" y="224.8" class="st1" width="44" height="44"/>
			<path class="st2" d="M178.8,225.3v43h-43v-43H178.8 M179.8,224.3h-45v45h45V224.3L179.8,224.3z"/>
		</g>
	</g>
	<g class="st0">
		<g>
			<rect x="180.3" y="224.8" class="st1" width="44" height="44"/>
			<path class="st2" d="M223.8,225.3v43h-43v-43H223.8 M224.8,224.3h-45v45h45V224.3L224.8,224.3z"/>
		</g>
	</g>
	<g class="st0">
		<g>
			<rect x="225.3" y="224.8" class="st1" width="44" height="44"/>
			<path class="st2" d="M268.8,225.3v43h-43v-43H268.8 M269.8,224.3h-45v45h45V224.3L269.8,224.3z"/>
		</g>
	</g>
	<g class="st0">
		<g>
			<rect x="270.3" y="224.8" class="st1" width="44" height="44"/>
			<path class="st2" d="M313.8,225.3v43h-43v-43H313.8 M314.8,224.3h-45v45h45V224.3L314.8,224.3z"/>
		</g>
	</g>
	<g class="st0">
		<g>
			<rect x="315.3" y="224.8" class="st1" width="44" height="44"/>
			<path class="st2" d="M358.8,225.3v43h-43v-43H358.8 M359.8,224.3h-45v45h45V224.3L359.8,224.3z"/>
		</g>
	</g>
	<g class="st0">
		<g>
			<rect x="360.3" y="224.8" class="st1" width="44" height="44"/>
			<path class="st2" d="M403.8,225.3v43h-43v-43H403.8 M404.8,224.3h-45v45h45V224.3L404.8,224.3z"/>
		</g>
	</g>
	<g class="st0">
		<g>
			<rect x="405.3" y="224.8" class="st1" width="44" height="44"/>
			<path class="st2" d="M448.8,225.3v43h-43v-43H448.8 M449.8,224.3h-45v45h45V224.3L449.8,224.3z"/>
		</g>
	</g>
	<g class="st0">
		<g>
			<rect x="450.3" y="224.8" class="st1" width="44" height="44"/>
			<path class="st2" d="M493.8,225.3v43h-43v-43H493.8 M494.8,224.3h-45v45h45V224.3L494.8,224.3z"/>
		</g>
	</g>
	<g class="st0">
		<g>
			<rect x="495.3" y="224.8" class="st1" width="44" height="44"/>
			<path class="st2" d="M538.8,225.3v43h-43v-43H538.8 M539.8,224.3h-45v45h45V224.3L539.8,224.3z"/>
		</g>
	</g>
	<g class="st0">
		<g>
			<rect x="540.3" y="224.8" class="st1" width="44" height="44"/>
			<path class="st2" d="M583.8,225.3v43h-43v-43H583.8 M584.8,224.3h-45v45h45V224.3L584.8,224.3z"/>
		</g>
	</g>
	<g class="st0">
		<g>
			<rect x="45.3" y="269.8" class="st1" width="44" height="44"/>
			<path class="st2" d="M88.8,270.3v43h-43v-43H88.8 M89.8,269.3h-45v45h45V269.3L89.8,269.3z"/>
		</g>
	</g>
	<g class="st0">
		<g>
			<rect x="90.3" y="269.8" class="st1" width="44" height="44"/>
			<path class="st2" d="M133.8,270.3v43h-43v-43H133.8 M134.8,269.3h-45v45h45V269.3L134.8,269.3z"/>
		</g>
	</g>
	<g class="st0">
		<g>
			<rect x="135.3" y="269.8" class="st1" width="44" height="44"/>
			<path class="st2" d="M178.8,270.3v43h-43v-43H178.8 M179.8,269.3h-45v45h45V269.3L179.8,269.3z"/>
		</g>
	</g>
	<g class="st0">
		<g>
			<rect x="180.3" y="269.8" class="st1" width="44" height="44"/>
			<path class="st2" d="M223.8,270.3v43h-43v-43H223.8 M224.8,269.3h-45v45h45V269.3L224.8,269.3z"/>
		</g>
	</g>
	<g class="st0">
		<g>
			<rect x="225.3" y="269.8" class="st1" width="44" height="44"/>
			<path class="st2" d="M268.8,270.3v43h-43v-43H268.8 M269.8,269.3h-45v45h45V269.3L269.8,269.3z"/>
		</g>
	</g>
	<g class="st0">
		<g>
			<rect x="270.3" y="269.8" class="st1" width="44" height="44"/>
			<path class="st2" d="M313.8,270.3v43h-43v-43H313.8 M314.8,269.3h-45v45h45V269.3L314.8,269.3z"/>
		</g>
	</g>
	<g class="st0">
		<g>
			<rect x="315.3" y="269.8" class="st1" width="44" height="44"/>
			<path class="st2" d="M358.8,270.3v43h-43v-43H358.8 M359.8,269.3h-45v45h45V269.3L359.8,269.3z"/>
		</g>
	</g>
	<g class="st0">
		<g>
			<rect x="360.3" y="269.8" class="st1" width="44" height="44"/>
			<path class="st2" d="M403.8,270.3v43h-43v-43H403.8 M404.8,269.3h-45v45h45V269.3L404.8,269.3z"/>
		</g>
	</g>
	<g class="st0">
		<g>
			<rect x="405.3" y="269.8" class="st1" width="44" height="44"/>
			<path class="st2" d="M448.8,270.3v43h-43v-43H448.8 M449.8,269.3h-45v45h45V269.3L449.8,269.3z"/>
		</g>
	</g>
	<g class="st0">
		<g>
			<rect x="450.3" y="269.8" class="st1" width="44" height="44"/>
			<path class="st2" d="M493.8,270.3v43h-43v-43H493.8 M494.8,269.3h-45v45h45V269.3L494.8,269.3z"/>
		</g>
	</g>
	<g class="st0">
		<g>
			<rect x="495.3" y="269.8" class="st1" width="44" height="44"/>
			<path class="st2" d="M538.8,270.3v43h-43v-43H538.8 M539.8,269.3h-45v45h45V269.3L539.8,269.3z"/>
		</g>
	</g>
	<g class="st0">
		<g>
			<rect x="540.3" y="269.8" class="st1" width="44" height="44"/>
			<path class="st2" d="M583.8,270.3v43h-43v-43H583.8 M584.8,269.3h-45v45h45V269.3L584.8,269.3z"/>
		</g>
	</g>
	<g class="st0">
		<g>
			<rect x="45.3" y="314.8" class="st1" width="44" height="44"/>
			<path class="st2" d="M88.8,315.3v43h-43v-43H88.8 M89.8,314.3h-45v45h45V314.3L89.8,314.3z"/>
		</g>
	</g>
	<g class="st0">
		<g>
			<rect x="90.3" y="314.8" class="st1" width="44" height="44"/>
			<path class="st2" d="M133.8,315.3v43h-43v-43H133.8 M134.8,314.3h-45v45h45V314.3L134.8,314.3z"/>
		</g>
	</g>
	<g class="st0">
		<g>
			<rect x="135.3" y="314.8" class="st1" width="44" height="44"/>
			<path class="st2" d="M178.8,315.3v43h-43v-43H178.8 M179.8,314.3h-45v45h45V314.3L179.8,314.3z"/>
		</g>
	</g>
	<g class="st0">
		<g>
			<rect x="180.3" y="314.8" class="st1" width="44" height="44"/>
			<path class="st2" d="M223.8,315.3v43h-43v-43H223.8 M224.8,314.3h-45v45h45V314.3L224.8,314.3z"/>
		</g>
	</g>
	<g class="st0">
		<g>
			<rect x="225.3" y="314.8" class="st1" width="44" height="44"/>
			<path class="st2" d="M268.8,315.3v43h-43v-43H268.8 M269.8,314.3h-45v45h45V314.3L269.8,314.3z"/>
		</g>
	</g>
	<g class="st0">
		<g>
			<rect x="270.3" y="314.8" class="st1" width="44" height="44"/>
			<path class="st2" d="M313.8,315.3v43h-43v-43H313.8 M314.8,314.3h-45v45h45V314.3L314.8,314.3z"/>
		</g>
	</g>
	<g class="st0">
		<g>
			<rect x="315.3" y="314.8" class="st1" width="44" height="44"/>
			<path class="st2" d="M358.8,315.3v43h-43v-43H358.8 M359.8,314.3h-45v45h45V314.3L359.8,314.3z"/>
		</g>
	</g>
	<g class="st0">
		<g>
			<rect x="360.3" y="314.8" class="st1" width="44" height="44"/>
			<path class="st2" d="M403.8,315.3v43h-43v-43H403.8 M404.8,314.3h-45v45h45V314.3L404.8,314.3z"/>
		</g>
	</g>
	<g class="st0">
		<g>
			<rect x="405.3" y="314.8" class="st1" width="44" height="44"/>
			<path class="st2" d="M448.8,315.3v43h-43v-43H448.8 M449.8,314.3h-45v45h45V314.3L449.8,314.3z"/>
		</g>
	</g>
	<g class="st0">
		<g>
			<rect x="450.3" y="314.8" class="st1" width="44" height="44"/>
			<path class="st2" d="M493.8,315.3v43h-43v-43H493.8 M494.8,314.3h-45v45h45V314.3L494.8,314.3z"/>
		</g>
	</g>
	<g class="st0">
		<g>
			<rect x="495.3" y="314.8" class="st1" width="44" height="44"/>
			<path class="st2" d="M538.8,315.3v43h-43v-43H538.8 M539.8,314.3h-45v45h45V314.3L539.8,314.3z"/>
		</g>
	</g>
	<g class="st0">
		<g>
			<rect x="540.3" y="314.8" class="st1" width="44" height="44"/>
			<path class="st2" d="M583.8,315.3v43h-43v-43H583.8 M584.8,314.3h-45v45h45V314.3L584.8,314.3z"/>
		</g>
	</g>
	<g class="st0">
		<g>
			<rect x="45.3" y="359.8" class="st1" width="44" height="44"/>
			<path class="st2" d="M88.8,360.3v43h-43v-43H88.8 M89.8,359.3h-45v45h45V359.3L89.8,359.3z"/>
		</g>
	</g>
	<g class="st0">
		<g>
			<rect x="90.3" y="359.8" class="st1" width="44" height="44"/>
			<path class="st2" d="M133.8,360.3v43h-43v-43H133.8 M134.8,359.3h-45v45h45V359.3L134.8,359.3z"/>
		</g>
	</g>
	<g class="st0">
		<g>
			<rect x="135.3" y="359.8" class="st1" width="44" height="44"/>
			<path class="st2" d="M178.8,360.3v43h-43v-43H178.8 M179.8,359.3h-45v45h45V359.3L179.8,359.3z"/>
		</g>
	</g>
	<g class="st0">
		<g>
			<rect x="180.3" y="359.8" class="st1" width="44" height="44"/>
			<path class="st2" d="M223.8,360.3v43h-43v-43H223.8 M224.8,359.3h-45v45h45V359.3L224.8,359.3z"/>
		</g>
	</g>
	<g class="st0">
		<g>
			<rect x="225.3" y="359.8" class="st1" width="44" height="44"/>
			<path class="st2" d="M268.8,360.3v43h-43v-43H268.8 M269.8,359.3h-45v45h45V359.3L269.8,359.3z"/>
		</g>
	</g>
	<g class="st0">
		<g>
			<rect x="270.3" y="359.8" class="st1" width="44" height="44"/>
			<path class="st2" d="M313.8,360.3v43h-43v-43H313.8 M314.8,359.3h-45v45h45V359.3L314.8,359.3z"/>
		</g>
	</g>
	<g class="st0">
		<g>
			<rect x="315.3" y="359.8" class="st1" width="44" height="44"/>
			<path class="st2" d="M358.8,360.3v43h-43v-43H358.8 M359.8,359.3h-45v45h45V359.3L359.8,359.3z"/>
		</g>
	</g>
	<g class="st0">
		<g>
			<rect x="360.3" y="359.8" class="st1" width="44" height="44"/>
			<path class="st2" d="M403.8,360.3v43h-43v-43H403.8 M404.8,359.3h-45v45h45V359.3L404.8,359.3z"/>
		</g>
	</g>
	<g class="st0">
		<g>
			<rect x="405.3" y="359.8" class="st1" width="44" height="44"/>
			<path class="st2" d="M448.8,360.3v43h-43v-43H448.8 M449.8,359.3h-45v45h45V359.3L449.8,359.3z"/>
		</g>
	</g>
	<g class="st0">
		<g>
			<rect x="450.3" y="359.8" class="st1" width="44" height="44"/>
			<path class="st2" d="M493.8,360.3v43h-43v-43H493.8 M494.8,359.3h-45v45h45V359.3L494.8,359.3z"/>
		</g>
	</g>
	<g class="st0">
		<g>
			<rect x="495.3" y="359.8" class="st1" width="44" height="44"/>
			<path class="st2" d="M538.8,360.3v43h-43v-43H538.8 M539.8,359.3h-45v45h45V359.3L539.8,359.3z"/>
		</g>
	</g>
	<g class="st0">
		<g>
			<rect x="540.3" y="359.8" class="st1" width="44" height="44"/>
			<path class="st2" d="M583.8,360.3v43h-43v-43H583.8 M584.8,359.3h-45v45h45V359.3L584.8,359.3z"/>
		</g>
	</g>
	<g class="st0">
		<g>
			<rect x="45.3" y="404.8" class="st1" width="44" height="44"/>
			<path class="st2" d="M88.8,405.3v43h-43v-43H88.8 M89.8,404.3h-45v45h45V404.3L89.8,404.3z"/>
		</g>
	</g>
	<g class="st0">
		<g>
			<rect x="90.3" y="404.8" class="st1" width="44" height="44"/>
			<path class="st2" d="M133.8,405.3v43h-43v-43H133.8 M134.8,404.3h-45v45h45V404.3L134.8,404.3z"/>
		</g>
	</g>
	<g class="st0">
		<g>
			<rect x="135.3" y="404.8" class="st1" width="44" height="44"/>
			<path class="st2" d="M178.8,405.3v43h-43v-43H178.8 M179.8,404.3h-45v45h45V404.3L179.8,404.3z"/>
		</g>
	</g>
	<g class="st0">
		<g>
			<rect x="180.3" y="404.8" class="st1" width="44" height="44"/>
			<path class="st2" d="M223.8,405.3v43h-43v-43H223.8 M224.8,404.3h-45v45h45V404.3L224.8,404.3z"/>
		</g>
	</g>
	<g class="st0">
		<g>
			<rect x="225.3" y="404.8" class="st1" width="44" height="44"/>
			<path class="st2" d="M268.8,405.3v43h-43v-43H268.8 M269.8,404.3h-45v45h45V404.3L269.8,404.3z"/>
		</g>
	</g>
	<g class="st0">
		<g>
			<rect x="270.3" y="404.8" class="st1" width="44" height="44"/>
			<path class="st2" d="M313.8,405.3v43h-43v-43H313.8 M314.8,404.3h-45v45h45V404.3L314.8,404.3z"/>
		</g>
	</g>
	<g class="st0">
		<g>
			<rect x="315.3" y="404.8" class="st1" width="44" height="44"/>
			<path class="st2" d="M358.8,405.3v43h-43v-43H358.8 M359.8,404.3h-45v45h45V404.3L359.8,404.3z"/>
		</g>
	</g>
	<g class="st0">
		<g>
			<rect x="360.3" y="404.8" class="st1" width="44" height="44"/>
			<path class="st2" d="M403.8,405.3v43h-43v-43H403.8 M404.8,404.3h-45v45h45V404.3L404.8,404.3z"/>
		</g>
	</g>
	<g class="st0">
		<g>
			<rect x="405.3" y="404.8" class="st1" width="44" height="44"/>
			<path class="st2" d="M448.8,405.3v43h-43v-43H448.8 M449.8,404.3h-45v45h45V404.3L449.8,404.3z"/>
		</g>
	</g>
	<g class="st0">
		<g>
			<rect x="450.3" y="404.8" class="st1" width="44" height="44"/>
			<path class="st2" d="M493.8,405.3v43h-43v-43H493.8 M494.8,404.3h-45v45h45V404.3L494.8,404.3z"/>
		</g>
	</g>
	<g class="st0">
		<g>
			<rect x="495.3" y="404.8" class="st1" width="44" height="44"/>
			<path class="st2" d="M538.8,405.3v43h-43v-43H538.8 M539.8,404.3h-45v45h45V404.3L539.8,404.3z"/>
		</g>
	</g>
	<g class="st0">
		<g>
			<rect x="540.3" y="404.8" class="st1" width="44" height="44"/>
			<path class="st2" d="M583.8,405.3v43h-43v-43H583.8 M584.8,404.3h-45v45h45V404.3L584.8,404.3z"/>
		</g>
	</g>
	<g class="st0">
		<g>
			<rect x="45.3" y="449.8" class="st1" width="44" height="44"/>
			<path class="st2" d="M88.8,450.3v43h-43v-43H88.8 M89.8,449.3h-45v45h45V449.3L89.8,449.3z"/>
		</g>
	</g>
	<g class="st0">
		<g>
			<rect x="90.3" y="449.8" class="st1" width="44" height="44"/>
			<path class="st2" d="M133.8,450.3v43h-43v-43H133.8 M134.8,449.3h-45v45h45V449.3L134.8,449.3z"/>
		</g>
	</g>
	<g class="st0">
		<g>
			<rect x="135.3" y="449.8" class="st1" width="44" height="44"/>
			<path class="st2" d="M178.8,450.3v43h-43v-43H178.8 M179.8,449.3h-45v45h45V449.3L179.8,449.3z"/>
		</g>
	</g>
	<g class="st0">
		<g>
			<rect x="180.3" y="449.8" class="st1" width="44" height="44"/>
			<path class="st2" d="M223.8,450.3v43h-43v-43H223.8 M224.8,449.3h-45v45h45V449.3L224.8,449.3z"/>
		</g>
	</g>
	<g class="st0">
		<g>
			<rect x="225.3" y="449.8" class="st1" width="44" height="44"/>
			<path class="st2" d="M268.8,450.3v43h-43v-43H268.8 M269.8,449.3h-45v45h45V449.3L269.8,449.3z"/>
		</g>
	</g>
	<g class="st0">
		<g>
			<rect x="270.3" y="449.8" class="st1" width="44" height="44"/>
			<path class="st2" d="M313.8,450.3v43h-43v-43H313.8 M314.8,449.3h-45v45h45V449.3L314.8,449.3z"/>
		</g>
	</g>
	<g class="st0">
		<g>
			<rect x="315.3" y="449.8" class="st1" width="44" height="44"/>
			<path class="st2" d="M358.8,450.3v43h-43v-43H358.8 M359.8,449.3h-45v45h45V449.3L359.8,449.3z"/>
		</g>
	</g>
	<g class="st0">
		<g>
			<rect x="360.3" y="449.8" class="st1" width="44" height="44"/>
			<path class="st2" d="M403.8,450.3v43h-43v-43H403.8 M404.8,449.3h-45v45h45V449.3L404.8,449.3z"/>
		</g>
	</g>
	<g class="st0">
		<g>
			<rect x="405.3" y="449.8" class="st1" width="44" height="44"/>
			<path class="st2" d="M448.8,450.3v43h-43v-43H448.8 M449.8,449.3h-45v45h45V449.3L449.8,449.3z"/>
		</g>
	</g>
	<g class="st0">
		<g>
			<rect x="450.3" y="449.8" class="st1" width="44" height="44"/>
			<path class="st2" d="M493.8,450.3v43h-43v-43H493.8 M494.8,449.3h-45v45h45V449.3L494.8,449.3z"/>
		</g>
	</g>
	<g class="st0">
		<g>
			<rect x="495.3" y="449.8" class="st1" width="44" height="44"/>
			<path class="st2" d="M538.8,450.3v43h-43v-43H538.8 M539.8,449.3h-45v45h45V449.3L539.8,449.3z"/>
		</g>
	</g>
	<g class="st0">
		<g>
			<rect x="540.3" y="449.8" class="st1" width="44" height="44"/>
			<path class="st2" d="M583.8,450.3v43h-43v-43H583.8 M584.8,449.3h-45v45h45V449.3L584.8,449.3z"/>
		</g>
	</g>
	<g class="st0">
		<g>
			<rect x="45.3" y="494.8" class="st1" width="44" height="44"/>
			<path class="st2" d="M88.8,495.3v43h-43v-43H88.8 M89.8,494.3h-45v45h45V494.3L89.8,494.3z"/>
		</g>
	</g>
	<g class="st0">
		<g>
			<rect x="90.3" y="494.8" class="st1" width="44" height="44"/>
			<path class="st2" d="M133.8,495.3v43h-43v-43H133.8 M134.8,494.3h-45v45h45V494.3L134.8,494.3z"/>
		</g>
	</g>
	<g class="st0">
		<g>
			<rect x="135.3" y="494.8" class="st1" width="44" height="44"/>
			<path class="st2" d="M178.8,495.3v43h-43v-43H178.8 M179.8,494.3h-45v45h45V494.3L179.8,494.3z"/>
		</g>
	</g>
	<g class="st0">
		<g>
			<rect x="180.3" y="494.8" class="st1" width="44" height="44"/>
			<path class="st2" d="M223.8,495.3v43h-43v-43H223.8 M224.8,494.3h-45v45h45V494.3L224.8,494.3z"/>
		</g>
	</g>
	<g class="st0">
		<g>
			<rect x="225.3" y="494.8" class="st1" width="44" height="44"/>
			<path class="st2" d="M268.8,495.3v43h-43v-43H268.8 M269.8,494.3h-45v45h45V494.3L269.8,494.3z"/>
		</g>
	</g>
	<g class="st0">
		<g>
			<rect x="270.3" y="494.8" class="st1" width="44" height="44"/>
			<path class="st2" d="M313.8,495.3v43h-43v-43H313.8 M314.8,494.3h-45v45h45V494.3L314.8,494.3z"/>
		</g>
	</g>
	<g class="st0">
		<g>
			<rect x="315.3" y="494.8" class="st1" width="44" height="44"/>
			<path class="st2" d="M358.8,495.3v43h-43v-43H358.8 M359.8,494.3h-45v45h45V494.3L359.8,494.3z"/>
		</g>
	</g>
	<g class="st0">
		<g>
			<rect x="360.3" y="494.8" class="st1" width="44" height="44"/>
			<path class="st2" d="M403.8,495.3v43h-43v-43H403.8 M404.8,494.3h-45v45h45V494.3L404.8,494.3z"/>
		</g>
	</g>
	<g class="st0">
		<g>
			<rect x="405.3" y="494.8" class="st1" width="44" height="44"/>
			<path class="st2" d="M448.8,495.3v43h-43v-43H448.8 M449.8,494.3h-45v45h45V494.3L449.8,494.3z"/>
		</g>
	</g>
	<g class="st0">
		<g>
			<rect x="450.3" y="494.8" class="st1" width="44" height="44"/>
			<path class="st2" d="M493.8,495.3v43h-43v-43H493.8 M494.8,494.3h-45v45h45V494.3L494.8,494.3z"/>
		</g>
	</g>
	<g class="st0">
		<g>
			<rect x="495.3" y="494.8" class="st1" width="44" height="44"/>
			<path class="st2" d="M538.8,495.3v43h-43v-43H538.8 M539.8,494.3h-45v45h45V494.3L539.8,494.3z"/>
		</g>
	</g>
	<g class="st0">
		<g>
			<rect x="540.3" y="494.8" class="st1" width="44" height="44"/>
			<path class="st2" d="M583.8,495.3v43h-43v-43H583.8 M584.8,494.3h-45v45h45V494.3L584.8,494.3z"/>
		</g>
	</g>
	<g class="st0">
		<g>
			<rect x="45.3" y="539.8" class="st1" width="44" height="44"/>
			<path class="st2" d="M88.8,540.3v43h-43v-43H88.8 M89.8,539.3h-45v45h45V539.3L89.8,539.3z"/>
		</g>
	</g>
	<g class="st0">
		<g>
			<rect x="90.3" y="539.8" class="st1" width="44" height="44"/>
			<path class="st2" d="M133.8,540.3v43h-43v-43H133.8 M134.8,539.3h-45v45h45V539.3L134.8,539.3z"/>
		</g>
	</g>
	<g class="st0">
		<g>
			<rect x="135.3" y="539.8" class="st1" width="44" height="44"/>
			<path class="st2" d="M178.8,540.3v43h-43v-43H178.8 M179.8,539.3h-45v45h45V539.3L179.8,539.3z"/>
		</g>
	</g>
	<g class="st0">
		<g>
			<rect x="180.3" y="539.8" class="st1" width="44" height="44"/>
			<path class="st2" d="M223.8,540.3v43h-43v-43H223.8 M224.8,539.3h-45v45h45V539.3L224.8,539.3z"/>
		</g>
	</g>
	<g class="st0">
		<g>
			<rect x="225.3" y="539.8" class="st1" width="44" height="44"/>
			<path class="st2" d="M268.8,540.3v43h-43v-43H268.8 M269.8,539.3h-45v45h45V539.3L269.8,539.3z"/>
		</g>
	</g>
	<g class="st0">
		<g>
			<rect x="270.3" y="539.8" class="st1" width="44" height="44"/>
			<path class="st2" d="M313.8,540.3v43h-43v-43H313.8 M314.8,539.3h-45v45h45V539.3L314.8,539.3z"/>
		</g>
	</g>
	<g class="st0">
		<g>
			<rect x="315.3" y="539.8" class="st1" width="44" height="44"/>
			<path class="st2" d="M358.8,540.3v43h-43v-43H358.8 M359.8,539.3h-45v45h45V539.3L359.8,539.3z"/>
		</g>
	</g>
	<g class="st0">
		<g>
			<rect x="360.3" y="539.8" class="st1" width="44" height="44"/>
			<path class="st2" d="M403.8,540.3v43h-43v-43H403.8 M404.8,539.3h-45v45h45V539.3L404.8,539.3z"/>
		</g>
	</g>
	<g class="st0">
		<g>
			<rect x="405.3" y="539.8" class="st1" width="44" height="44"/>
			<path class="st2" d="M448.8,540.3v43h-43v-43H448.8 M449.8,539.3h-45v45h45V539.3L449.8,539.3z"/>
		</g>
	</g>
	<g class="st0">
		<g>
			<rect x="450.3" y="539.8" class="st1" width="44" height="44"/>
			<path class="st2" d="M493.8,540.3v43h-43v-43H493.8 M494.8,539.3h-45v45h45V539.3L494.8,539.3z"/>
		</g>
	</g>
	<g class="st0">
		<g>
			<rect x="495.3" y="539.8" class="st1" width="44" height="44"/>
			<path class="st2" d="M538.8,540.3v43h-43v-43H538.8 M539.8,539.3h-45v45h45V539.3L539.8,539.3z"/>
		</g>
	</g>
	<g class="st0">
		<g>
			<rect x="540.3" y="539.8" class="st1" width="44" height="44"/>
			<path class="st2" d="M583.8,540.3v43h-43v-43H583.8 M584.8,539.3h-45v45h45V539.3L584.8,539.3z"/>
		</g>
	</g>
	<g class="st0">
		<g>
			<rect x="45.3" y="584.8" class="st1" width="44" height="44"/>
			<path class="st2" d="M88.8,585.3v43h-43v-43H88.8 M89.8,584.3h-45v45h45V584.3L89.8,584.3z"/>
		</g>
	</g>
	<g class="st0">
		<g>
			<rect x="90.3" y="584.8" class="st1" width="44" height="44"/>
			<path class="st2" d="M133.8,585.3v43h-43v-43H133.8 M134.8,584.3h-45v45h45V584.3L134.8,584.3z"/>
		</g>
	</g>
	<g class="st0">
		<g>
			<rect x="135.3" y="584.8" class="st1" width="44" height="44"/>
			<path class="st2" d="M178.8,585.3v43h-43v-43H178.8 M179.8,584.3h-45v45h45V584.3L179.8,584.3z"/>
		</g>
	</g>
	<g class="st0">
		<g>
			<rect x="180.3" y="584.8" class="st1" width="44" height="44"/>
			<path class="st2" d="M223.8,585.3v43h-43v-43H223.8 M224.8,584.3h-45v45h45V584.3L224.8,584.3z"/>
		</g>
	</g>
	<g class="st0">
		<g>
			<rect x="225.3" y="584.8" class="st1" width="44" height="44"/>
			<path class="st2" d="M268.8,585.3v43h-43v-43H268.8 M269.8,584.3h-45v45h45V584.3L269.8,584.3z"/>
		</g>
	</g>
	<g class="st0">
		<g>
			<rect x="270.3" y="584.8" class="st1" width="44" height="44"/>
			<path class="st2" d="M313.8,585.3v43h-43v-43H313.8 M314.8,584.3h-45v45h45V584.3L314.8,584.3z"/>
		</g>
	</g>
	<g class="st0">
		<g>
			<rect x="315.3" y="584.8" class="st1" width="44" height="44"/>
			<path class="st2" d="M358.8,585.3v43h-43v-43H358.8 M359.8,584.3h-45v45h45V584.3L359.8,584.3z"/>
		</g>
	</g>
	<g class="st0">
		<g>
			<rect x="360.3" y="584.8" class="st1" width="44" height="44"/>
			<path class="st2" d="M403.8,585.3v43h-43v-43H403.8 M404.8,584.3h-45v45h45V584.3L404.8,584.3z"/>
		</g>
	</g>
	<g class="st0">
		<g>
			<rect x="405.3" y="584.8" class="st1" width="44" height="44"/>
			<path class="st2" d="M448.8,585.3v43h-43v-43H448.8 M449.8,584.3h-45v45h45V584.3L449.8,584.3z"/>
		</g>
	</g>
	<g class="st0">
		<g>
			<rect x="450.3" y="584.8" class="st1" width="44" height="44"/>
			<path class="st2" d="M493.8,585.3v43h-43v-43H493.8 M494.8,584.3h-45v45h45V584.3L494.8,584.3z"/>
		</g>
	</g>
	<g class="st0">
		<g>
			<rect x="495.3" y="584.8" class="st1" width="44" height="44"/>
			<path class="st2" d="M538.8,585.3v43h-43v-43H538.8 M539.8,584.3h-45v45h45V584.3L539.8,584.3z"/>
		</g>
	</g>
	<g class="st0">
		<g>
			<rect x="540.3" y="584.8" class="st1" width="44" height="44"/>
			<path class="st2" d="M583.8,585.3v43h-43v-43H583.8 M584.8,584.3h-45v45h45V584.3L584.8,584.3z"/>
		</g>
	</g>
	<g class="st0">
		<g>
			<rect x="45.3" y="629.8" class="st1" width="44" height="44"/>
			<path class="st2" d="M88.8,630.3v43h-43v-43H88.8 M89.8,629.3h-45v45h45V629.3L89.8,629.3z"/>
		</g>
	</g>
	<g class="st0">
		<g>
			<rect x="90.3" y="629.8" class="st1" width="44" height="44"/>
			<path class="st2" d="M133.8,630.3v43h-43v-43H133.8 M134.8,629.3h-45v45h45V629.3L134.8,629.3z"/>
		</g>
	</g>
	<g class="st0">
		<g>
			<rect x="135.3" y="629.8" class="st1" width="44" height="44"/>
			<path class="st2" d="M178.8,630.3v43h-43v-43H178.8 M179.8,629.3h-45v45h45V629.3L179.8,629.3z"/>
		</g>
	</g>
	<g class="st0">
		<g>
			<rect x="180.3" y="629.8" class="st1" width="44" height="44"/>
			<path class="st2" d="M223.8,630.3v43h-43v-43H223.8 M224.8,629.3h-45v45h45V629.3L224.8,629.3z"/>
		</g>
	</g>
	<g class="st0">
		<g>
			<rect x="225.3" y="629.8" class="st1" width="44" height="44"/>
			<path class="st2" d="M268.8,630.3v43h-43v-43H268.8 M269.8,629.3h-45v45h45V629.3L269.8,629.3z"/>
		</g>
	</g>
	<g class="st0">
		<g>
			<rect x="270.3" y="629.8" class="st1" width="44" height="44"/>
			<path class="st2" d="M313.8,630.3v43h-43v-43H313.8 M314.8,629.3h-45v45h45V629.3L314.8,629.3z"/>
		</g>
	</g>
	<g class="st0">
		<g>
			<rect x="315.3" y="629.8" class="st1" width="44" height="44"/>
			<path class="st2" d="M358.8,630.3v43h-43v-43H358.8 M359.8,629.3h-45v45h45V629.3L359.8,629.3z"/>
		</g>
	</g>
	<g class="st0">
		<g>
			<rect x="360.3" y="629.8" class="st1" width="44" height="44"/>
			<path class="st2" d="M403.8,630.3v43h-43v-43H403.8 M404.8,629.3h-45v45h45V629.3L404.8,629.3z"/>
		</g>
	</g>
	<g class="st0">
		<g>
			<rect x="405.3" y="629.8" class="st1" width="44" height="44"/>
			<path class="st2" d="M448.8,630.3v43h-43v-43H448.8 M449.8,629.3h-45v45h45V629.3L449.8,629.3z"/>
		</g>
	</g>
	<g class="st0">
		<g>
			<rect x="450.3" y="629.8" class="st1" width="44" height="44"/>
			<path class="st2" d="M493.8,630.3v43h-43v-43H493.8 M494.8,629.3h-45v45h45V629.3L494.8,629.3z"/>
		</g>
	</g>
	<g class="st0">
		<g>
			<rect x="495.3" y="629.8" class="st1" width="44" height="44"/>
			<path class="st2" d="M538.8,630.3v43h-43v-43H538.8 M539.8,629.3h-45v45h45V629.3L539.8,629.3z"/>
		</g>
	</g>
	<g class="st0">
		<g>
			<rect x="540.3" y="629.8" class="st1" width="44" height="44"/>
			<path class="st2" d="M583.8,630.3v43h-43v-43H583.8 M584.8,629.3h-45v45h45V629.3L584.8,629.3z"/>
		</g>
	</g>
	<g class="st0">
		<g>
			<rect x="45.3" y="674.8" class="st1" width="44" height="44"/>
			<path class="st2" d="M88.8,675.3v43h-43v-43H88.8 M89.8,674.3h-45v45h45V674.3L89.8,674.3z"/>
		</g>
	</g>
	<g class="st0">
		<g>
			<rect x="90.3" y="674.8" class="st1" width="44" height="44"/>
			<path class="st2" d="M133.8,675.3v43h-43v-43H133.8 M134.8,674.3h-45v45h45V674.3L134.8,674.3z"/>
		</g>
	</g>
	<g class="st0">
		<g>
			<rect x="135.3" y="674.8" class="st1" width="44" height="44"/>
			<path class="st2" d="M178.8,675.3v43h-43v-43H178.8 M179.8,674.3h-45v45h45V674.3L179.8,674.3z"/>
		</g>
	</g>
	<g class="st0">
		<g>
			<rect x="180.3" y="674.8" class="st1" width="44" height="44"/>
			<path class="st2" d="M223.8,675.3v43h-43v-43H223.8 M224.8,674.3h-45v45h45V674.3L224.8,674.3z"/>
		</g>
	</g>
	<g class="st0">
		<g>
			<rect x="225.3" y="674.8" class="st1" width="44" height="44"/>
			<path class="st2" d="M268.8,675.3v43h-43v-43H268.8 M269.8,674.3h-45v45h45V674.3L269.8,674.3z"/>
		</g>
	</g>
	<g class="st0">
		<g>
			<rect x="270.3" y="674.8" class="st1" width="44" height="44"/>
			<path class="st2" d="M313.8,675.3v43h-43v-43H313.8 M314.8,674.3h-45v45h45V674.3L314.8,674.3z"/>
		</g>
	</g>
	<g class="st0">
		<g>
			<rect x="315.3" y="674.8" class="st1" width="44" height="44"/>
			<path class="st2" d="M358.8,675.3v43h-43v-43H358.8 M359.8,674.3h-45v45h45V674.3L359.8,674.3z"/>
		</g>
	</g>
	<g class="st0">
		<g>
			<rect x="360.3" y="674.8" class="st1" width="44" height="44"/>
			<path class="st2" d="M403.8,675.3v43h-43v-43H403.8 M404.8,674.3h-45v45h45V674.3L404.8,674.3z"/>
		</g>
	</g>
	<g class="st0">
		<g>
			<rect x="405.3" y="674.8" class="st1" width="44" height="44"/>
			<path class="st2" d="M448.8,675.3v43h-43v-43H448.8 M449.8,674.3h-45v45h45V674.3L449.8,674.3z"/>
		</g>
	</g>
	<g class="st0">
		<g>
			<rect x="450.3" y="674.8" class="st1" width="44" height="44"/>
			<path class="st2" d="M493.8,675.3v43h-43v-43H493.8 M494.8,674.3h-45v45h45V674.3L494.8,674.3z"/>
		</g>
	</g>
	<g class="st0">
		<g>
			<rect x="495.3" y="674.8" class="st1" width="44" height="44"/>
			<path class="st2" d="M538.8,675.3v43h-43v-43H538.8 M539.8,674.3h-45v45h45V674.3L539.8,674.3z"/>
		</g>
	</g>
	<g class="st0">
		<g>
			<rect x="540.3" y="674.8" class="st1" width="44" height="44"/>
			<path class="st2" d="M583.8,675.3v43h-43v-43H583.8 M584.8,674.3h-45v45h45V674.3L584.8,674.3z"/>
		</g>
	</g>
	<g class="st0">
		<g>
			<rect x="1485.3" y="134.8" class="st1" width="44" height="44"/>
			<path class="st2" d="M1528.8,135.3v43h-43v-43H1528.8 M1529.8,134.3h-45v45h45V134.3L1529.8,134.3z"/>
		</g>
	</g>
	<g class="st0">
		<g>
			<rect x="1530.3" y="134.8" class="st1" width="44" height="44"/>
			<path class="st2" d="M1573.8,135.3v43h-43v-43H1573.8 M1574.8,134.3h-45v45h45V134.3L1574.8,134.3z"/>
		</g>
	</g>
	<g class="st0">
		<g>
			<rect x="1575.3" y="134.8" class="st1" width="44" height="44"/>
			<path class="st2" d="M1618.8,135.3v43h-43v-43H1618.8 M1619.8,134.3h-45v45h45V134.3L1619.8,134.3z"/>
		</g>
	</g>
	<g class="st0">
		<g>
			<rect x="1620.3" y="134.8" class="st1" width="44" height="44"/>
			<path class="st2" d="M1663.8,135.3v43h-43v-43H1663.8 M1664.8,134.3h-45v45h45V134.3L1664.8,134.3z"/>
		</g>
	</g>
	<g class="st0">
		<g>
			<rect x="1665.3" y="134.8" class="st1" width="44" height="44"/>
			<path class="st2" d="M1708.8,135.3v43h-43v-43H1708.8 M1709.8,134.3h-45v45h45V134.3L1709.8,134.3z"/>
		</g>
	</g>
	<g class="st0">
		<g>
			<rect x="1710.3" y="134.8" class="st1" width="44" height="44"/>
			<path class="st2" d="M1753.8,135.3v43h-43v-43H1753.8 M1754.8,134.3h-45v45h45V134.3L1754.8,134.3z"/>
		</g>
	</g>
	<g class="st0">
		<g>
			<rect x="1755.3" y="134.8" class="st1" width="44" height="44"/>
			<path class="st2" d="M1798.8,135.3v43h-43v-43H1798.8 M1799.8,134.3h-45v45h45V134.3L1799.8,134.3z"/>
		</g>
	</g>
	<g class="st0">
		<g>
			<rect x="1800.3" y="134.8" class="st1" width="44" height="44"/>
			<path class="st2" d="M1843.8,135.3v43h-43v-43H1843.8 M1844.8,134.3h-45v45h45V134.3L1844.8,134.3z"/>
		</g>
	</g>
	<g class="st0">
		<g>
			<rect x="1845.3" y="134.8" class="st1" width="44" height="44"/>
			<path class="st2" d="M1888.8,135.3v43h-43v-43H1888.8 M1889.8,134.3h-45v45h45V134.3L1889.8,134.3z"/>
		</g>
	</g>
	<g class="st0">
		<g>
			<rect x="1890.3" y="134.8" class="st1" width="44" height="44"/>
			<path class="st2" d="M1933.8,135.3v43h-43v-43H1933.8 M1934.8,134.3h-45v45h45V134.3L1934.8,134.3z"/>
		</g>
	</g>
	<g class="st0">
		<g>
			<rect x="1935.3" y="134.8" class="st1" width="44" height="44"/>
			<path class="st2" d="M1978.8,135.3v43h-43v-43H1978.8 M1979.8,134.3h-45v45h45V134.3L1979.8,134.3z"/>
		</g>
	</g>
	<g class="st0">
		<g>
			<rect x="1980.3" y="134.8" class="st1" width="44" height="44"/>
			<path class="st2" d="M2023.8,135.3v43h-43v-43H2023.8 M2024.8,134.3h-45v45h45V134.3L2024.8,134.3z"/>
		</g>
	</g>
	<g class="st0">
		<g>
			<rect x="1485.3" y="179.8" class="st1" width="44" height="44"/>
			<path class="st2" d="M1528.8,180.3v43h-43v-43H1528.8 M1529.8,179.3h-45v45h45V179.3L1529.8,179.3z"/>
		</g>
	</g>
	<g class="st0">
		<g>
			<rect x="1530.3" y="179.8" class="st1" width="44" height="44"/>
			<path class="st2" d="M1573.8,180.3v43h-43v-43H1573.8 M1574.8,179.3h-45v45h45V179.3L1574.8,179.3z"/>
		</g>
	</g>
	<g class="st0">
		<g>
			<rect x="1575.3" y="179.8" class="st1" width="44" height="44"/>
			<path class="st2" d="M1618.8,180.3v43h-43v-43H1618.8 M1619.8,179.3h-45v45h45V179.3L1619.8,179.3z"/>
		</g>
	</g>
	<g class="st0">
		<g>
			<rect x="1620.3" y="179.8" class="st1" width="44" height="44"/>
			<path class="st2" d="M1663.8,180.3v43h-43v-43H1663.8 M1664.8,179.3h-45v45h45V179.3L1664.8,179.3z"/>
		</g>
	</g>
	<g class="st0">
		<g>
			<rect x="1665.3" y="179.8" class="st1" width="44" height="44"/>
			<path class="st2" d="M1708.8,180.3v43h-43v-43H1708.8 M1709.8,179.3h-45v45h45V179.3L1709.8,179.3z"/>
		</g>
	</g>
	<g class="st0">
		<g>
			<rect x="1710.3" y="179.8" class="st1" width="44" height="44"/>
			<path class="st2" d="M1753.8,180.3v43h-43v-43H1753.8 M1754.8,179.3h-45v45h45V179.3L1754.8,179.3z"/>
		</g>
	</g>
	<g class="st0">
		<g>
			<rect x="1755.3" y="179.8" class="st1" width="44" height="44"/>
			<path class="st2" d="M1798.8,180.3v43h-43v-43H1798.8 M1799.8,179.3h-45v45h45V179.3L1799.8,179.3z"/>
		</g>
	</g>
	<g class="st0">
		<g>
			<rect x="1800.3" y="179.8" class="st1" width="44" height="44"/>
			<path class="st2" d="M1843.8,180.3v43h-43v-43H1843.8 M1844.8,179.3h-45v45h45V179.3L1844.8,179.3z"/>
		</g>
	</g>
	<g class="st0">
		<g>
			<rect x="1845.3" y="179.8" class="st1" width="44" height="44"/>
			<path class="st2" d="M1888.8,180.3v43h-43v-43H1888.8 M1889.8,179.3h-45v45h45V179.3L1889.8,179.3z"/>
		</g>
	</g>
	<g class="st0">
		<g>
			<rect x="1890.3" y="179.8" class="st1" width="44" height="44"/>
			<path class="st2" d="M1933.8,180.3v43h-43v-43H1933.8 M1934.8,179.3h-45v45h45V179.3L1934.8,179.3z"/>
		</g>
	</g>
	<g class="st0">
		<g>
			<rect x="1935.3" y="179.8" class="st1" width="44" height="44"/>
			<path class="st2" d="M1978.8,180.3v43h-43v-43H1978.8 M1979.8,179.3h-45v45h45V179.3L1979.8,179.3z"/>
		</g>
	</g>
	<g class="st0">
		<g>
			<rect x="1980.3" y="179.8" class="st1" width="44" height="44"/>
			<path class="st2" d="M2023.8,180.3v43h-43v-43H2023.8 M2024.8,179.3h-45v45h45V179.3L2024.8,179.3z"/>
		</g>
	</g>
	<g class="st0">
		<g>
			<rect x="1485.3" y="224.8" class="st1" width="44" height="44"/>
			<path class="st2" d="M1528.8,225.3v43h-43v-43H1528.8 M1529.8,224.3h-45v45h45V224.3L1529.8,224.3z"/>
		</g>
	</g>
	<g class="st0">
		<g>
			<rect x="1530.3" y="224.8" class="st1" width="44" height="44"/>
			<path class="st2" d="M1573.8,225.3v43h-43v-43H1573.8 M1574.8,224.3h-45v45h45V224.3L1574.8,224.3z"/>
		</g>
	</g>
	<g class="st0">
		<g>
			<rect x="1575.3" y="224.8" class="st1" width="44" height="44"/>
			<path class="st2" d="M1618.8,225.3v43h-43v-43H1618.8 M1619.8,224.3h-45v45h45V224.3L1619.8,224.3z"/>
		</g>
	</g>
	<g class="st0">
		<g>
			<rect x="1620.3" y="224.8" class="st1" width="44" height="44"/>
			<path class="st2" d="M1663.8,225.3v43h-43v-43H1663.8 M1664.8,224.3h-45v45h45V224.3L1664.8,224.3z"/>
		</g>
	</g>
	<g class="st0">
		<g>
			<rect x="1665.3" y="224.8" class="st1" width="44" height="44"/>
			<path class="st2" d="M1708.8,225.3v43h-43v-43H1708.8 M1709.8,224.3h-45v45h45V224.3L1709.8,224.3z"/>
		</g>
	</g>
	<g class="st0">
		<g>
			<rect x="1710.3" y="224.8" class="st1" width="44" height="44"/>
			<path class="st2" d="M1753.8,225.3v43h-43v-43H1753.8 M1754.8,224.3h-45v45h45V224.3L1754.8,224.3z"/>
		</g>
	</g>
	<g class="st0">
		<g>
			<rect x="1755.3" y="224.8" class="st1" width="44" height="44"/>
			<path class="st2" d="M1798.8,225.3v43h-43v-43H1798.8 M1799.8,224.3h-45v45h45V224.3L1799.8,224.3z"/>
		</g>
	</g>
	<g class="st0">
		<g>
			<rect x="1800.3" y="224.8" class="st1" width="44" height="44"/>
			<path class="st2" d="M1843.8,225.3v43h-43v-43H1843.8 M1844.8,224.3h-45v45h45V224.3L1844.8,224.3z"/>
		</g>
	</g>
	<g class="st0">
		<g>
			<rect x="1845.3" y="224.8" class="st1" width="44" height="44"/>
			<path class="st2" d="M1888.8,225.3v43h-43v-43H1888.8 M1889.8,224.3h-45v45h45V224.3L1889.8,224.3z"/>
		</g>
	</g>
	<g class="st0">
		<g>
			<rect x="1890.3" y="224.8" class="st1" width="44" height="44"/>
			<path class="st2" d="M1933.8,225.3v43h-43v-43H1933.8 M1934.8,224.3h-45v45h45V224.3L1934.8,224.3z"/>
		</g>
	</g>
	<g class="st0">
		<g>
			<rect x="1935.3" y="224.8" class="st1" width="44" height="44"/>
			<path class="st2" d="M1978.8,225.3v43h-43v-43H1978.8 M1979.8,224.3h-45v45h45V224.3L1979.8,224.3z"/>
		</g>
	</g>
	<g class="st0">
		<g>
			<rect x="1980.3" y="224.8" class="st1" width="44" height="44"/>
			<path class="st2" d="M2023.8,225.3v43h-43v-43H2023.8 M2024.8,224.3h-45v45h45V224.3L2024.8,224.3z"/>
		</g>
	</g>
	<g class="st0">
		<g>
			<rect x="1485.3" y="269.8" class="st1" width="44" height="44"/>
			<path class="st2" d="M1528.8,270.3v43h-43v-43H1528.8 M1529.8,269.3h-45v45h45V269.3L1529.8,269.3z"/>
		</g>
	</g>
	<g class="st0">
		<g>
			<rect x="1530.3" y="269.8" class="st1" width="44" height="44"/>
			<path class="st2" d="M1573.8,270.3v43h-43v-43H1573.8 M1574.8,269.3h-45v45h45V269.3L1574.8,269.3z"/>
		</g>
	</g>
	<g class="st0">
		<g>
			<rect x="1575.3" y="269.8" class="st1" width="44" height="44"/>
			<path class="st2" d="M1618.8,270.3v43h-43v-43H1618.8 M1619.8,269.3h-45v45h45V269.3L1619.8,269.3z"/>
		</g>
	</g>
	<g class="st0">
		<g>
			<rect x="1620.3" y="269.8" class="st1" width="44" height="44"/>
			<path class="st2" d="M1663.8,270.3v43h-43v-43H1663.8 M1664.8,269.3h-45v45h45V269.3L1664.8,269.3z"/>
		</g>
	</g>
	<g class="st0">
		<g>
			<rect x="1665.3" y="269.8" class="st1" width="44" height="44"/>
			<path class="st2" d="M1708.8,270.3v43h-43v-43H1708.8 M1709.8,269.3h-45v45h45V269.3L1709.8,269.3z"/>
		</g>
	</g>
	<g class="st0">
		<g>
			<rect x="1710.3" y="269.8" class="st1" width="44" height="44"/>
			<path class="st2" d="M1753.8,270.3v43h-43v-43H1753.8 M1754.8,269.3h-45v45h45V269.3L1754.8,269.3z"/>
		</g>
	</g>
	<g class="st0">
		<g>
			<rect x="1755.3" y="269.8" class="st1" width="44" height="44"/>
			<path class="st2" d="M1798.8,270.3v43h-43v-43H1798.8 M1799.8,269.3h-45v45h45V269.3L1799.8,269.3z"/>
		</g>
	</g>
	<g class="st0">
		<g>
			<rect x="1800.3" y="269.8" class="st1" width="44" height="44"/>
			<path class="st2" d="M1843.8,270.3v43h-43v-43H1843.8 M1844.8,269.3h-45v45h45V269.3L1844.8,269.3z"/>
		</g>
	</g>
	<g class="st0">
		<g>
			<rect x="1845.3" y="269.8" class="st1" width="44" height="44"/>
			<path class="st2" d="M1888.8,270.3v43h-43v-43H1888.8 M1889.8,269.3h-45v45h45V269.3L1889.8,269.3z"/>
		</g>
	</g>
	<g class="st0">
		<g>
			<rect x="1890.3" y="269.8" class="st1" width="44" height="44"/>
			<path class="st2" d="M1933.8,270.3v43h-43v-43H1933.8 M1934.8,269.3h-45v45h45V269.3L1934.8,269.3z"/>
		</g>
	</g>
	<g class="st0">
		<g>
			<rect x="1935.3" y="269.8" class="st1" width="44" height="44"/>
			<path class="st2" d="M1978.8,270.3v43h-43v-43H1978.8 M1979.8,269.3h-45v45h45V269.3L1979.8,269.3z"/>
		</g>
	</g>
	<g class="st0">
		<g>
			<rect x="1980.3" y="269.8" class="st1" width="44" height="44"/>
			<path class="st2" d="M2023.8,270.3v43h-43v-43H2023.8 M2024.8,269.3h-45v45h45V269.3L2024.8,269.3z"/>
		</g>
	</g>
	<g class="st0">
		<g>
			<rect x="1485.3" y="314.8" class="st1" width="44" height="44"/>
			<path class="st2" d="M1528.8,315.3v43h-43v-43H1528.8 M1529.8,314.3h-45v45h45V314.3L1529.8,314.3z"/>
		</g>
	</g>
	<g class="st0">
		<g>
			<rect x="1530.3" y="314.8" class="st1" width="44" height="44"/>
			<path class="st2" d="M1573.8,315.3v43h-43v-43H1573.8 M1574.8,314.3h-45v45h45V314.3L1574.8,314.3z"/>
		</g>
	</g>
	<g class="st0">
		<g>
			<rect x="1575.3" y="314.8" class="st1" width="44" height="44"/>
			<path class="st2" d="M1618.8,315.3v43h-43v-43H1618.8 M1619.8,314.3h-45v45h45V314.3L1619.8,314.3z"/>
		</g>
	</g>
	<g class="st0">
		<g>
			<rect x="1620.3" y="314.8" class="st1" width="44" height="44"/>
			<path class="st2" d="M1663.8,315.3v43h-43v-43H1663.8 M1664.8,314.3h-45v45h45V314.3L1664.8,314.3z"/>
		</g>
	</g>
	<g class="st0">
		<g>
			<rect x="1665.3" y="314.8" class="st1" width="44" height="44"/>
			<path class="st2" d="M1708.8,315.3v43h-43v-43H1708.8 M1709.8,314.3h-45v45h45V314.3L1709.8,314.3z"/>
		</g>
	</g>
	<g class="st0">
		<g>
			<rect x="1710.3" y="314.8" class="st1" width="44" height="44"/>
			<path class="st2" d="M1753.8,315.3v43h-43v-43H1753.8 M1754.8,314.3h-45v45h45V314.3L1754.8,314.3z"/>
		</g>
	</g>
	<g class="st0">
		<g>
			<rect x="1755.3" y="314.8" class="st1" width="44" height="44"/>
			<path class="st2" d="M1798.8,315.3v43h-43v-43H1798.8 M1799.8,314.3h-45v45h45V314.3L1799.8,314.3z"/>
		</g>
	</g>
	<g class="st0">
		<g>
			<rect x="1800.3" y="314.8" class="st1" width="44" height="44"/>
			<path class="st2" d="M1843.8,315.3v43h-43v-43H1843.8 M1844.8,314.3h-45v45h45V314.3L1844.8,314.3z"/>
		</g>
	</g>
	<g class="st0">
		<g>
			<rect x="1845.3" y="314.8" class="st1" width="44" height="44"/>
			<path class="st2" d="M1888.8,315.3v43h-43v-43H1888.8 M1889.8,314.3h-45v45h45V314.3L1889.8,314.3z"/>
		</g>
	</g>
	<g class="st0">
		<g>
			<rect x="1890.3" y="314.8" class="st1" width="44" height="44"/>
			<path class="st2" d="M1933.8,315.3v43h-43v-43H1933.8 M1934.8,314.3h-45v45h45V314.3L1934.8,314.3z"/>
		</g>
	</g>
	<g class="st0">
		<g>
			<rect x="1935.3" y="314.8" class="st1" width="44" height="44"/>
			<path class="st2" d="M1978.8,315.3v43h-43v-43H1978.8 M1979.8,314.3h-45v45h45V314.3L1979.8,314.3z"/>
		</g>
	</g>
	<g class="st0">
		<g>
			<rect x="1980.3" y="314.8" class="st1" width="44" height="44"/>
			<path class="st2" d="M2023.8,315.3v43h-43v-43H2023.8 M2024.8,314.3h-45v45h45V314.3L2024.8,314.3z"/>
		</g>
	</g>
	<g class="st0">
		<g>
			<rect x="1485.3" y="359.8" class="st1" width="44" height="44"/>
			<path class="st2" d="M1528.8,360.3v43h-43v-43H1528.8 M1529.8,359.3h-45v45h45V359.3L1529.8,359.3z"/>
		</g>
	</g>
	<g class="st0">
		<g>
			<rect x="1530.3" y="359.8" class="st1" width="44" height="44"/>
			<path class="st2" d="M1573.8,360.3v43h-43v-43H1573.8 M1574.8,359.3h-45v45h45V359.3L1574.8,359.3z"/>
		</g>
	</g>
	<g class="st0">
		<g>
			<rect x="1575.3" y="359.8" class="st1" width="44" height="44"/>
			<path class="st2" d="M1618.8,360.3v43h-43v-43H1618.8 M1619.8,359.3h-45v45h45V359.3L1619.8,359.3z"/>
		</g>
	</g>
	<g class="st0">
		<g>
			<rect x="1620.3" y="359.8" class="st1" width="44" height="44"/>
			<path class="st2" d="M1663.8,360.3v43h-43v-43H1663.8 M1664.8,359.3h-45v45h45V359.3L1664.8,359.3z"/>
		</g>
	</g>
	<g class="st0">
		<g>
			<rect x="1665.3" y="359.8" class="st1" width="44" height="44"/>
			<path class="st2" d="M1708.8,360.3v43h-43v-43H1708.8 M1709.8,359.3h-45v45h45V359.3L1709.8,359.3z"/>
		</g>
	</g>
	<g class="st0">
		<g>
			<rect x="1710.3" y="359.8" class="st1" width="44" height="44"/>
			<path class="st2" d="M1753.8,360.3v43h-43v-43H1753.8 M1754.8,359.3h-45v45h45V359.3L1754.8,359.3z"/>
		</g>
	</g>
	<g class="st0">
		<g>
			<rect x="1755.3" y="359.8" class="st1" width="44" height="44"/>
			<path class="st2" d="M1798.8,360.3v43h-43v-43H1798.8 M1799.8,359.3h-45v45h45V359.3L1799.8,359.3z"/>
		</g>
	</g>
	<g class="st0">
		<g>
			<rect x="1800.3" y="359.8" class="st1" width="44" height="44"/>
			<path class="st2" d="M1843.8,360.3v43h-43v-43H1843.8 M1844.8,359.3h-45v45h45V359.3L1844.8,359.3z"/>
		</g>
	</g>
	<g class="st0">
		<g>
			<rect x="1845.3" y="359.8" class="st1" width="44" height="44"/>
			<path class="st2" d="M1888.8,360.3v43h-43v-43H1888.8 M1889.8,359.3h-45v45h45V359.3L1889.8,359.3z"/>
		</g>
	</g>
	<g class="st0">
		<g>
			<rect x="1890.3" y="359.8" class="st1" width="44" height="44"/>
			<path class="st2" d="M1933.8,360.3v43h-43v-43H1933.8 M1934.8,359.3h-45v45h45V359.3L1934.8,359.3z"/>
		</g>
	</g>
	<g class="st0">
		<g>
			<rect x="1935.3" y="359.8" class="st1" width="44" height="44"/>
			<path class="st2" d="M1978.8,360.3v43h-43v-43H1978.8 M1979.8,359.3h-45v45h45V359.3L1979.8,359.3z"/>
		</g>
	</g>
	<g class="st0">
		<g>
			<rect x="1980.3" y="359.8" class="st1" width="44" height="44"/>
			<path class="st2" d="M2023.8,360.3v43h-43v-43H2023.8 M2024.8,359.3h-45v45h45V359.3L2024.8,359.3z"/>
		</g>
	</g>
	<g class="st0">
		<g>
			<rect x="1485.3" y="404.8" class="st1" width="44" height="44"/>
			<path class="st2" d="M1528.8,405.3v43h-43v-43H1528.8 M1529.8,404.3h-45v45h45V404.3L1529.8,404.3z"/>
		</g>
	</g>
	<g class="st0">
		<g>
			<rect x="1530.3" y="404.8" class="st1" width="44" height="44"/>
			<path class="st2" d="M1573.8,405.3v43h-43v-43H1573.8 M1574.8,404.3h-45v45h45V404.3L1574.8,404.3z"/>
		</g>
	</g>
	<g class="st0">
		<g>
			<rect x="1575.3" y="404.8" class="st1" width="44" height="44"/>
			<path class="st2" d="M1618.8,405.3v43h-43v-43H1618.8 M1619.8,404.3h-45v45h45V404.3L1619.8,404.3z"/>
		</g>
	</g>
	<g class="st0">
		<g>
			<rect x="1620.3" y="404.8" class="st1" width="44" height="44"/>
			<path class="st2" d="M1663.8,405.3v43h-43v-43H1663.8 M1664.8,404.3h-45v45h45V404.3L1664.8,404.3z"/>
		</g>
	</g>
	<g class="st0">
		<g>
			<rect x="1665.3" y="404.8" class="st1" width="44" height="44"/>
			<path class="st2" d="M1708.8,405.3v43h-43v-43H1708.8 M1709.8,404.3h-45v45h45V404.3L1709.8,404.3z"/>
		</g>
	</g>
	<g class="st0">
		<g>
			<rect x="1710.3" y="404.8" class="st1" width="44" height="44"/>
			<path class="st2" d="M1753.8,405.3v43h-43v-43H1753.8 M1754.8,404.3h-45v45h45V404.3L1754.8,404.3z"/>
		</g>
	</g>
	<g class="st0">
		<g>
			<rect x="1755.3" y="404.8" class="st1" width="44" height="44"/>
			<path class="st2" d="M1798.8,405.3v43h-43v-43H1798.8 M1799.8,404.3h-45v45h45V404.3L1799.8,404.3z"/>
		</g>
	</g>
	<g class="st0">
		<g>
			<rect x="1800.3" y="404.8" class="st1" width="44" height="44"/>
			<path class="st2" d="M1843.8,405.3v43h-43v-43H1843.8 M1844.8,404.3h-45v45h45V404.3L1844.8,404.3z"/>
		</g>
	</g>
	<g class="st0">
		<g>
			<rect x="1845.3" y="404.8" class="st1" width="44" height="44"/>
			<path class="st2" d="M1888.8,405.3v43h-43v-43H1888.8 M1889.8,404.3h-45v45h45V404.3L1889.8,404.3z"/>
		</g>
	</g>
	<g class="st0">
		<g>
			<rect x="1890.3" y="404.8" class="st1" width="44" height="44"/>
			<path class="st2" d="M1933.8,405.3v43h-43v-43H1933.8 M1934.8,404.3h-45v45h45V404.3L1934.8,404.3z"/>
		</g>
	</g>
	<g class="st0">
		<g>
			<rect x="1935.3" y="404.8" class="st1" width="44" height="44"/>
			<path class="st2" d="M1978.8,405.3v43h-43v-43H1978.8 M1979.8,404.3h-45v45h45V404.3L1979.8,404.3z"/>
		</g>
	</g>
	<g class="st0">
		<g>
			<rect x="1980.3" y="404.8" class="st1" width="44" height="44"/>
			<path class="st2" d="M2023.8,405.3v43h-43v-43H2023.8 M2024.8,404.3h-45v45h45V404.3L2024.8,404.3z"/>
		</g>
	</g>
	<g class="st0">
		<g>
			<rect x="1485.3" y="449.8" class="st1" width="44" height="44"/>
			<path class="st2" d="M1528.8,450.3v43h-43v-43H1528.8 M1529.8,449.3h-45v45h45V449.3L1529.8,449.3z"/>
		</g>
	</g>
	<g class="st0">
		<g>
			<rect x="1530.3" y="449.8" class="st1" width="44" height="44"/>
			<path class="st2" d="M1573.8,450.3v43h-43v-43H1573.8 M1574.8,449.3h-45v45h45V449.3L1574.8,449.3z"/>
		</g>
	</g>
	<g class="st0">
		<g>
			<rect x="1575.3" y="449.8" class="st1" width="44" height="44"/>
			<path class="st2" d="M1618.8,450.3v43h-43v-43H1618.8 M1619.8,449.3h-45v45h45V449.3L1619.8,449.3z"/>
		</g>
	</g>
	<g class="st0">
		<g>
			<rect x="1620.3" y="449.8" class="st1" width="44" height="44"/>
			<path class="st2" d="M1663.8,450.3v43h-43v-43H1663.8 M1664.8,449.3h-45v45h45V449.3L1664.8,449.3z"/>
		</g>
	</g>
	<g class="st0">
		<g>
			<rect x="1665.3" y="449.8" class="st1" width="44" height="44"/>
			<path class="st2" d="M1708.8,450.3v43h-43v-43H1708.8 M1709.8,449.3h-45v45h45V449.3L1709.8,449.3z"/>
		</g>
	</g>
	<g class="st0">
		<g>
			<rect x="1710.3" y="449.8" class="st1" width="44" height="44"/>
			<path class="st2" d="M1753.8,450.3v43h-43v-43H1753.8 M1754.8,449.3h-45v45h45V449.3L1754.8,449.3z"/>
		</g>
	</g>
	<g class="st0">
		<g>
			<rect x="1755.3" y="449.8" class="st1" width="44" height="44"/>
			<path class="st2" d="M1798.8,450.3v43h-43v-43H1798.8 M1799.8,449.3h-45v45h45V449.3L1799.8,449.3z"/>
		</g>
	</g>
	<g class="st0">
		<g>
			<rect x="1800.3" y="449.8" class="st1" width="44" height="44"/>
			<path class="st2" d="M1843.8,450.3v43h-43v-43H1843.8 M1844.8,449.3h-45v45h45V449.3L1844.8,449.3z"/>
		</g>
	</g>
	<g class="st0">
		<g>
			<rect x="1845.3" y="449.8" class="st1" width="44" height="44"/>
			<path class="st2" d="M1888.8,450.3v43h-43v-43H1888.8 M1889.8,449.3h-45v45h45V449.3L1889.8,449.3z"/>
		</g>
	</g>
	<g class="st0">
		<g>
			<rect x="1890.3" y="449.8" class="st1" width="44" height="44"/>
			<path class="st2" d="M1933.8,450.3v43h-43v-43H1933.8 M1934.8,449.3h-45v45h45V449.3L1934.8,449.3z"/>
		</g>
	</g>
	<g class="st0">
		<g>
			<rect x="1935.3" y="449.8" class="st1" width="44" height="44"/>
			<path class="st2" d="M1978.8,450.3v43h-43v-43H1978.8 M1979.8,449.3h-45v45h45V449.3L1979.8,449.3z"/>
		</g>
	</g>
	<g class="st0">
		<g>
			<rect x="1980.3" y="449.8" class="st1" width="44" height="44"/>
			<path class="st2" d="M2023.8,450.3v43h-43v-43H2023.8 M2024.8,449.3h-45v45h45V449.3L2024.8,449.3z"/>
		</g>
	</g>
	<g class="st0">
		<g>
			<rect x="1485.3" y="494.8" class="st1" width="44" height="44"/>
			<path class="st2" d="M1528.8,495.3v43h-43v-43H1528.8 M1529.8,494.3h-45v45h45V494.3L1529.8,494.3z"/>
		</g>
	</g>
	<g class="st0">
		<g>
			<rect x="1530.3" y="494.8" class="st1" width="44" height="44"/>
			<path class="st2" d="M1573.8,495.3v43h-43v-43H1573.8 M1574.8,494.3h-45v45h45V494.3L1574.8,494.3z"/>
		</g>
	</g>
	<g class="st0">
		<g>
			<rect x="1575.3" y="494.8" class="st1" width="44" height="44"/>
			<path class="st2" d="M1618.8,495.3v43h-43v-43H1618.8 M1619.8,494.3h-45v45h45V494.3L1619.8,494.3z"/>
		</g>
	</g>
	<g class="st0">
		<g>
			<rect x="1620.3" y="494.8" class="st1" width="44" height="44"/>
			<path class="st2" d="M1663.8,495.3v43h-43v-43H1663.8 M1664.8,494.3h-45v45h45V494.3L1664.8,494.3z"/>
		</g>
	</g>
	<g class="st0">
		<g>
			<rect x="1665.3" y="494.8" class="st1" width="44" height="44"/>
			<path class="st2" d="M1708.8,495.3v43h-43v-43H1708.8 M1709.8,494.3h-45v45h45V494.3L1709.8,494.3z"/>
		</g>
	</g>
	<g class="st0">
		<g>
			<rect x="1710.3" y="494.8" class="st1" width="44" height="44"/>
			<path class="st2" d="M1753.8,495.3v43h-43v-43H1753.8 M1754.8,494.3h-45v45h45V494.3L1754.8,494.3z"/>
		</g>
	</g>
	<g class="st0">
		<g>
			<rect x="1755.3" y="494.8" class="st1" width="44" height="44"/>
			<path class="st2" d="M1798.8,495.3v43h-43v-43H1798.8 M1799.8,494.3h-45v45h45V494.3L1799.8,494.3z"/>
		</g>
	</g>
	<g class="st0">
		<g>
			<rect x="1800.3" y="494.8" class="st1" width="44" height="44"/>
			<path class="st2" d="M1843.8,495.3v43h-43v-43H1843.8 M1844.8,494.3h-45v45h45V494.3L1844.8,494.3z"/>
		</g>
	</g>
	<g class="st0">
		<g>
			<rect x="1845.3" y="494.8" class="st1" width="44" height="44"/>
			<path class="st2" d="M1888.8,495.3v43h-43v-43H1888.8 M1889.8,494.3h-45v45h45V494.3L1889.8,494.3z"/>
		</g>
	</g>
	<g class="st0">
		<g>
			<rect x="1890.3" y="494.8" class="st1" width="44" height="44"/>
			<path class="st2" d="M1933.8,495.3v43h-43v-43H1933.8 M1934.8,494.3h-45v45h45V494.3L1934.8,494.3z"/>
		</g>
	</g>
	<g class="st0">
		<g>
			<rect x="1935.3" y="494.8" class="st1" width="44" height="44"/>
			<path class="st2" d="M1978.8,495.3v43h-43v-43H1978.8 M1979.8,494.3h-45v45h45V494.3L1979.8,494.3z"/>
		</g>
	</g>
	<g class="st0">
		<g>
			<rect x="1980.3" y="494.8" class="st1" width="44" height="44"/>
			<path class="st2" d="M2023.8,495.3v43h-43v-43H2023.8 M2024.8,494.3h-45v45h45V494.3L2024.8,494.3z"/>
		</g>
	</g>
	<g class="st0">
		<g>
			<rect x="1485.3" y="539.8" class="st1" width="44" height="44"/>
			<path class="st2" d="M1528.8,540.3v43h-43v-43H1528.8 M1529.8,539.3h-45v45h45V539.3L1529.8,539.3z"/>
		</g>
	</g>
	<g class="st0">
		<g>
			<rect x="1530.3" y="539.8" class="st1" width="44" height="44"/>
			<path class="st2" d="M1573.8,540.3v43h-43v-43H1573.8 M1574.8,539.3h-45v45h45V539.3L1574.8,539.3z"/>
		</g>
	</g>
	<g class="st0">
		<g>
			<rect x="1575.3" y="539.8" class="st1" width="44" height="44"/>
			<path class="st2" d="M1618.8,540.3v43h-43v-43H1618.8 M1619.8,539.3h-45v45h45V539.3L1619.8,539.3z"/>
		</g>
	</g>
	<g class="st0">
		<g>
			<rect x="1620.3" y="539.8" class="st1" width="44" height="44"/>
			<path class="st2" d="M1663.8,540.3v43h-43v-43H1663.8 M1664.8,539.3h-45v45h45V539.3L1664.8,539.3z"/>
		</g>
	</g>
	<g class="st0">
		<g>
			<rect x="1665.3" y="539.8" class="st1" width="44" height="44"/>
			<path class="st2" d="M1708.8,540.3v43h-43v-43H1708.8 M1709.8,539.3h-45v45h45V539.3L1709.8,539.3z"/>
		</g>
	</g>
	<g class="st0">
		<g>
			<rect x="1710.3" y="539.8" class="st1" width="44" height="44"/>
			<path class="st2" d="M1753.8,540.3v43h-43v-43H1753.8 M1754.8,539.3h-45v45h45V539.3L1754.8,539.3z"/>
		</g>
	</g>
	<g class="st0">
		<g>
			<rect x="1755.3" y="539.8" class="st1" width="44" height="44"/>
			<path class="st2" d="M1798.8,540.3v43h-43v-43H1798.8 M1799.8,539.3h-45v45h45V539.3L1799.8,539.3z"/>
		</g>
	</g>
	<g class="st0">
		<g>
			<rect x="1800.3" y="539.8" class="st1" width="44" height="44"/>
			<path class="st2" d="M1843.8,540.3v43h-43v-43H1843.8 M1844.8,539.3h-45v45h45V539.3L1844.8,539.3z"/>
		</g>
	</g>
	<g class="st0">
		<g>
			<rect x="1845.3" y="539.8" class="st1" width="44" height="44"/>
			<path class="st2" d="M1888.8,540.3v43h-43v-43H1888.8 M1889.8,539.3h-45v45h45V539.3L1889.8,539.3z"/>
		</g>
	</g>
	<g class="st0">
		<g>
			<rect x="1890.3" y="539.8" class="st1" width="44" height="44"/>
			<path class="st2" d="M1933.8,540.3v43h-43v-43H1933.8 M1934.8,539.3h-45v45h45V539.3L1934.8,539.3z"/>
		</g>
	</g>
	<g class="st0">
		<g>
			<rect x="1935.3" y="539.8" class="st1" width="44" height="44"/>
			<path class="st2" d="M1978.8,540.3v43h-43v-43H1978.8 M1979.8,539.3h-45v45h45V539.3L1979.8,539.3z"/>
		</g>
	</g>
	<g class="st0">
		<g>
			<rect x="1980.3" y="539.8" class="st1" width="44" height="44"/>
			<path class="st2" d="M2023.8,540.3v43h-43v-43H2023.8 M2024.8,539.3h-45v45h45V539.3L2024.8,539.3z"/>
		</g>
	</g>
	<g class="st0">
		<g>
			<rect x="1485.3" y="584.8" class="st1" width="44" height="44"/>
			<path class="st2" d="M1528.8,585.3v43h-43v-43H1528.8 M1529.8,584.3h-45v45h45V584.3L1529.8,584.3z"/>
		</g>
	</g>
	<g class="st0">
		<g>
			<rect x="1530.3" y="584.8" class="st1" width="44" height="44"/>
			<path class="st2" d="M1573.8,585.3v43h-43v-43H1573.8 M1574.8,584.3h-45v45h45V584.3L1574.8,584.3z"/>
		</g>
	</g>
	<g class="st0">
		<g>
			<rect x="1575.3" y="584.8" class="st1" width="44" height="44"/>
			<path class="st2" d="M1618.8,585.3v43h-43v-43H1618.8 M1619.8,584.3h-45v45h45V584.3L1619.8,584.3z"/>
		</g>
	</g>
	<g class="st0">
		<g>
			<rect x="1620.3" y="584.8" class="st1" width="44" height="44"/>
			<path class="st2" d="M1663.8,585.3v43h-43v-43H1663.8 M1664.8,584.3h-45v45h45V584.3L1664.8,584.3z"/>
		</g>
	</g>
	<g class="st0">
		<g>
			<rect x="1665.3" y="584.8" class="st1" width="44" height="44"/>
			<path class="st2" d="M1708.8,585.3v43h-43v-43H1708.8 M1709.8,584.3h-45v45h45V584.3L1709.8,584.3z"/>
		</g>
	</g>
	<g class="st0">
		<g>
			<rect x="1710.3" y="584.8" class="st1" width="44" height="44"/>
			<path class="st2" d="M1753.8,585.3v43h-43v-43H1753.8 M1754.8,584.3h-45v45h45V584.3L1754.8,584.3z"/>
		</g>
	</g>
	<g class="st0">
		<g>
			<rect x="1755.3" y="584.8" class="st1" width="44" height="44"/>
			<path class="st2" d="M1798.8,585.3v43h-43v-43H1798.8 M1799.8,584.3h-45v45h45V584.3L1799.8,584.3z"/>
		</g>
	</g>
	<g class="st0">
		<g>
			<rect x="1800.3" y="584.8" class="st1" width="44" height="44"/>
			<path class="st2" d="M1843.8,585.3v43h-43v-43H1843.8 M1844.8,584.3h-45v45h45V584.3L1844.8,584.3z"/>
		</g>
	</g>
	<g class="st0">
		<g>
			<rect x="1845.3" y="584.8" class="st1" width="44" height="44"/>
			<path class="st2" d="M1888.8,585.3v43h-43v-43H1888.8 M1889.8,584.3h-45v45h45V584.3L1889.8,584.3z"/>
		</g>
	</g>
	<g class="st0">
		<g>
			<rect x="1890.3" y="584.8" class="st1" width="44" height="44"/>
			<path class="st2" d="M1933.8,585.3v43h-43v-43H1933.8 M1934.8,584.3h-45v45h45V584.3L1934.8,584.3z"/>
		</g>
	</g>
	<g class="st0">
		<g>
			<rect x="1935.3" y="584.8" class="st1" width="44" height="44"/>
			<path class="st2" d="M1978.8,585.3v43h-43v-43H1978.8 M1979.8,584.3h-45v45h45V584.3L1979.8,584.3z"/>
		</g>
	</g>
	<g class="st0">
		<g>
			<rect x="1980.3" y="584.8" class="st1" width="44" height="44"/>
			<path class="st2" d="M2023.8,585.3v43h-43v-43H2023.8 M2024.8,584.3h-45v45h45V584.3L2024.8,584.3z"/>
		</g>
	</g>
	<g class="st0">
		<g>
			<rect x="1485.3" y="629.8" class="st1" width="44" height="44"/>
			<path class="st2" d="M1528.8,630.3v43h-43v-43H1528.8 M1529.8,629.3h-45v45h45V629.3L1529.8,629.3z"/>
		</g>
	</g>
	<g class="st0">
		<g>
			<rect x="1530.3" y="629.8" class="st1" width="44" height="44"/>
			<path class="st2" d="M1573.8,630.3v43h-43v-43H1573.8 M1574.8,629.3h-45v45h45V629.3L1574.8,629.3z"/>
		</g>
	</g>
	<g class="st0">
		<g>
			<rect x="1575.3" y="629.8" class="st1" width="44" height="44"/>
			<path class="st2" d="M1618.8,630.3v43h-43v-43H1618.8 M1619.8,629.3h-45v45h45V629.3L1619.8,629.3z"/>
		</g>
	</g>
	<g class="st0">
		<g>
			<rect x="1620.3" y="629.8" class="st1" width="44" height="44"/>
			<path class="st2" d="M1663.8,630.3v43h-43v-43H1663.8 M1664.8,629.3h-45v45h45V629.3L1664.8,629.3z"/>
		</g>
	</g>
	<g class="st0">
		<g>
			<rect x="1665.3" y="629.8" class="st1" width="44" height="44"/>
			<path class="st2" d="M1708.8,630.3v43h-43v-43H1708.8 M1709.8,629.3h-45v45h45V629.3L1709.8,629.3z"/>
		</g>
	</g>
	<g class="st0">
		<g>
			<rect x="1710.3" y="629.8" class="st1" width="44" height="44"/>
			<path class="st2" d="M1753.8,630.3v43h-43v-43H1753.8 M1754.8,629.3h-45v45h45V629.3L1754.8,629.3z"/>
		</g>
	</g>
	<g class="st0">
		<g>
			<rect x="1755.3" y="629.8" class="st1" width="44" height="44"/>
			<path class="st2" d="M1798.8,630.3v43h-43v-43H1798.8 M1799.8,629.3h-45v45h45V629.3L1799.8,629.3z"/>
		</g>
	</g>
	<g class="st0">
		<g>
			<rect x="1800.3" y="629.8" class="st1" width="44" height="44"/>
			<path class="st2" d="M1843.8,630.3v43h-43v-43H1843.8 M1844.8,629.3h-45v45h45V629.3L1844.8,629.3z"/>
		</g>
	</g>
	<g class="st0">
		<g>
			<rect x="1845.3" y="629.8" class="st1" width="44" height="44"/>
			<path class="st2" d="M1888.8,630.3v43h-43v-43H1888.8 M1889.8,629.3h-45v45h45V629.3L1889.8,629.3z"/>
		</g>
	</g>
	<g class="st0">
		<g>
			<rect x="1890.3" y="629.8" class="st1" width="44" height="44"/>
			<path class="st2" d="M1933.8,630.3v43h-43v-43H1933.8 M1934.8,629.3h-45v45h45V629.3L1934.8,629.3z"/>
		</g>
	</g>
	<g class="st0">
		<g>
			<rect x="1935.3" y="629.8" class="st1" width="44" height="44"/>
			<path class="st2" d="M1978.8,630.3v43h-43v-43H1978.8 M1979.8,629.3h-45v45h45V629.3L1979.8,629.3z"/>
		</g>
	</g>
	<g class="st0">
		<g>
			<rect x="1980.3" y="629.8" class="st1" width="44" height="44"/>
			<path class="st2" d="M2023.8,630.3v43h-43v-43H2023.8 M2024.8,629.3h-45v45h45V629.3L2024.8,629.3z"/>
		</g>
	</g>
	<g class="st0">
		<g>
			<rect x="1485.3" y="674.8" class="st1" width="44" height="44"/>
			<path class="st2" d="M1528.8,675.3v43h-43v-43H1528.8 M1529.8,674.3h-45v45h45V674.3L1529.8,674.3z"/>
		</g>
	</g>
	<g class="st0">
		<g>
			<rect x="1530.3" y="674.8" class="st1" width="44" height="44"/>
			<path class="st2" d="M1573.8,675.3v43h-43v-43H1573.8 M1574.8,674.3h-45v45h45V674.3L1574.8,674.3z"/>
		</g>
	</g>
	<g class="st0">
		<g>
			<rect x="1575.3" y="674.8" class="st1" width="44" height="44"/>
			<path class="st2" d="M1618.8,675.3v43h-43v-43H1618.8 M1619.8,674.3h-45v45h45V674.3L1619.8,674.3z"/>
		</g>
	</g>
	<g class="st0">
		<g>
			<rect x="1620.3" y="674.8" class="st1" width="44" height="44"/>
			<path class="st2" d="M1663.8,675.3v43h-43v-43H1663.8 M1664.8,674.3h-45v45h45V674.3L1664.8,674.3z"/>
		</g>
	</g>
	<g class="st0">
		<g>
			<rect x="1665.3" y="674.8" class="st1" width="44" height="44"/>
			<path class="st2" d="M1708.8,675.3v43h-43v-43H1708.8 M1709.8,674.3h-45v45h45V674.3L1709.8,674.3z"/>
		</g>
	</g>
	<g class="st0">
		<g>
			<rect x="1710.3" y="674.8" class="st1" width="44" height="44"/>
			<path class="st2" d="M1753.8,675.3v43h-43v-43H1753.8 M1754.8,674.3h-45v45h45V674.3L1754.8,674.3z"/>
		</g>
	</g>
	<g class="st0">
		<g>
			<rect x="1755.3" y="674.8" class="st1" width="44" height="44"/>
			<path class="st2" d="M1798.8,675.3v43h-43v-43H1798.8 M1799.8,674.3h-45v45h45V674.3L1799.8,674.3z"/>
		</g>
	</g>
	<g class="st0">
		<g>
			<rect x="1800.3" y="674.8" class="st1" width="44" height="44"/>
			<path class="st2" d="M1843.8,675.3v43h-43v-43H1843.8 M1844.8,674.3h-45v45h45V674.3L1844.8,674.3z"/>
		</g>
	</g>
	<g class="st0">
		<g>
			<rect x="1845.3" y="674.8" class="st1" width="44" height="44"/>
			<path class="st2" d="M1888.8,675.3v43h-43v-43H1888.8 M1889.8,674.3h-45v45h45V674.3L1889.8,674.3z"/>
		</g>
	</g>
	<g class="st0">
		<g>
			<rect x="1890.3" y="674.8" class="st1" width="44" height="44"/>
			<path class="st2" d="M1933.8,675.3v43h-43v-43H1933.8 M1934.8,674.3h-45v45h45V674.3L1934.8,674.3z"/>
		</g>
	</g>
	<g class="st0">
		<g>
			<rect x="1935.3" y="674.8" class="st1" width="44" height="44"/>
			<path class="st2" d="M1978.8,675.3v43h-43v-43H1978.8 M1979.8,674.3h-45v45h45V674.3L1979.8,674.3z"/>
		</g>
	</g>
	<g class="st0">
		<g>
			<rect x="1980.3" y="674.8" class="st1" width="44" height="44"/>
			<path class="st2" d="M2023.8,675.3v43h-43v-43H2023.8 M2024.8,674.3h-45v45h45V674.3L2024.8,674.3z"/>
		</g>
	</g>
</g>
<g id="Layer_6">
	<text transform="matrix(1 0 0 1 826.6273 179.3395)" class="st2 st3 st4">GROUND</text>
	<text transform="matrix(1 0 0 1 826.6273 269.3394)" class="st2 st3 st4">WALL</text>
	<text transform="matrix(1 0 0 1 826.6273 359.3394)" class="st2 st3 st4">GOAL</text>
	<text transform="matrix(1 0 0 1 826.6273 449.3394)" class="st2 st3 st4">LASER</text>
	<text transform="matrix(1 0 0 1 826.6273 539.3395)" class="st2 st3 st4">DOOR</text>
	<text transform="matrix(1 0 0 1 1057.2523 179.3395)" class="st2 st3 st4">1 SIDED MIRROR</text>
	<text transform="matrix(1 0 0 1 1057.2523 269.3394)" class="st2 st3 st4">2 SIDED MIRROR</text>
	<text transform="matrix(1 0 0 1 1057.2523 334.0269)"><tspan x="0" y="0" class="st2 st3 st4">1 SIDED MIRROR</tspan><tspan x="0" y="26.3" class="st2 st3 st4">ACTIVATOR</tspan></text>
	<text transform="matrix(1 0 0 1 1057.2523 424.0269)"><tspan x="0" y="0" class="st2 st3 st4">2 SIDED MIRROR</tspan><tspan x="0" y="26.3" class="st2 st3 st4">ACTIVATOR</tspan></text>
	<text transform="matrix(1 0 0 1 1057.2523 539.3395)" class="st2 st3 st4">ABSORBER LASER</text>
	<text transform="matrix(1 0 0 1 1057.2523 629.3395)" class="st2 st3 st4">COLOR COMBINER</text>
	<text transform="matrix(1 0 0 1 1057.2523 719.3395)" class="st2 st3 st4">WIRE</text>
	<text transform="matrix(1 0 0 1 826.6273 629.3395)" class="st2 st3 st4">ACTIVATOR</text>
	<text transform="matrix(1 0 0 1 826.6273 719.3395)" class="st2 st3 st4">ABSORBER</text>
	<text transform="matrix(1 0 0 1 787.2523 97.777)" class="st5 st6">Movable</text>
	<text transform="matrix(1 0 0 1 787.2523 111.8395)" class="st5 st6">Turnable 4 way</text>
	<text transform="matrix(1 0 0 1 787.2523 125.902)" class="st5 st6">Turnable 8 way</text>
	<rect x="718.7" y="44.7" class="st7" width="630" height="45"/>
	<text transform="matrix(1 0 0 1 943.6021 86.2118)" class="st2 st3 st8">PARTS</text>
</g>
<g id="parts">
	<g>
		<g>
			<rect x="765.3" y="134.8" class="st1" width="44" height="44"/>
			<path d="M808.8,135.3v43h-43v-43H808.8 M809.8,134.3h-45v45h45V134.3L809.8,134.3z"/>
		</g>
	</g>
	<g>
		<g>
			<g>
				<rect x="765.3" y="224.8" class="st1" width="44" height="44"/>
				<path d="M808.8,225.3v43h-43v-43H808.8 M809.8,224.3h-45v45h45V224.3L809.8,224.3z"/>
			</g>
		</g>
		<polygon points="809.8,239.3 809.8,254.3 794.8,254.3 794.8,269.3 779.8,269.3 779.8,254.3 764.8,254.3 764.8,239.3 779.8,239.3 
			779.8,224.3 794.8,224.3 794.8,239.3 		"/>
	</g>
	<g>
		<g>
			<g>
				<g>
					<rect x="765.3" y="314.8" class="st1" width="44" height="44"/>
					<path d="M808.8,315.3v43h-43v-43H808.8 M809.8,314.3h-45v45h45V314.3L809.8,314.3z"/>
				</g>
			</g>
		</g>
		<circle class="st9" cx="787.3" cy="336.8" r="18.8"/>
		<polygon points="787.3,346.1 778.6,350.9 780.2,340.7 773.2,333.5 782.9,332 787.3,322.8 791.6,332 801.3,333.5 794.3,340.7 
			795.9,350.9 		"/>
	</g>
	<g>
		<g>
			<g>
				<g>
					<rect x="765.3" y="674.8" class="st1" width="44" height="44"/>
					<path d="M808.8,675.3v43h-43v-43H808.8 M809.8,674.3h-45v45h45V674.3L809.8,674.3z"/>
				</g>
			</g>
		</g>
		<circle class="st9" cx="787.3" cy="696.8" r="11.2"/>
	</g>
	<g>
		<g>
			<g>
				<g>
					<rect x="765.3" y="494.8" class="st1" width="44" height="44"/>
					<path d="M808.8,495.3v43h-43v-43H808.8 M809.8,494.3h-45v45h45V494.3L809.8,494.3z"/>
				</g>
			</g>
		</g>
		<rect x="764.8" y="505.6" width="45" height="22.5"/>
		<rect x="772.3" y="505.6" class="st10" width="30" height="15"/>
	</g>
	<g>
		<g>
			<g>
				<g>
					<rect x="765.3" y="584.8" class="st1" width="44" height="44"/>
					<path d="M808.8,585.3v43h-43v-43H808.8 M809.8,584.3h-45v45h45V584.3L809.8,584.3z"/>
				</g>
			</g>
		</g>
		<rect x="764.8" y="595.6" width="45" height="22.5"/>
		<rect x="768.5" y="599.3" class="st11" width="37.5" height="15"/>
		<rect x="776" y="603.1" width="22.5" height="7.5"/>
	</g>
	<g>
		<circle class="st12" cx="769.7" cy="108.4" r="4.9"/>
		<text transform="matrix(1 0 0 1 767.1151 110.8247)" class="st5 st13">4</text>
		<polygon points="770.6,113.2 770.6,114.7 769.3,113.9 768,113.2 769.3,112.4 770.6,111.7 		"/>
		<polygon points="768.7,103.5 768.7,102 770,102.8 771.2,103.5 770,104.3 768.7,105 		"/>
		<polygon points="764.9,109.3 763.4,109.3 764.1,108 764.9,106.7 765.6,108 766.4,109.3 		"/>
		<polygon points="774.5,107.4 776,107.4 775.3,108.7 774.5,109.9 773.8,108.7 773.1,107.4 		"/>
	</g>
	<g>
		<circle class="st12" cx="769.7" cy="122.4" r="4.9"/>
		<polygon points="770.6,127.2 770.6,128.7 769.3,128 768,127.2 769.3,126.5 770.6,125.8 		"/>
		<polygon points="768.7,117.6 768.7,116.1 770,116.8 771.2,117.6 770,118.3 768.7,119.1 		"/>
		<polygon points="764.9,123.4 763.4,123.4 764.1,122.1 764.9,120.8 765.6,122.1 766.4,123.4 		"/>
		<polygon points="774.5,121.4 776,121.4 775.3,122.7 774.5,124 773.8,122.7 773.1,121.4 		"/>
		<text transform="matrix(1 0 0 1 767.239 124.9973)" class="st5 st13">8</text>
	</g>
	<g>
		<circle class="st12" cx="769.6" cy="95.6" r="4.9"/>
		<polygon points="769.6,93.1 767.9,93.1 768.7,92.2 769.6,91.2 770.5,92.2 771.4,93.1 		"/>
		<polygon points="769.6,98 771.4,98 770.5,99 769.6,99.9 768.7,99 767.9,98 		"/>
		<polygon points="772.1,95.6 772.1,93.8 773,94.7 774,95.6 773,96.4 772.1,97.3 		"/>
		<polygon points="767.2,95.6 767.2,97.3 766.2,96.4 765.3,95.6 766.2,94.7 767.2,93.8 		"/>
		<rect x="766.9" y="95.2" width="5.3" height="0.7"/>
		<rect x="766.9" y="95.2" transform="matrix(1.597778e-07 1 -1 1.597778e-07 865.1243 -673.9971)" width="5.3" height="0.7"/>
	</g>
	<g>
		<g>
			<g>
				<g>
					<rect x="990.3" y="134.8" class="st1" width="44" height="44"/>
					<path d="M1033.8,135.3v43h-43v-43H1033.8 M1034.8,134.3h-45v45h45V134.3L1034.8,134.3z"/>
				</g>
			</g>
		</g>
		<rect x="989.9" y="151.2" width="44.9" height="11.2"/>
		<rect x="995.4" y="151.2" class="st14" width="33.8" height="5.6"/>
		<rect x="989.8" y="148.4" width="5.6" height="16.9"/>
		<rect x="1029.1" y="148.4" width="5.6" height="16.9"/>
	</g>
	<g>
		<g>
			<g>
				<g>
					<rect x="990.3" y="224.8" class="st1" width="44" height="44"/>
					<path d="M1033.8,225.3v43h-43v-43H1033.8 M1034.8,224.3h-45v45h45V224.3L1034.8,224.3z"/>
				</g>
			</g>
		</g>
		<rect x="989.8" y="238.4" width="5.6" height="16.9"/>
		<rect x="1029.1" y="238.4" width="5.6" height="16.9"/>
		<rect x="995.4" y="241.2" class="st14" width="33.8" height="11.2"/>
	</g>
	<g>
		<g>
			<g>
				<g>
					<rect x="990.3" y="314.8" class="st1" width="44" height="44"/>
					<path d="M1033.8,315.3v43h-43v-43H1033.8 M1034.8,314.3h-45v45h45V314.3L1034.8,314.3z"/>
				</g>
			</g>
		</g>
		<rect x="989.9" y="331.2" width="44.9" height="11.2"/>
		<g>
			<rect x="995.4" y="331.2" class="st11" width="33.8" height="5.6"/>
		</g>
		<rect x="989.8" y="328.4" width="5.6" height="16.9"/>
		<rect x="1029.1" y="328.4" width="5.6" height="16.9"/>
	</g>
	<g>
		<g>
			<g>
				<g>
					<rect x="990.3" y="404.8" class="st1" width="44" height="44"/>
					<path d="M1033.8,405.3v43h-43v-43H1033.8 M1034.8,404.3h-45v45h45V404.3L1034.8,404.3z"/>
				</g>
			</g>
		</g>
		<rect x="989.8" y="418.4" width="5.6" height="16.9"/>
		<rect x="1029.1" y="418.4" width="5.6" height="16.9"/>
		<g>
			<rect x="995.4" y="421.2" class="st11" width="33.8" height="11.2"/>
		</g>
	</g>
	<g>
		<g>
			<g>
				<g>
					<rect x="765.3" y="404.8" class="st1" width="44" height="44"/>
					<path d="M808.8,405.3v43h-43v-43H808.8 M809.8,404.3h-45v45h45V404.3L809.8,404.3z"/>
				</g>
			</g>
		</g>
		<g>
			<polygon class="st11" points="771.4,411.6 799.2,426.8 771.4,442 			"/>
			<path class="st15" d="M772.4,413.3l24.8,13.5l-24.8,13.5V413.3 M770.4,410v33.8l30.9-16.9L770.4,410L770.4,410z"/>
		</g>
		<g>
			<rect x="795.7" y="424" class="st15" width="8.4" height="5.6"/>
		</g>
	</g>
	<g>
		<g>
			<g>
				<g>
					<rect x="990.3" y="494.8" class="st1" width="44" height="44"/>
					<path d="M1033.8,495.3v43h-43v-43H1033.8 M1034.8,494.3h-45v45h45V494.3L1034.8,494.3z"/>
				</g>
			</g>
		</g>
		<path class="st9" d="M1010.4,509.3v15.2c-1.3,0.7-2.8,1.2-4.4,1.2c-4.8,0-8.8-3.9-8.8-8.8c0-4.8,3.9-8.8,8.8-8.8
			C1007.6,508.1,1009.1,508.5,1010.4,509.3z"/>
		<g>
			<polygon class="st11" points="1010.4,507.5 1024.5,516.8 1010.4,526.2 			"/>
			<path class="st15" d="M1011.4,509.3l11.3,7.5l-11.3,7.5V509.3 M1009.4,505.6v22.5l16.9-11.2L1009.4,505.6L1009.4,505.6z"/>
		</g>
		<g>
			<rect x="1020.7" y="514" class="st15" width="8.4" height="5.6"/>
		</g>
	</g>
	<g>
		<g>
			<g>
				<g>
					<rect x="990.3" y="584.8" class="st1" width="44" height="44"/>
					<path d="M1033.8,585.3v43h-43v-43H1033.8 M1034.8,584.3h-45v45h45V584.3L1034.8,584.3z"/>
				</g>
			</g>
		</g>
		<g>
			<polygon class="st14" points="1002,591.8 1024.5,606.8 1002,621.8 			"/>
			<path class="st15" d="M1003,593.7l19.7,13.1L1003,620V593.7 M1001,590v33.8l25.3-16.9L1001,590L1001,590z"/>
		</g>
		<g>
			<rect x="1020.7" y="604" class="st15" width="8.4" height="5.6"/>
		</g>
		<circle class="st16" cx="1009.4" cy="592.8" r="5.6"/>
		<circle class="st16" cx="1009.4" cy="620.9" r="5.6"/>
		<circle class="st16" cx="998.2" cy="592.8" r="5.6"/>
		<circle class="st16" cx="998.2" cy="606.8" r="5.6"/>
		<circle class="st16" cx="998.2" cy="620.9" r="5.6"/>
	</g>
	<line class="st17" x1="989.8" y1="699.7" x2="1034.8" y2="699.7"/>
	<g>
		<rect x="1169.8" y="37.8" class="st18" width="30" height="30"/>
	</g>
	<g>
		<rect x="1199.8" y="37.8" class="st19" width="30" height="30"/>
	</g>
	<g>
		<rect x="1169.8" y="67.8" class="st20" width="30" height="30"/>
	</g>
	<g>
		<rect x="1199.8" y="67.8" class="st21" width="30" height="30"/>
	</g>
	<g>
		<rect x="1229.8" y="37.8" class="st22" width="30" height="30"/>
	</g>
	<g>
		<rect x="1229.8" y="67.8" class="st23" width="30" height="30"/>
	</g>
</g>
<g id="level">
</g>
<g id="level_name">
	<rect y="44.3" class="st7" width="630" height="45"/>
	<text transform="matrix(1 0 0 1 159.0253 85.8652)" class="st2 st3 st8">Level Name</text>
</g>
<g id="solution">
	<rect x="1440" y="44.3" class="st7" width="630" height="45"/>
	<text transform="matrix(1 0 0 1 1613.8524 85.8652)" class="st2 st3 st8">SOLUTION</text>
</g>
</svg>
